<svg width="115" height="109" fill="none" xmlns="http://www.w3.org/2000/svg"><path d="M90.59 19.116l-28.73-7.698c-10.422-2.793-18.124 1.684-20.926 12.14l-9.488 35.41c-2.848 10.628 1.622 18.218 12.043 21.01l28.73 7.7c10.59 2.837 18.084-1.548 20.932-12.175l9.488-35.412c2.802-10.456-1.459-18.138-12.049-20.975z" fill="url(#paint0_linear)"/><g opacity=".5" filter="url(#filter0_f)"><path d="M83.084 28.813l-19.575-5.245c-7.1-1.902-12.348 1.147-14.257 8.27l-6.464 24.127c-1.94 7.24 1.105 12.412 8.205 14.315l19.574 5.245c7.215 1.933 12.321-1.055 14.261-8.295l6.465-24.126c1.908-7.124-.995-12.358-8.21-14.29z" fill="#E46800"/></g><g filter="url(#filter1_b)"><mask id="a" maskUnits="userSpaceOnUse" x="0" y="25" width="84" height="84" fill="#000"><path fill="#fff" d="M0 25h84v84H0z"/><path d="M59.555 26H24.152C10.31 26 1 35.718 1 50.173v33.36c0 14.415 9.31 24.133 23.152 24.133h35.403c13.842 0 23.112-9.718 23.112-24.132V50.173C82.667 35.718 73.397 26 59.555 26z"/></mask><path d="M59.555 26H24.152C10.31 26 1 35.718 1 50.173v33.36c0 14.415 9.31 24.133 23.152 24.133h35.403c13.842 0 23.112-9.718 23.112-24.132V50.173C82.667 35.718 73.397 26 59.555 26z" fill="#FFCBB9" fill-opacity=".35"/><path d="M59.555 27a1 1 0 100-2v2zm0-2a1 1 0 100 2v-2zm0 0H24.152v2h35.403v-2zm-35.403 0c-7.164 0-13.223 2.52-17.489 6.974C2.401 36.424 0 42.729 0 50.173h2c0-7.01 2.254-12.793 6.107-16.816C11.957 29.338 17.474 27 24.153 27v-2zM0 50.173v33.36h2v-33.36H0zm0 33.36c0 7.425 2.401 13.72 6.664 18.164 4.266 4.449 10.324 6.969 17.489 6.969v-2c-6.679 0-12.196-2.339-16.046-6.353C4.254 96.295 2 90.523 2 83.533H0zm24.152 25.133h35.403v-2H24.153v2zm35.403 0c7.164 0 13.213-2.52 17.47-6.969 4.252-4.446 6.642-10.74 6.642-18.163h-2c0 6.99-2.245 12.763-6.088 16.78-3.839 4.014-9.346 6.352-16.024 6.352v2zm24.112-25.132V50.173h-2v33.36h2zm0-33.361c0-7.443-2.39-13.748-6.642-18.198C72.769 27.52 66.719 25 59.555 25v2c6.678 0 12.185 2.338 16.024 6.356 3.843 4.023 6.088 9.805 6.088 16.817h2z" fill="url(#paint1_linear)" mask="url(#a)"/></g><g filter="url(#filter2_bd)"><path d="M55.935 63.741l-4.814 4.657 1.139 6.583a2.961 2.961 0 01-1.209 2.936 2.996 2.996 0 01-3.185.223l-5.941-3.103-5.953 3.107a3.026 3.026 0 01-1.401.353 3.029 3.029 0 01-1.772-.576c-.94-.677-1.4-1.8-1.205-2.94l1.135-6.583-4.814-4.657a2.967 2.967 0 01-.764-3.082 3.004 3.004 0 012.45-2.036l6.64-.962 2.977-5.99A3.017 3.017 0 0141.925 50h.008a3.008 3.008 0 012.703 1.675l2.977 5.986 6.652.966a2.982 2.982 0 012.434 2.032 2.95 2.95 0 01-.764 3.082z" fill="url(#paint2_linear)"/><path d="M55.796 63.597h0l-4.814 4.657-.076.074.018.104 1.139 6.583a2.761 2.761 0 01-1.128 2.74h-.002a2.796 2.796 0 01-2.973.209h-.001l-5.941-3.104-.093-.048-.093.048-5.953 3.107h0c-.414.217-.864.33-1.308.33a2.829 2.829 0 01-1.655-.538 2.776 2.776 0 01-1.125-2.744s0 0 0 0l1.135-6.583.018-.105-.076-.073-4.814-4.656h0a2.767 2.767 0 01-.713-2.877 2.805 2.805 0 012.288-1.9h.001l6.64-.962.103-.015.047-.094 2.976-5.99s0 0 0 0a2.817 2.817 0 012.529-1.56h.008a2.808 2.808 0 012.524 1.563h0l2.977 5.988.047.093.103.015 6.652.966h.001a2.783 2.783 0 012.271 1.896h0a2.75 2.75 0 01-.712 2.876z" stroke="url(#paint3_linear)" stroke-width=".4"/></g><defs><linearGradient id="paint0_linear" x1="76.223" y1="15.267" x2="57.852" y2="83.828" gradientUnits="userSpaceOnUse"><stop stop-color="#FFB37F"/><stop offset="1" stop-color="#FF7B0D"/></linearGradient><linearGradient id="paint1_linear" x1=".762" y1="25.444" x2="66.04" y2="100.076" gradientUnits="userSpaceOnUse"><stop stop-color="#fff" stop-opacity=".4"/><stop offset="1" stop-color="#fff" stop-opacity="0"/></linearGradient><linearGradient id="paint2_linear" x1="54.736" y1="55.146" x2="21.487" y2="56.281" gradientUnits="userSpaceOnUse"><stop stop-color="#fff"/><stop offset="1" stop-color="#fff" stop-opacity=".2"/></linearGradient><linearGradient id="paint3_linear" x1="31.752" y1="53.32" x2="49.735" y2="76.651" gradientUnits="userSpaceOnUse"><stop stop-color="#fff" stop-opacity=".25"/><stop offset="1" stop-color="#fff" stop-opacity="0"/></linearGradient><filter id="filter0_f" x="19.215" y=".014" width="95.65" height="99.086" filterUnits="userSpaceOnUse" color-interpolation-filters="sRGB"><feFlood flood-opacity="0" result="BackgroundImageFix"/><feBlend in="SourceGraphic" in2="BackgroundImageFix" result="shape"/><feGaussianBlur stdDeviation="11.5" result="effect1_foregroundBlur"/></filter><filter id="filter1_b" x="-24" y="1" width="131.667" height="131.667" filterUnits="userSpaceOnUse" color-interpolation-filters="sRGB"><feFlood flood-opacity="0" result="BackgroundImageFix"/><feGaussianBlur in="BackgroundImage" stdDeviation="12"/><feComposite in2="SourceAlpha" operator="in" result="effect1_backgroundBlur"/><feBlend in="SourceGraphic" in2="effect1_backgroundBlur" result="shape"/></filter><filter id="filter2_bd" x="12" y="35" width="59.852" height="58.498" filterUnits="userSpaceOnUse" color-interpolation-filters="sRGB"><feFlood flood-opacity="0" result="BackgroundImageFix"/><feGaussianBlur in="BackgroundImage" stdDeviation="7.5"/><feComposite in2="SourceAlpha" operator="in" result="effect1_backgroundBlur"/><feColorMatrix in="SourceAlpha" values="0 0 0 0 0 0 0 0 0 0 0 0 0 0 0 0 0 0 127 0" result="hardAlpha"/><feOffset dx="5" dy="5"/><feGaussianBlur stdDeviation="5"/><feColorMatrix values="0 0 0 0 1 0 0 0 0 0.580392 0 0 0 0 0.247059 0 0 0 0.5 0"/><feBlend in2="effect1_backgroundBlur" result="effect2_dropShadow"/><feBlend in="SourceGraphic" in2="effect2_dropShadow" result="shape"/></filter></defs></svg>