<svg width="106" height="98" fill="none" xmlns="http://www.w3.org/2000/svg"><path d="M52.446 5.098L19.06 14.044c-12.167 3.26-17.213 12-13.953 24.165l8.936 33.351c3.26 12.166 12 17.211 24.166 13.951l33.387-8.945c12.166-3.26 17.181-11.992 13.921-24.157l-8.936-33.352C73.32 6.892 64.613 1.838 52.446 5.098z" fill="url(#paint0_linear)"/><g opacity=".5" filter="url(#filter0_f)"><path d="M50.333 19.87l-22.067 5.914c-8.042 2.155-11.436 7.711-9.386 15.364l5.622 20.98c2.05 7.654 7.769 10.769 15.81 8.614L62.38 64.83c8.041-2.155 11.415-7.706 9.364-15.359l-5.622-20.98c-2.05-7.653-7.747-10.774-15.789-8.62z" fill="#E31352"/></g><g filter="url(#filter1_b)"><path d="M75.7 22.649H43.626c-12.54 0-20.976 8.805-20.976 21.9v30.225c0 13.059 8.435 21.864 20.976 21.864H75.7c12.541 0 20.939-8.805 20.939-21.864V44.55c0-13.096-8.398-21.901-20.939-21.901z" fill="#FF749F" fill-opacity=".35"/><path d="M75.7 22.149H43.626c-6.392 0-11.771 2.246-15.552 6.193-3.778 3.945-5.924 9.551-5.924 16.208v30.224c0 6.638 2.146 12.235 5.925 16.175 3.78 3.942 9.16 6.189 15.551 6.189H75.7c6.392 0 11.763-2.247 15.534-6.19 3.77-3.94 5.905-9.536 5.905-16.174V44.55c0-6.656-2.136-12.262-5.905-16.207-3.771-3.948-9.142-6.194-15.534-6.194z" stroke="url(#paint1_linear)" stroke-linecap="round" stroke-linejoin="round"/></g><g filter="url(#filter2_b)"><path d="M100.564 17.213a5.436 5.436 0 100 10.872 5.436 5.436 0 000-10.872z" fill="url(#paint2_linear)"/></g><g filter="url(#filter3_bd)"><path d="M79 53.092L68.427 66.734a2.734 2.734 0 01-3.903.488l-10.15-7.959-9.14 11.824a2.734 2.734 0 01-5.043-1.591 2.66 2.66 0 01.586-1.69l10.93-14.097a2.733 2.733 0 013.871-.52l10.15 7.99 8.913-11.466a2.7 2.7 0 013.838-.552 2.79 2.79 0 01.52 3.866v.065z" fill="url(#paint3_linear)"/><path d="M68.27 66.612h0l-.002.002a2.534 2.534 0 01-3.619.452l-.002-.002-10.15-7.958-.158-.124-.123.159-9.14 11.824-.007.007-.005.009a2.535 2.535 0 01-4.673-1.475h0v-.012a2.461 2.461 0 01.542-1.563h0l.002-.002 10.93-14.098h0l.002-.003a2.533 2.533 0 013.588-.481l10.149 7.99.158.124.123-.158L74.8 49.836h0l.004-.005a2.5 2.5 0 013.554-.512 2.59 2.59 0 01.482 3.588l-.04.053v.063L68.27 66.612z" stroke="url(#paint4_linear)" stroke-width=".4"/></g><defs><linearGradient id="paint0_linear" x1="51.856" y1="48.685" x2="-2.763" y2="96.051" gradientUnits="userSpaceOnUse"><stop stop-color="#FF759F"/><stop offset="1" stop-color="#FF196E"/></linearGradient><linearGradient id="paint1_linear" x1="34.428" y1="31.269" x2="81.625" y2="89.723" gradientUnits="userSpaceOnUse"><stop stop-color="#fff" stop-opacity=".25"/><stop offset="1" stop-color="#fff" stop-opacity="0"/></linearGradient><linearGradient id="paint2_linear" x1="101.364" y1="23.377" x2="91.811" y2="28.022" gradientUnits="userSpaceOnUse"><stop stop-color="#FF759F"/><stop offset="1" stop-color="#FF196E"/></linearGradient><linearGradient id="paint3_linear" x1="76.761" y1="52.89" x2="32.994" y2="55.253" gradientUnits="userSpaceOnUse"><stop stop-color="#fff"/><stop offset="1" stop-color="#fff" stop-opacity=".2"/></linearGradient><linearGradient id="paint4_linear" x1="46.454" y1="51.367" x2="58.67" y2="76.428" gradientUnits="userSpaceOnUse"><stop stop-color="#fff" stop-opacity=".25"/><stop offset="1" stop-color="#fff" stop-opacity="0"/></linearGradient><filter id="filter0_f" x="1.296" y="2.204" width="88.035" height="86.205" filterUnits="userSpaceOnUse" color-interpolation-filters="sRGB"><feFlood flood-opacity="0" result="BackgroundImageFix"/><feBlend in="SourceGraphic" in2="BackgroundImageFix" result="shape"/><feGaussianBlur stdDeviation="8.5" result="effect1_foregroundBlur"/></filter><filter id="filter1_b" x="-2.35" y="-2.351" width="123.989" height="123.989" filterUnits="userSpaceOnUse" color-interpolation-filters="sRGB"><feFlood flood-opacity="0" result="BackgroundImageFix"/><feGaussianBlur in="BackgroundImage" stdDeviation="12"/><feComposite in2="SourceAlpha" operator="in" result="effect1_backgroundBlur"/><feBlend in="SourceGraphic" in2="effect1_backgroundBlur" result="shape"/></filter><filter id="filter2_b" x="80.128" y="2.213" width="40.872" height="40.872" filterUnits="userSpaceOnUse" color-interpolation-filters="sRGB"><feFlood flood-opacity="0" result="BackgroundImageFix"/><feGaussianBlur in="BackgroundImage" stdDeviation="7.5"/><feComposite in2="SourceAlpha" operator="in" result="effect1_backgroundBlur"/><feBlend in="SourceGraphic" in2="effect1_backgroundBlur" result="shape"/></filter><filter id="filter3_bd" x="25.188" y="33.598" width="69.365" height="53.765" filterUnits="userSpaceOnUse" color-interpolation-filters="sRGB"><feFlood flood-opacity="0" result="BackgroundImageFix"/><feGaussianBlur in="BackgroundImage" stdDeviation="7.5"/><feComposite in2="SourceAlpha" operator="in" result="effect1_backgroundBlur"/><feColorMatrix in="SourceAlpha" values="0 0 0 0 0 0 0 0 0 0 0 0 0 0 0 0 0 0 127 0" result="hardAlpha"/><feOffset dx="5" dy="5"/><feGaussianBlur stdDeviation="5"/><feColorMatrix values="0 0 0 0 1 0 0 0 0 0.321569 0 0 0 0 0.54902 0 0 0 0.5 0"/><feBlend in2="effect1_backgroundBlur" result="effect2_dropShadow"/><feBlend in="SourceGraphic" in2="effect2_dropShadow" result="shape"/></filter></defs></svg>