<svg width="112" height="106" fill="none" xmlns="http://www.w3.org/2000/svg"><path d="M90.59 16.116L61.86 8.418C51.438 5.625 43.736 10.1 40.934 20.557l-9.488 35.412c-2.848 10.627 1.622 18.217 12.043 21.01l28.73 7.698c10.59 2.837 18.084-1.548 20.932-12.175l9.488-35.411c2.802-10.456-1.459-18.138-12.049-20.975z" fill="url(#paint0_linear)"/><g opacity=".5" filter="url(#filter0_f)"><path d="M83.084 25.813l-19.575-5.245c-7.1-1.902-12.348 1.147-14.257 8.27l-6.464 24.127c-1.94 7.24 1.105 12.412 8.205 14.314l19.574 5.245c7.215 1.933 12.321-1.054 14.261-8.294l6.465-24.127c1.908-7.123-.995-12.357-8.21-14.29z" fill="#8237FF"/></g><g filter="url(#filter1_b)"><mask id="a" maskUnits="userSpaceOnUse" x="0" y="21.999" width="84" height="84" fill="#000"><path fill="#fff" d="M0 21.999h84v84H0z"/><path d="M59.555 23H24.152C10.31 23 1 32.717 1 47.172v33.36c0 14.415 9.31 24.133 23.152 24.133h35.403c13.842 0 23.112-9.718 23.112-24.132v-33.36c0-14.455-9.27-24.174-23.112-24.174z"/></mask><path d="M59.555 23H24.152C10.31 23 1 32.717 1 47.172v33.36c0 14.415 9.31 24.133 23.152 24.133h35.403c13.842 0 23.112-9.718 23.112-24.132v-33.36c0-14.455-9.27-24.174-23.112-24.174z" fill="#BA90FF" fill-opacity=".35"/><path d="M59.555 24a1 1 0 100-2v2zm0-2a1 1 0 100 2v-2zm0 0H24.152v2h35.403v-2zm-35.403 0c-7.164 0-13.223 2.52-17.489 6.974C2.401 33.424 0 39.728 0 47.173h2c0-7.011 2.254-12.793 6.107-16.816C11.957 26.338 17.474 24 24.153 24v-2zM0 47.172v33.36h2v-33.36H0zm0 33.36c0 7.425 2.401 13.72 6.664 18.164 4.266 4.449 10.324 6.969 17.489 6.969v-2c-6.679 0-12.196-2.339-16.046-6.353C4.254 93.295 2 87.523 2 80.533H0zm24.152 25.133h35.403v-2H24.153v2zm35.403 0c7.164 0 13.213-2.52 17.47-6.97 4.252-4.445 6.642-10.74 6.642-18.162h-2c0 6.99-2.245 12.762-6.088 16.78-3.839 4.013-9.346 6.352-16.024 6.352v2zm24.112-25.132v-33.36h-2v33.36h2zm0-33.361c0-7.443-2.39-13.748-6.642-18.198-4.256-4.455-10.306-6.976-17.47-6.976v2c6.678 0 12.185 2.339 16.024 6.357 3.843 4.023 6.088 9.805 6.088 16.817h2z" fill="url(#paint1_linear)" mask="url(#a)"/></g><g filter="url(#filter2_bd)"><mask id="b" fill="#fff"><path d="M36.986 77.095a3.561 3.561 0 01-2.527-1.045l-9.69-9.69a3.569 3.569 0 010-5.051 3.569 3.569 0 015.051-.004l7.166 7.166 16.856-16.856a3.574 3.574 0 015.051 5.055L39.514 76.05a3.561 3.561 0 01-2.528 1.045z"/></mask><path d="M36.986 77.095a3.561 3.561 0 01-2.527-1.045l-9.69-9.69a3.569 3.569 0 010-5.051 3.569 3.569 0 015.051-.004l7.166 7.166 16.856-16.856a3.574 3.574 0 015.051 5.055L39.514 76.05a3.561 3.561 0 01-2.528 1.045z" fill="url(#paint2_linear)"/><path d="M24.77 61.309l.282.283-.283-.283zm12.216 7.162l-.282.283.282.283.283-.283-.283-.283zm21.908-11.8l-.283-.284.283.283zM39.514 76.05l.283.283-.283-.283zm-2.528.645a3.162 3.162 0 01-2.244-.928l-.566.566a3.96 3.96 0 002.81 1.162v-.8zm-2.244-.928l-9.69-9.69-.566.566 9.69 9.69.566-.566zm-9.69-9.69a3.169 3.169 0 010-4.485l-.565-.566a3.969 3.969 0 000 5.617l.565-.566zm0-4.485a3.169 3.169 0 014.485-.004l.566-.566a3.969 3.969 0 00-5.617.004l.566.566zm4.485-.004l7.166 7.166.566-.566-7.166-7.166-.566.566zm7.732 7.166l16.856-16.856-.566-.566-16.855 16.856.565.566zm16.856-16.856a3.169 3.169 0 014.486 0l.565-.566a3.969 3.969 0 00-5.617 0l.566.566zm4.486 0a3.173 3.173 0 010 4.49l.565.565a3.973 3.973 0 000-5.62l-.565.565zm0 4.49L39.23 75.766l.566.566 19.38-19.38-.566-.566zM39.23 75.766a3.16 3.16 0 01-2.245.928v.8a3.96 3.96 0 002.81-1.162l-.565-.566z" fill="url(#paint3_linear)" mask="url(#b)"/></g><defs><linearGradient id="paint0_linear" x1="76.223" y1="12.266" x2="57.852" y2="80.827" gradientUnits="userSpaceOnUse"><stop stop-color="#BC94FF"/><stop offset="1" stop-color="#9F66FF"/></linearGradient><linearGradient id="paint1_linear" x1="14" y1="32.514" x2="66.095" y2="97.034" gradientUnits="userSpaceOnUse"><stop stop-color="#fff" stop-opacity=".25"/><stop offset="1" stop-color="#fff" stop-opacity="0"/></linearGradient><linearGradient id="paint2_linear" x1="57.373" y1="55.358" x2="17.065" y2="57.152" gradientUnits="userSpaceOnUse"><stop stop-color="#fff"/><stop offset="1" stop-color="#fff" stop-opacity=".2"/></linearGradient><linearGradient id="paint3_linear" x1="29.487" y1="53.658" x2="44.656" y2="79.309" gradientUnits="userSpaceOnUse"><stop stop-color="#fff" stop-opacity=".25"/><stop offset="1" stop-color="#fff" stop-opacity="0"/></linearGradient><filter id="filter0_f" x="22.215" y=".014" width="89.65" height="93.086" filterUnits="userSpaceOnUse" color-interpolation-filters="sRGB"><feFlood flood-opacity="0" result="BackgroundImageFix"/><feBlend in="SourceGraphic" in2="BackgroundImageFix" result="shape"/><feGaussianBlur stdDeviation="10" result="effect1_foregroundBlur"/></filter><filter id="filter1_b" x="-24" y="-2.001" width="131.667" height="131.667" filterUnits="userSpaceOnUse" color-interpolation-filters="sRGB"><feFlood flood-opacity="0" result="BackgroundImageFix"/><feGaussianBlur in="BackgroundImage" stdDeviation="12"/><feComposite in2="SourceAlpha" operator="in" result="effect1_backgroundBlur"/><feBlend in="SourceGraphic" in2="effect1_backgroundBlur" result="shape"/></filter><filter id="filter2_bd" x="8.722" y="35.568" width="66.219" height="56.527" filterUnits="userSpaceOnUse" color-interpolation-filters="sRGB"><feFlood flood-opacity="0" result="BackgroundImageFix"/><feGaussianBlur in="BackgroundImage" stdDeviation="7.5"/><feComposite in2="SourceAlpha" operator="in" result="effect1_backgroundBlur"/><feColorMatrix in="SourceAlpha" values="0 0 0 0 0 0 0 0 0 0 0 0 0 0 0 0 0 0 127 0" result="hardAlpha"/><feOffset dx="5" dy="5"/><feGaussianBlur stdDeviation="5"/><feColorMatrix values="0 0 0 0 0.577356 0 0 0 0 0.359375 0 0 0 0 0.9375 0 0 0 0.5 0"/><feBlend in2="effect1_backgroundBlur" result="effect2_dropShadow"/><feBlend in="SourceGraphic" in2="effect2_dropShadow" result="shape"/></filter></defs></svg>