<svg width="73" height="69" fill="none" xmlns="http://www.w3.org/2000/svg"><g filter="url(#filter0_bd)"><path d="M55.977 12.803l-32.46-6.87a2.56 2.56 0 00-3.025 1.97l-.617 3.962 37.453 7.926.617-3.963a2.56 2.56 0 00-1.968-3.025z" fill="url(#paint0_linear)"/><path d="M57.847 15.807h0v.005l-.601 3.86-37.258-7.885.602-3.867a2.46 2.46 0 012.906-1.889s0 0 0 0l32.46 6.87a2.46 2.46 0 011.891 2.906z" stroke="url(#paint1_linear)" stroke-opacity=".5" stroke-width=".2"/></g><g filter="url(#filter1_bd)"><path d="M42.326 20.631a2.584 2.584 0 00-3.17-1.794l-6.163 1.711-14.527-3.074-1.597 7.548-9.982 2.771a2.583 2.583 0 00-1.794 3.17l5.626 20.272a2.584 2.584 0 003.17 1.793l32.27-8.954a2.584 2.584 0 001.793-3.171l-.966-3.48 3.62.765a2.559 2.559 0 003.024-1.969l2.29-10.82-13.036-2.758-.558-2.01zm3.727 10.303l.798-3.771c.12-.565.68-.93 1.244-.81l3.772.798c.565.12.93.68.81 1.245l-.798 3.771c-.12.565-.68.93-1.244.81l-3.772-.798c-.566-.12-.93-.68-.81-1.245zM7.448 29.816l8.93-2.477 21.07-5.848 2.268-.63a.487.487 0 01.586.331l.266.96.834 3.005-33.185 9.209-1.1-3.964a.483.483 0 01.331-.586zm38.48 11.647a.469.469 0 01-.047.361.464.464 0 01-.284.226l-32.268 8.955a.488.488 0 01-.586-.331L9.462 38.848l33.184-9.21 2.024 7.293 1.258 4.531z" fill="url(#paint2_linear)"/><path d="M46.753 27.142h0a1.154 1.154 0 011.363-.887h0l3.772.799h0c.619.13 1.018.743.887 1.363h0l-.798 3.771h0a1.153 1.153 0 01-1.363.887l-3.772-.798h0a1.153 1.153 0 01-.887-1.364s0 0 0 0m.798-3.771l-.7 3.792-.098-.02m.798-3.772l-.798 3.771m.798-3.771l-.798 3.771m-6.266-10.148h0a.587.587 0 01.708.401h.001l.266.959.834 3.005.027.097-.096.026-33.185 9.21-.096.026-.027-.096-1.1-3.964h0a.583.583 0 01.4-.71h0m32.268-8.954l-32.24 9.05-.027-.095m32.267-8.955l-2.267.63-21.07 5.847m23.337-6.477l-23.337 6.477m-8.93 2.478l8.93-2.478m-8.93 2.478l8.93-2.478m0 0h0m0 0h0m29.673 14.195h0a.568.568 0 01-.057.436m.056-.436l-.143.387m.144-.387l-1.258-4.531-2.024-7.293-.027-.096-.096.027-33.185 9.209-.096.027.026.096L12.646 50.7h0a.587.587 0 00.71.401h0l32.267-8.955m.402-.71l-.428.614m.37-.177l-.086-.049m.087.05v-.001l-.087-.049m.087.05a.563.563 0 01-.345.272m.258-.322a.464.464 0 01-.284.226m.026.096h0l-.026-.096m.026.096l-.026-.096M32.972 20.646l.024.005.024-.006 6.162-1.711a2.484 2.484 0 013.048 1.724l.558 2.01.016.058.06.013L55.8 25.477l-2.269 10.722.098.02-.098-.02a2.459 2.459 0 01-2.906 1.89h0l-3.62-.764-.16-.034.044.158.965 3.48a2.484 2.484 0 01-1.723 3.048l-32.269 8.955.027.096-.027-.096a2.484 2.484 0 01-3.048-1.724L5.19 30.937s0 0 0 0a2.483 2.483 0 011.723-3.048h0l9.983-2.77.058-.017.013-.059 1.577-7.45 14.428 3.053zm18.895 6.505c.565.12.93.68.81 1.245l-.81-1.245z" stroke="url(#paint3_linear)" stroke-opacity=".5" stroke-width=".2"/></g><g filter="url(#filter2_bd)"><path d="M18.543 42.273a1.053 1.053 0 00-1.293-.732l-3.768 1.047a1.053 1.053 0 00-.73 1.292l1.045 3.768c.155.557.736.886 1.293.731l3.768-1.046c.557-.154.886-.736.731-1.292l-1.046-3.768z" fill="url(#paint4_linear)"/><path d="M13.509 42.684h0l3.768-1.046s0 0 0 0a.953.953 0 011.17.661l1.046 3.768s0 0 0 0a.953.953 0 01-.662 1.17h0l-3.768 1.046h0a.953.953 0 01-1.17-.661s0 0 0 0l-1.046-3.768h0a.953.953 0 01.662-1.17z" stroke="url(#paint5_linear)" stroke-opacity=".5" stroke-width=".2"/></g><defs><linearGradient id="paint0_linear" x1="55.297" y1="8.39" x2="13.121" y2="12.159" gradientUnits="userSpaceOnUse"><stop stop-color="#fff"/><stop offset="1" stop-color="#fff" stop-opacity=".2"/></linearGradient><linearGradient id="paint1_linear" x1="23.982" y1="10.545" x2="56.349" y2="11.035" gradientUnits="userSpaceOnUse"><stop stop-color="#fff"/><stop offset="1" stop-color="#fff" stop-opacity="0"/></linearGradient><linearGradient id="paint2_linear" x1="52.31" y1="23.911" x2="-4.348" y2="26.55" gradientUnits="userSpaceOnUse"><stop stop-color="#fff"/><stop offset="1" stop-color="#fff" stop-opacity=".2"/></linearGradient><linearGradient id="paint3_linear" x1="10.485" y1="29.432" x2="53.722" y2="29.773" gradientUnits="userSpaceOnUse"><stop stop-color="#fff"/><stop offset="1" stop-color="#fff" stop-opacity="0"/></linearGradient><linearGradient id="paint4_linear" x1="19.137" y1="42.752" x2="11.435" y2="43.003" gradientUnits="userSpaceOnUse"><stop stop-color="#fff"/><stop offset="1" stop-color="#fff" stop-opacity=".2"/></linearGradient><linearGradient id="paint5_linear" x1="13.458" y1="43.823" x2="19.329" y2="43.855" gradientUnits="userSpaceOnUse"><stop stop-color="#fff"/><stop offset="1" stop-color="#fff" stop-opacity="0"/></linearGradient><filter id="filter0_bd" x="4.875" y="-9.122" width="68.125" height="43.913" filterUnits="userSpaceOnUse" color-interpolation-filters="sRGB"><feFlood flood-opacity="0" result="BackgroundImageFix"/><feGaussianBlur in="BackgroundImage" stdDeviation="7.5"/><feComposite in2="SourceAlpha" operator="in" result="effect1_backgroundBlur"/><feColorMatrix in="SourceAlpha" values="0 0 0 0 0 0 0 0 0 0 0 0 0 0 0 0 0 0 127 0" result="hardAlpha"/><feOffset dx="5" dy="5"/><feGaussianBlur stdDeviation="5"/><feColorMatrix values="0 0 0 0 0.454902 0 0 0 0 0.870588 0 0 0 0 0.376471 0 0 0 0.5 0"/><feBlend in2="effect1_backgroundBlur" result="effect2_dropShadow"/><feBlend in="SourceGraphic" in2="effect2_dropShadow" result="shape"/></filter><filter id="filter1_bd" x="-10" y="2.474" width="80.92" height="65.648" filterUnits="userSpaceOnUse" color-interpolation-filters="sRGB"><feFlood flood-opacity="0" result="BackgroundImageFix"/><feGaussianBlur in="BackgroundImage" stdDeviation="7.5"/><feComposite in2="SourceAlpha" operator="in" result="effect1_backgroundBlur"/><feColorMatrix in="SourceAlpha" values="0 0 0 0 0 0 0 0 0 0 0 0 0 0 0 0 0 0 127 0" result="hardAlpha"/><feOffset dx="5" dy="5"/><feGaussianBlur stdDeviation="5"/><feColorMatrix values="0 0 0 0 0.454902 0 0 0 0 0.870588 0 0 0 0 0.376471 0 0 0 0.5 0"/><feBlend in2="effect1_backgroundBlur" result="effect2_dropShadow"/><feBlend in="SourceGraphic" in2="effect2_dropShadow" result="shape"/></filter><filter id="filter2_bd" x="-2.287" y="26.503" width="36.914" height="36.914" filterUnits="userSpaceOnUse" color-interpolation-filters="sRGB"><feFlood flood-opacity="0" result="BackgroundImageFix"/><feGaussianBlur in="BackgroundImage" stdDeviation="7.5"/><feComposite in2="SourceAlpha" operator="in" result="effect1_backgroundBlur"/><feColorMatrix in="SourceAlpha" values="0 0 0 0 0 0 0 0 0 0 0 0 0 0 0 0 0 0 127 0" result="hardAlpha"/><feOffset dx="5" dy="5"/><feGaussianBlur stdDeviation="5"/><feColorMatrix values="0 0 0 0 0.454902 0 0 0 0 0.870588 0 0 0 0 0.376471 0 0 0 0.5 0"/><feBlend in2="effect1_backgroundBlur" result="effect2_dropShadow"/><feBlend in="SourceGraphic" in2="effect2_dropShadow" result="shape"/></filter></defs></svg>