<svg width="68" height="57" fill="none" xmlns="http://www.w3.org/2000/svg"><g filter="url(#filter0_bd)"><path d="M52.375 14.128v4.418c0 2.985-2.415 5.4-5.4 5.4H28.321a5.397 5.397 0 01-5.4-5.4v-4.418h29.454z" fill="url(#paint0_linear)"/><path d="M52.175 14.328v4.218c0 2.875-2.325 5.2-5.2 5.2H28.321a5.197 5.197 0 01-5.2-5.2v-4.218h29.054z" stroke="url(#paint1_linear)" stroke-width=".4"/></g><g filter="url(#filter1_bd)"><path d="M52.425 11.111v.491H22.971v-.49c0-2.985 2.415-5.4 5.4-5.4h18.654c2.985 0 5.4 2.415 5.4 5.4z" fill="url(#paint2_linear)"/><path d="M52.225 11.111v.291H23.171v-.29c0-2.875 2.325-5.2 5.2-5.2h18.654c2.874 0 5.2 2.325 5.2 5.2z" stroke="url(#paint3_linear)" stroke-width=".4"/></g><g filter="url(#filter2_bd)"><path d="M50.918 38h-1.963V26.1a9.258 9.258 0 01-1.473.118h-2.455V38H13.61V18.364h6.01a9.301 9.301 0 01-.119-1.473v-2.454h-5.89a3.939 3.939 0 00-3.928 3.927V38H7.72a1.97 1.97 0 00-1.964 1.964 1.97 1.97 0 001.964 1.963h43.2a1.97 1.97 0 001.963-1.963A1.97 1.97 0 0050.918 38z" fill="url(#paint4_linear)"/><path d="M48.755 38v.2h2.163c.97 0 1.764.794 1.764 1.764a1.77 1.77 0 01-1.764 1.763h-43.2a1.77 1.77 0 01-1.763-1.763c0-.97.794-1.764 1.764-1.764h2.163V18.364a3.739 3.739 0 013.727-3.727H19.3v2.254c0 .425.029.849.086 1.273H13.41V38.2h31.817V26.418h2.255a9.48 9.48 0 001.273-.086V38z" stroke="url(#paint5_linear)" stroke-width=".4"/></g><defs><linearGradient id="paint0_linear" x1="50.287" y1="15.901" x2="17.754" y2="19.083" gradientUnits="userSpaceOnUse"><stop stop-color="#fff"/><stop offset="1" stop-color="#fff" stop-opacity=".2"/></linearGradient><linearGradient id="paint1_linear" x1="27.61" y1="15.272" x2="30.825" y2="27.22" gradientUnits="userSpaceOnUse"><stop stop-color="#fff" stop-opacity=".25"/><stop offset="1" stop-color="#fff" stop-opacity="0"/></linearGradient><linearGradient id="paint2_linear" x1="50.337" y1="6.775" x2="18.343" y2="11.991" gradientUnits="userSpaceOnUse"><stop stop-color="#fff"/><stop offset="1" stop-color="#fff" stop-opacity=".2"/></linearGradient><linearGradient id="paint3_linear" x1="27.659" y1="6.398" x2="28.869" y2="13.89" gradientUnits="userSpaceOnUse"><stop stop-color="#fff" stop-opacity=".25"/><stop offset="1" stop-color="#fff" stop-opacity="0"/></linearGradient><linearGradient id="paint4_linear" x1="49.541" y1="19.401" x2="-2.847" y2="22.329" gradientUnits="userSpaceOnUse"><stop stop-color="#fff"/><stop offset="1" stop-color="#fff" stop-opacity=".2"/></linearGradient><linearGradient id="paint5_linear" x1="13.257" y1="17.639" x2="27.087" y2="47.003" gradientUnits="userSpaceOnUse"><stop stop-color="#fff" stop-opacity=".25"/><stop offset="1" stop-color="#fff" stop-opacity="0"/></linearGradient><filter id="filter0_bd" x="7.921" y="-.872" width="59.454" height="39.818" filterUnits="userSpaceOnUse" color-interpolation-filters="sRGB"><feFlood flood-opacity="0" result="BackgroundImageFix"/><feGaussianBlur in="BackgroundImage" stdDeviation="7.5"/><feComposite in2="SourceAlpha" operator="in" result="effect1_backgroundBlur"/><feColorMatrix in="SourceAlpha" values="0 0 0 0 0 0 0 0 0 0 0 0 0 0 0 0 0 0 127 0" result="hardAlpha"/><feOffset dx="5" dy="5"/><feGaussianBlur stdDeviation="5"/><feColorMatrix values="0 0 0 0 0.976471 0 0 0 0 0.435294 0 0 0 0 0.352941 0 0 0 0.5 0"/><feBlend in2="effect1_backgroundBlur" result="effect2_dropShadow"/><feBlend in="SourceGraphic" in2="effect2_dropShadow" result="shape"/></filter><filter id="filter1_bd" x="7.971" y="-9.289" width="59.454" height="35.891" filterUnits="userSpaceOnUse" color-interpolation-filters="sRGB"><feFlood flood-opacity="0" result="BackgroundImageFix"/><feGaussianBlur in="BackgroundImage" stdDeviation="7.5"/><feComposite in2="SourceAlpha" operator="in" result="effect1_backgroundBlur"/><feColorMatrix in="SourceAlpha" values="0 0 0 0 0 0 0 0 0 0 0 0 0 0 0 0 0 0 127 0" result="hardAlpha"/><feOffset dx="5" dy="5"/><feGaussianBlur stdDeviation="5"/><feColorMatrix values="0 0 0 0 0.976471 0 0 0 0 0.435294 0 0 0 0 0.352941 0 0 0 0.5 0"/><feBlend in2="effect1_backgroundBlur" result="effect2_dropShadow"/><feBlend in="SourceGraphic" in2="effect2_dropShadow" result="shape"/></filter><filter id="filter2_bd" x="-9.245" y="-.563" width="77.127" height="57.491" filterUnits="userSpaceOnUse" color-interpolation-filters="sRGB"><feFlood flood-opacity="0" result="BackgroundImageFix"/><feGaussianBlur in="BackgroundImage" stdDeviation="7.5"/><feComposite in2="SourceAlpha" operator="in" result="effect1_backgroundBlur"/><feColorMatrix in="SourceAlpha" values="0 0 0 0 0 0 0 0 0 0 0 0 0 0 0 0 0 0 127 0" result="hardAlpha"/><feOffset dx="5" dy="5"/><feGaussianBlur stdDeviation="5"/><feColorMatrix values="0 0 0 0 0.976471 0 0 0 0 0.435294 0 0 0 0 0.352941 0 0 0 0.5 0"/><feBlend in2="effect1_backgroundBlur" result="effect2_dropShadow"/><feBlend in="SourceGraphic" in2="effect2_dropShadow" result="shape"/></filter></defs></svg>