<svg width="54" height="70" fill="none" xmlns="http://www.w3.org/2000/svg"><g filter="url(#filter0_bd)"><path d="M31.367 9.883c0-1.077.876-1.953 1.953-1.953V5H15.742a4.888 4.888 0 00-4.883 4.883v12.89h20.508V9.883z" fill="url(#paint0_linear)"/><path d="M31.167 9.883v12.69H11.06V9.883c0-2.583 2.1-4.683 4.682-4.683H33.12v2.539a2.156 2.156 0 00-1.953 2.144z" stroke="url(#paint1_linear)" stroke-width=".4"/></g><g filter="url(#filter1_bd)"><path d="M36.25 5.98v4.88a1.953 1.953 0 00-1.953 1.953v1.269h3.906v-4.2A4.878 4.878 0 0036.25 5.98z" fill="url(#paint2_linear)"/><path d="M36.25 11.06h.2V6.402a4.671 4.671 0 011.553 3.48v3.999h-3.506v-1.07c0-.968.785-1.753 1.753-1.753z" stroke="url(#paint3_linear)" stroke-width=".4"/></g><g filter="url(#filter2_bd)"><path d="M34.297 17.264v8.44H7.93v-8.44A4.402 4.402 0 005 21.405v29.2A4.4 4.4 0 009.395 55h23.437a4.4 4.4 0 004.395-4.395V21.406a4.402 4.402 0 00-2.93-4.142zM15.547 49.14h-4.688v-2.93h4.688v2.93zm0-5.86h-4.688v-2.93h4.688v2.93zm0-5.86h-4.688v-2.929h4.688v2.93zm7.91 11.72h-4.688v-2.93h4.688v2.93zm0-5.86h-4.688v-2.93h4.688v2.93zm0-5.86h-4.688v-2.929h4.688v2.93zm7.91 11.72H26.68v-2.93h4.687v2.93zm0-5.86H26.68v-2.93h4.687v2.93zm0-5.86H26.68v-2.929h4.687v2.93zm0-5.858H10.86v-2.93h20.508v2.93z" fill="url(#paint4_linear)"/><path d="M34.297 25.903h.2v-8.346a4.2 4.2 0 012.53 3.85v29.198a4.2 4.2 0 01-4.195 4.195H9.395A4.2 4.2 0 015.2 50.606v-29.2a4.2 4.2 0 012.53-3.849v8.346h26.567zm-18.75 23.438h.2V46.01h-5.088v3.33h4.888zm0-5.86h.2v-3.33h-5.088v3.331h4.888zm0-5.86h.2v-3.329h-5.088v3.33h4.888zm7.91 11.72h.2V46.01h-5.088v3.33h4.888zm0-5.86h.2v-3.33h-5.088v3.331h4.888zm0-5.86h.2v-3.329h-5.088v3.33h4.888zm7.91 11.72h.2V46.01H26.48v3.33h4.887zm0-5.86h.2v-3.33H26.48v3.331h4.887zm0-5.86h.2v-3.329H26.48v3.33h4.887zm0-5.859h.2v-3.33H10.66v3.331h20.708z" stroke="url(#paint5_linear)" stroke-width=".4"/></g><defs><linearGradient id="paint0_linear" x1="31.728" y1="8.21" x2="6.724" y2="9.24" gradientUnits="userSpaceOnUse"><stop stop-color="#fff"/><stop offset="1" stop-color="#fff" stop-opacity=".2"/></linearGradient><linearGradient id="paint1_linear" x1="14.435" y1="7.071" x2="24.959" y2="23.543" gradientUnits="userSpaceOnUse"><stop stop-color="#fff" stop-opacity=".25"/><stop offset="1" stop-color="#fff" stop-opacity="0"/></linearGradient><linearGradient id="paint2_linear" x1="37.926" y1="7.442" x2="33.571" y2="7.511" gradientUnits="userSpaceOnUse"><stop stop-color="#fff"/><stop offset="1" stop-color="#fff" stop-opacity=".2"/></linearGradient><linearGradient id="paint3_linear" x1="34.919" y1="6.923" x2="39.573" y2="9.702" gradientUnits="userSpaceOnUse"><stop stop-color="#fff" stop-opacity=".25"/><stop offset="1" stop-color="#fff" stop-opacity="0"/></linearGradient><linearGradient id="paint4_linear" x1="34.942" y1="24.078" x2="-.966" y2="25.078" gradientUnits="userSpaceOnUse"><stop stop-color="#fff"/><stop offset="1" stop-color="#fff" stop-opacity=".2"/></linearGradient><linearGradient id="paint5_linear" x1="10.13" y1="21.66" x2="34.716" y2="47.664" gradientUnits="userSpaceOnUse"><stop stop-color="#fff" stop-opacity=".25"/><stop offset="1" stop-color="#fff" stop-opacity="0"/></linearGradient><filter id="filter0_bd" x="-4.141" y="-10" width="52.461" height="47.773" filterUnits="userSpaceOnUse" color-interpolation-filters="sRGB"><feFlood flood-opacity="0" result="BackgroundImageFix"/><feGaussianBlur in="BackgroundImage" stdDeviation="7.5"/><feComposite in2="SourceAlpha" operator="in" result="effect1_backgroundBlur"/><feColorMatrix in="SourceAlpha" values="0 0 0 0 0 0 0 0 0 0 0 0 0 0 0 0 0 0 127 0" result="hardAlpha"/><feOffset dx="5" dy="5"/><feGaussianBlur stdDeviation="5"/><feColorMatrix values="0 0 0 0 1 0 0 0 0 0.321569 0 0 0 0 0.54902 0 0 0 0.5 0"/><feBlend in2="effect1_backgroundBlur" result="effect2_dropShadow"/><feBlend in="SourceGraphic" in2="effect2_dropShadow" result="shape"/></filter><filter id="filter1_bd" x="19.297" y="-9.021" width="33.906" height="38.103" filterUnits="userSpaceOnUse" color-interpolation-filters="sRGB"><feFlood flood-opacity="0" result="BackgroundImageFix"/><feGaussianBlur in="BackgroundImage" stdDeviation="7.5"/><feComposite in2="SourceAlpha" operator="in" result="effect1_backgroundBlur"/><feColorMatrix in="SourceAlpha" values="0 0 0 0 0 0 0 0 0 0 0 0 0 0 0 0 0 0 127 0" result="hardAlpha"/><feOffset dx="5" dy="5"/><feGaussianBlur stdDeviation="5"/><feColorMatrix values="0 0 0 0 1 0 0 0 0 0.321569 0 0 0 0 0.54902 0 0 0 0.5 0"/><feBlend in2="effect1_backgroundBlur" result="effect2_dropShadow"/><feBlend in="SourceGraphic" in2="effect2_dropShadow" result="shape"/></filter><filter id="filter2_bd" x="-10" y="2.263" width="62.227" height="67.737" filterUnits="userSpaceOnUse" color-interpolation-filters="sRGB"><feFlood flood-opacity="0" result="BackgroundImageFix"/><feGaussianBlur in="BackgroundImage" stdDeviation="7.5"/><feComposite in2="SourceAlpha" operator="in" result="effect1_backgroundBlur"/><feColorMatrix in="SourceAlpha" values="0 0 0 0 0 0 0 0 0 0 0 0 0 0 0 0 0 0 127 0" result="hardAlpha"/><feOffset dx="5" dy="5"/><feGaussianBlur stdDeviation="5"/><feColorMatrix values="0 0 0 0 1 0 0 0 0 0.321569 0 0 0 0 0.54902 0 0 0 0.5 0"/><feBlend in2="effect1_backgroundBlur" result="effect2_dropShadow"/><feBlend in="SourceGraphic" in2="effect2_dropShadow" result="shape"/></filter></defs></svg>