<svg width="56" height="70" fill="none" xmlns="http://www.w3.org/2000/svg"><g filter="url(#filter0_bd)"><path fill-rule="evenodd" clip-rule="evenodd" d="M10.357 18.393a1.786 1.786 0 113.573 0 1.786 1.786 0 01-3.573 0z" fill="url(#paint0_linear)"/><path d="M10.557 18.393a1.586 1.586 0 113.173 0 1.586 1.586 0 01-3.173 0z" stroke="url(#paint1_linear)" stroke-width=".4"/></g><g filter="url(#filter1_bd)"><path d="M22.857 46.964a6.25 6.25 0 10-6.25-6.25 6.258 6.258 0 006.25 6.25zm-3.31-5.095a.893.893 0 011.263 0l.202.202 3.84-4.608a.894.894 0 111.372 1.145l-4.464 5.357a.9.9 0 01-.646.32h-.042a.886.886 0 01-.631-.262l-.893-.893a.893.893 0 010-1.261z" fill="url(#paint2_linear)"/><path d="M19.406 41.727h0a1.093 1.093 0 011.546 0h0l.046.047 3.7-4.439h0c.25-.3.641-.444 1.026-.377h0a1.094 1.094 0 01.654 1.778s0 0 0 0l-4.464 5.357h0a1.1 1.1 0 01-.791.392h-.01v0h-.041 0v-.2a.886.886 0 01-.631-.262l-1.035-2.296zm0 0a1.093 1.093 0 000 1.545h0l.893.892s0 0 0 0l-.893-2.437zm9.501-1.013a6.05 6.05 0 01-6.05 6.05 6.058 6.058 0 01-6.05-6.05 6.05 6.05 0 0112.1 0z" stroke="url(#paint3_linear)" stroke-width=".4"/></g><g filter="url(#filter2_bd)"><path fill-rule="evenodd" clip-rule="evenodd" d="M30.893 40.714A8.036 8.036 0 1116.18 36.25H8.571v12.5c0 .986.8 1.786 1.786 1.786h25c.986 0 1.786-.8 1.786-1.786v-12.5h-7.61a7.988 7.988 0 011.36 4.464z" fill="url(#paint4_linear)"/><path d="M31.093 40.714a8.236 8.236 0 11-15.277-4.264H8.77v12.3c0 .876.71 1.586 1.586 1.586h25c.876 0 1.586-.71 1.586-1.586v-12.3h-7.044a8.188 8.188 0 011.194 4.264zm0 0s0 0 0 0h-.2.2s0 0 0 0zm-1.56-4.464c.045.066.088.133.13.2l.11-.2h-.24z" stroke="url(#paint5_linear)" stroke-width=".4"/></g><g filter="url(#filter3_bd)"><path fill-rule="evenodd" clip-rule="evenodd" d="M18.438 6.786h8.839c.493 0 .964-.205 1.302-.565L29.724 5H15.99l1.145 1.221c.338.36.81.564 1.302.565z" fill="url(#paint6_linear)"/><path d="M16.452 5.2h12.81L18.437 6.786v-.2s0 0 0 0c-.438 0-.856-.182-1.156-.501 0 0 0 0 0 0l-.83-.885z" stroke="url(#paint7_linear)" stroke-width=".4"/></g><g filter="url(#filter4_bd)"><path fill-rule="evenodd" clip-rule="evenodd" d="M10.357 52.321a3.535 3.535 0 01-1.786-.496v1.39c0 .985.8 1.785 1.786 1.785h25c.986 0 1.786-.8 1.786-1.786v-1.389a3.536 3.536 0 01-1.786.496h-25z" fill="url(#paint8_linear)"/><path d="M10.356 52.521v0h25.002a3.735 3.735 0 001.585-.363v1.056c0 .876-.71 1.586-1.586 1.586h-25c-.876 0-1.586-.71-1.586-1.586v-1.056c.494.236 1.035.36 1.585.363z" stroke="url(#paint9_linear)" stroke-width=".4"/></g><g filter="url(#filter5_bd)"><path fill-rule="evenodd" clip-rule="evenodd" d="M37.143 6.786c0-.986-.8-1.786-1.786-1.786h-3.185l-2.29 2.442a3.577 3.577 0 01-2.605 1.13h-8.84a3.58 3.58 0 01-2.605-1.13L13.542 5h-3.185c-.986 0-1.786.8-1.786 1.786v3.571h28.572V6.786z" fill="url(#paint10_linear)"/><path d="M36.943 6.786v3.371H8.77V6.786c0-.876.71-1.586 1.586-1.586h3.098l2.231 2.379h0a3.78 3.78 0 002.751 1.192h8.84a3.777 3.777 0 002.75-1.192h0L32.26 5.2h3.098c.876 0 1.586.71 1.586 1.586z" stroke="url(#paint11_linear)" stroke-width=".4"/></g><g filter="url(#filter6_bd)"><path d="M38.929 12.143H6.786c-.986 0-1.786.8-1.786 1.785v18.75c0 .987.8 1.786 1.786 1.786h11.03a8.007 8.007 0 0110.081 0H38.93c.986 0 1.785-.8 1.785-1.785v-18.75c0-.987-.8-1.786-1.785-1.786zm-22.322 12.5h3.572a.893.893 0 110 1.786h-3.572a.893.893 0 010-1.786zm-8.036-8.036c0-.986.8-1.785 1.786-1.785h3.572c.986 0 1.785.799 1.785 1.785v3.572c0 .986-.8 1.785-1.785 1.785h-3.572c-.986 0-1.786-.8-1.786-1.785v-3.572zm.893 8.036h3.572a.893.893 0 110 1.786H9.464a.893.893 0 010-1.786zm16.072 6.25H9.464a.893.893 0 110-1.786h16.072a.893.893 0 010 1.786zm1.785-4.464h-3.57a.893.893 0 010-1.786h3.57a.893.893 0 110 1.786zm.893-9.822h-2.678a.893.893 0 010-1.785h2.678a.893.893 0 110 1.785zm6.25 9.822h-3.571a.893.893 0 010-1.786h3.571a.893.893 0 110 1.786zm2.679-9.822h-5.357a.893.893 0 010-1.785h5.357a.893.893 0 110 1.785z" fill="url(#paint12_linear)"/><path d="M6.786 12.343h32.143c.875 0 1.585.71 1.585 1.585v18.75c0 .876-.71 1.586-1.585 1.586H27.968a8.206 8.206 0 00-10.221 0H6.786c-.876 0-1.586-.71-1.586-1.586v-18.75c0-.875.71-1.585 1.586-1.585zm13.393 12.1h-3.572a1.093 1.093 0 100 2.186h3.572a1.093 1.093 0 000-2.186zm-9.822-9.822a1.986 1.986 0 00-1.986 1.986v3.572c0 1.096.89 1.985 1.986 1.985h3.572a1.985 1.985 0 001.985-1.985v-3.572a1.986 1.986 0 00-1.985-1.986h-3.572zm2.679 9.822H9.464a1.093 1.093 0 100 2.186h3.572a1.093 1.093 0 000-2.186zm-3.572 6.65h16.072a1.093 1.093 0 100-2.186H9.464a1.093 1.093 0 000 2.186zm14.286-4.464h3.572a1.093 1.093 0 000-2.186H23.75a1.093 1.093 0 100 2.186zm1.786-9.822h2.678a1.093 1.093 0 100-2.185h-2.678a1.093 1.093 0 100 2.185zm5.357 9.822h3.571a1.093 1.093 0 100-2.186h-3.571a1.093 1.093 0 100 2.186zm.893-9.822h5.357a1.093 1.093 0 000-2.185h-5.357a1.093 1.093 0 000 2.185z" stroke="url(#paint13_linear)" stroke-width=".4"/></g><defs><linearGradient id="paint0_linear" x1="13.677" y1="17.252" x2="9.697" y2="17.382" gradientUnits="userSpaceOnUse"><stop stop-color="#fff"/><stop offset="1" stop-color="#fff" stop-opacity=".2"/></linearGradient><linearGradient id="paint1_linear" x1="10.926" y1="17.023" x2="13.204" y2="19.845" gradientUnits="userSpaceOnUse"><stop stop-color="#fff" stop-opacity=".25"/><stop offset="1" stop-color="#fff" stop-opacity="0"/></linearGradient><linearGradient id="paint2_linear" x1="28.221" y1="36.721" x2="14.297" y2="37.175" gradientUnits="userSpaceOnUse"><stop stop-color="#fff"/><stop offset="1" stop-color="#fff" stop-opacity=".2"/></linearGradient><linearGradient id="paint3_linear" x1="18.597" y1="35.921" x2="26.571" y2="45.796" gradientUnits="userSpaceOnUse"><stop stop-color="#fff" stop-opacity=".25"/><stop offset="1" stop-color="#fff" stop-opacity="0"/></linearGradient><linearGradient id="paint4_linear" x1="35.117" y1="38.83" x2="3.392" y2="40.898" gradientUnits="userSpaceOnUse"><stop stop-color="#fff"/><stop offset="1" stop-color="#fff" stop-opacity=".2"/></linearGradient><linearGradient id="paint5_linear" x1="13.119" y1="37.914" x2="19.591" y2="53.946" gradientUnits="userSpaceOnUse"><stop stop-color="#fff" stop-opacity=".25"/><stop offset="1" stop-color="#fff" stop-opacity="0"/></linearGradient><linearGradient id="paint6_linear" x1="28.75" y1="5.322" x2="14.342" y2="8.936" gradientUnits="userSpaceOnUse"><stop stop-color="#fff"/><stop offset="1" stop-color="#fff" stop-opacity=".2"/></linearGradient><linearGradient id="paint7_linear" x1="18.176" y1="5.208" x2="18.418" y2="7.513" gradientUnits="userSpaceOnUse"><stop stop-color="#fff" stop-opacity=".25"/><stop offset="1" stop-color="#fff" stop-opacity="0"/></linearGradient><linearGradient id="paint8_linear" x1="35.117" y1="52.398" x2="5.783" y2="61.005" gradientUnits="userSpaceOnUse"><stop stop-color="#fff"/><stop offset="1" stop-color="#fff" stop-opacity=".2"/></linearGradient><linearGradient id="paint9_linear" x1="13.119" y1="52.195" x2="13.488" y2="56.306" gradientUnits="userSpaceOnUse"><stop stop-color="#fff" stop-opacity=".25"/><stop offset="1" stop-color="#fff" stop-opacity="0"/></linearGradient><linearGradient id="paint10_linear" x1="35.117" y1="5.967" x2="4.192" y2="11.345" gradientUnits="userSpaceOnUse"><stop stop-color="#fff"/><stop offset="1" stop-color="#fff" stop-opacity=".2"/></linearGradient><linearGradient id="paint11_linear" x1="13.119" y1="5.624" x2="14.154" y2="12.459" gradientUnits="userSpaceOnUse"><stop stop-color="#fff" stop-opacity=".25"/><stop offset="1" stop-color="#fff" stop-opacity="0"/></linearGradient><linearGradient id="paint12_linear" x1="38.182" y1="16.174" x2="-1.534" y2="18.245" gradientUnits="userSpaceOnUse"><stop stop-color="#fff"/><stop offset="1" stop-color="#fff" stop-opacity=".2"/></linearGradient><linearGradient id="paint13_linear" x1="10.685" y1="14.743" x2="22.402" y2="37.962" gradientUnits="userSpaceOnUse"><stop stop-color="#fff" stop-opacity=".25"/><stop offset="1" stop-color="#fff" stop-opacity="0"/></linearGradient><filter id="filter0_bd" x="-4.643" y="1.607" width="33.572" height="33.571" filterUnits="userSpaceOnUse" color-interpolation-filters="sRGB"><feFlood flood-opacity="0" result="BackgroundImageFix"/><feGaussianBlur in="BackgroundImage" stdDeviation="7.5"/><feComposite in2="SourceAlpha" operator="in" result="effect1_backgroundBlur"/><feColorMatrix in="SourceAlpha" values="0 0 0 0 0 0 0 0 0 0 0 0 0 0 0 0 0 0 127 0" result="hardAlpha"/><feOffset dx="5" dy="5"/><feGaussianBlur stdDeviation="5"/><feColorMatrix values="0 0 0 0 0.976471 0 0 0 0 0.435294 0 0 0 0 0.352941 0 0 0 0.5 0"/><feBlend in2="effect1_backgroundBlur" result="effect2_dropShadow"/><feBlend in="SourceGraphic" in2="effect2_dropShadow" result="shape"/></filter><filter id="filter1_bd" x="1.607" y="19.464" width="42.5" height="42.5" filterUnits="userSpaceOnUse" color-interpolation-filters="sRGB"><feFlood flood-opacity="0" result="BackgroundImageFix"/><feGaussianBlur in="BackgroundImage" stdDeviation="7.5"/><feComposite in2="SourceAlpha" operator="in" result="effect1_backgroundBlur"/><feColorMatrix in="SourceAlpha" values="0 0 0 0 0 0 0 0 0 0 0 0 0 0 0 0 0 0 127 0" result="hardAlpha"/><feOffset dx="5" dy="5"/><feGaussianBlur stdDeviation="5"/><feColorMatrix values="0 0 0 0 0.976471 0 0 0 0 0.435294 0 0 0 0 0.352941 0 0 0 0.5 0"/><feBlend in2="effect1_backgroundBlur" result="effect2_dropShadow"/><feBlend in="SourceGraphic" in2="effect2_dropShadow" result="shape"/></filter><filter id="filter2_bd" x="-6.429" y="21.25" width="58.571" height="44.286" filterUnits="userSpaceOnUse" color-interpolation-filters="sRGB"><feFlood flood-opacity="0" result="BackgroundImageFix"/><feGaussianBlur in="BackgroundImage" stdDeviation="7.5"/><feComposite in2="SourceAlpha" operator="in" result="effect1_backgroundBlur"/><feColorMatrix in="SourceAlpha" values="0 0 0 0 0 0 0 0 0 0 0 0 0 0 0 0 0 0 127 0" result="hardAlpha"/><feOffset dx="5" dy="5"/><feGaussianBlur stdDeviation="5"/><feColorMatrix values="0 0 0 0 0.976471 0 0 0 0 0.435294 0 0 0 0 0.352941 0 0 0 0.5 0"/><feBlend in2="effect1_backgroundBlur" result="effect2_dropShadow"/><feBlend in="SourceGraphic" in2="effect2_dropShadow" result="shape"/></filter><filter id="filter3_bd" x=".99" y="-10" width="43.734" height="31.786" filterUnits="userSpaceOnUse" color-interpolation-filters="sRGB"><feFlood flood-opacity="0" result="BackgroundImageFix"/><feGaussianBlur in="BackgroundImage" stdDeviation="7.5"/><feComposite in2="SourceAlpha" operator="in" result="effect1_backgroundBlur"/><feColorMatrix in="SourceAlpha" values="0 0 0 0 0 0 0 0 0 0 0 0 0 0 0 0 0 0 127 0" result="hardAlpha"/><feOffset dx="5" dy="5"/><feGaussianBlur stdDeviation="5"/><feColorMatrix values="0 0 0 0 0.976471 0 0 0 0 0.435294 0 0 0 0 0.352941 0 0 0 0.5 0"/><feBlend in2="effect1_backgroundBlur" result="effect2_dropShadow"/><feBlend in="SourceGraphic" in2="effect2_dropShadow" result="shape"/></filter><filter id="filter4_bd" x="-6.429" y="36.825" width="58.571" height="33.175" filterUnits="userSpaceOnUse" color-interpolation-filters="sRGB"><feFlood flood-opacity="0" result="BackgroundImageFix"/><feGaussianBlur in="BackgroundImage" stdDeviation="7.5"/><feComposite in2="SourceAlpha" operator="in" result="effect1_backgroundBlur"/><feColorMatrix in="SourceAlpha" values="0 0 0 0 0 0 0 0 0 0 0 0 0 0 0 0 0 0 127 0" result="hardAlpha"/><feOffset dx="5" dy="5"/><feGaussianBlur stdDeviation="5"/><feColorMatrix values="0 0 0 0 0.976471 0 0 0 0 0.435294 0 0 0 0 0.352941 0 0 0 0.5 0"/><feBlend in2="effect1_backgroundBlur" result="effect2_dropShadow"/><feBlend in="SourceGraphic" in2="effect2_dropShadow" result="shape"/></filter><filter id="filter5_bd" x="-6.429" y="-10" width="58.572" height="35.357" filterUnits="userSpaceOnUse" color-interpolation-filters="sRGB"><feFlood flood-opacity="0" result="BackgroundImageFix"/><feGaussianBlur in="BackgroundImage" stdDeviation="7.5"/><feComposite in2="SourceAlpha" operator="in" result="effect1_backgroundBlur"/><feColorMatrix in="SourceAlpha" values="0 0 0 0 0 0 0 0 0 0 0 0 0 0 0 0 0 0 127 0" result="hardAlpha"/><feOffset dx="5" dy="5"/><feGaussianBlur stdDeviation="5"/><feColorMatrix values="0 0 0 0 0.976471 0 0 0 0 0.435294 0 0 0 0 0.352941 0 0 0 0.5 0"/><feBlend in2="effect1_backgroundBlur" result="effect2_dropShadow"/><feBlend in="SourceGraphic" in2="effect2_dropShadow" result="shape"/></filter><filter id="filter6_bd" x="-10" y="-2.857" width="65.714" height="52.321" filterUnits="userSpaceOnUse" color-interpolation-filters="sRGB"><feFlood flood-opacity="0" result="BackgroundImageFix"/><feGaussianBlur in="BackgroundImage" stdDeviation="7.5"/><feComposite in2="SourceAlpha" operator="in" result="effect1_backgroundBlur"/><feColorMatrix in="SourceAlpha" values="0 0 0 0 0 0 0 0 0 0 0 0 0 0 0 0 0 0 127 0" result="hardAlpha"/><feOffset dx="5" dy="5"/><feGaussianBlur stdDeviation="5"/><feColorMatrix values="0 0 0 0 0.976471 0 0 0 0 0.435294 0 0 0 0 0.352941 0 0 0 0.5 0"/><feBlend in2="effect1_backgroundBlur" result="effect2_dropShadow"/><feBlend in="SourceGraphic" in2="effect2_dropShadow" result="shape"/></filter></defs></svg>