<svg width="66" height="70" fill="none" xmlns="http://www.w3.org/2000/svg"><g filter="url(#filter0_bd)"><path d="M32.363 46.68l-2.36-2.367v-13.25l11.27-6.688 7.267 1.945a1.954 1.954 0 001.01-3.773l-3.58-.959 2.907-1.725a1.953 1.953 0 00-1.993-3.359l-2.759 1.637.857-3.384a1.953 1.953 0 00-3.787-.96l-1.81 7.157-9.382 5.567V15.696l5.375-5.302a1.953 1.953 0 10-2.743-2.78l-2.633 2.596V6.953a1.953 1.953 0 10-3.906 0v3.257l-2.632-2.596a1.953 1.953 0 00-2.744 2.78l5.376 5.303v10.832l-9.381-5.541-1.913-7.304a1.953 1.953 0 00-3.779.99l.915 3.492-2.817-1.664a1.953 1.953 0 10-1.987 3.363l2.86 1.69-3.516.887a1.953 1.953 0 00.956 3.788l7.339-1.853 9.442 5.578-9.507 5.641-7.253-1.918a1.953 1.953 0 10-.999 3.777l3.542.936-2.777 1.648a1.953 1.953 0 101.994 3.36l2.722-1.616-.912 3.439a1.953 1.953 0 103.775 1.002l1.932-7.286 9.364-5.557v10.923l-5.375 5.302a1.953 1.953 0 102.743 2.78l2.632-2.596v3.257a1.953 1.953 0 103.907 0v-3.203l2.523 2.53c.381.384.882.575 1.383.575a1.953 1.953 0 001.383-3.332l-2.929-2.938z" fill="url(#paint0_linear)"/><path d="M25.896 26.41l-9.181-5.422-1.913-7.304a1.953 1.953 0 00-2.385-1.394l13.48 14.12zm0 0v.119h.2l.102-.172-.102-.06v-10.6l-5.376-5.303a1.953 1.953 0 01-.018-2.762l5.194 18.779zm3.906 17.903v.082l.059.059 2.36 2.366h0l2.93 2.938a1.753 1.753 0 01-.005 2.48h0a1.751 1.751 0 01-2.479-.004l-2.523-2.531-.341-.343v3.687a1.753 1.753 0 01-3.507 0v-3.735l-.34.336-2.633 2.596.14.143-.14-.143a1.747 1.747 0 01-1.23.505c-.454 0-.906-.174-1.249-.522l-.142.14.142-.14c-.68-.69-.672-1.8.017-2.479l5.376-5.302.06-.058V33.03l-.303.18-9.364 5.556-.07.041-.021.08-1.932 7.285s0 0 0 0a1.754 1.754 0 01-3.389-.899l.912-3.439.126-.473-.421.25-2.722 1.615a1.752 1.752 0 11-1.79-3.015l2.777-1.648.41-.243-.46-.122-3.543-.937a1.753 1.753 0 01-1.246-2.143h0a1.753 1.753 0 012.143-1.247l.05-.193-.05.194 7.253 1.918.081.021.072-.043 9.508-5.641.29-.172-.29-.172-9.443-5.578-.071-.042-.08.02-7.34 1.853a1.754 1.754 0 01-2.129-1.27l-.193.048.194-.05a1.753 1.753 0 011.27-2.128l3.517-.887.471-.12-.418-.247-2.86-1.69-.102.173.102-.172a1.753 1.753 0 111.783-3.019l.102-.172-.102.172 2.818 1.664.418.247-.123-.47-.915-3.49a1.753 1.753 0 011.251-2.141h0a1.753 1.753 0 012.14 1.251s0 0 0 0l1.913 7.303.021.08.071.042 9.381 5.541.302.178V15.613l-.06-.059-5.375-5.302s0 0 0 0a1.753 1.753 0 012.463-2.496l2.632 2.597.34.336V6.953a1.753 1.753 0 113.506 0v3.735l.34-.336 2.633-2.596h0c.69-.68 1.8-.673 2.48.017h0c.68.69.672 1.8-.018 2.479l-5.375 5.302-.06.058v11.26l.303-.179 9.382-5.567.071-.043.02-.08 1.811-7.156s0 0 0 0a1.753 1.753 0 012.13-1.27l.049-.193-.05.194a1.753 1.753 0 011.27 2.13l-.856 3.384-.119.467.414-.246 2.759-1.637a1.753 1.753 0 012.402.613l.172-.102-.172.102c.494.833.22 1.908-.613 2.402l-2.907 1.726-.409.242.46.123 3.58.958a1.753 1.753 0 11-.907 3.387l-7.267-1.945-.08-.022-.073.043L29.9 30.891l-.098.058v13.364zm-3.906-34.3l-2.432-2.4 6.738 2.4v.197h-.2l-.14-.143.14-.138V6.953a1.953 1.953 0 10-3.906 0V9.93l.14.14-.14.141h-.2v-.197z" stroke="url(#paint1_linear)" stroke-width=".4"/></g><g filter="url(#filter1_bd)"><path d="M48.54 33.68l-7.114 1.904-4.962-2.93a1.953 1.953 0 10-1.986 3.363l4.875 2.88 1.944 7.419a1.954 1.954 0 003.778-.991l-.945-3.607 2.848 1.682a1.952 1.952 0 101.987-3.363l-2.828-1.67 3.413-.914a1.953 1.953 0 00-1.01-3.773z" fill="url(#paint2_linear)"/><path d="M48.592 33.873h0a1.753 1.753 0 012.147 1.24h0a1.753 1.753 0 01-1.24 2.147l.047.177-.048-.177-3.413.914-.46.123.41.242 2.828 1.67a1.753 1.753 0 01.617 2.401h0a1.752 1.752 0 01-2.4.618h0l-2.849-1.682-.418-.247.123.47.946 3.607.193-.051-.193.05a1.753 1.753 0 01-1.252 2.141h0a1.754 1.754 0 01-2.14-1.251l-1.943-7.419-.021-.08-.071-.042-4.876-2.88a1.753 1.753 0 111.784-3.018s0 0 0 0l4.961 2.93.072.043.081-.022 7.115-1.904z" stroke="url(#paint3_linear)" stroke-width=".4"/></g><defs><linearGradient id="paint0_linear" x1="47.738" y1="14.029" x2="-3.507" y2="15.566" gradientUnits="userSpaceOnUse"><stop stop-color="#fff"/><stop offset="1" stop-color="#fff" stop-opacity=".2"/></linearGradient><linearGradient id="paint1_linear" x1="12.324" y1="10.825" x2="44.675" y2="47.685" gradientUnits="userSpaceOnUse"><stop stop-color="#fff" stop-opacity=".25"/><stop offset="1" stop-color="#fff" stop-opacity="0"/></linearGradient><linearGradient id="paint2_linear" x1="49.759" y1="35.161" x2="30.293" y2="35.882" gradientUnits="userSpaceOnUse"><stop stop-color="#fff"/><stop offset="1" stop-color="#fff" stop-opacity=".2"/></linearGradient><linearGradient id="paint3_linear" x1="36.3" y1="34.175" x2="45.787" y2="47.519" gradientUnits="userSpaceOnUse"><stop stop-color="#fff" stop-opacity=".25"/><stop offset="1" stop-color="#fff" stop-opacity="0"/></linearGradient><filter id="filter0_bd" x="-9.998" y="-10" width="75.997" height="80" filterUnits="userSpaceOnUse" color-interpolation-filters="sRGB"><feFlood flood-opacity="0" result="BackgroundImageFix"/><feGaussianBlur in="BackgroundImage" stdDeviation="7.5"/><feComposite in2="SourceAlpha" operator="in" result="effect1_backgroundBlur"/><feColorMatrix in="SourceAlpha" values="0 0 0 0 0 0 0 0 0 0 0 0 0 0 0 0 0 0 127 0" result="hardAlpha"/><feOffset dx="5" dy="5"/><feGaussianBlur stdDeviation="5"/><feColorMatrix values="0 0 0 0 0.577356 0 0 0 0 0.359375 0 0 0 0 0.9375 0 0 0 0.5 0"/><feBlend in2="effect1_backgroundBlur" result="effect2_dropShadow"/><feBlend in="SourceGraphic" in2="effect2_dropShadow" result="shape"/></filter><filter id="filter1_bd" x="18.518" y="17.382" width="47.481" height="45.392" filterUnits="userSpaceOnUse" color-interpolation-filters="sRGB"><feFlood flood-opacity="0" result="BackgroundImageFix"/><feGaussianBlur in="BackgroundImage" stdDeviation="7.5"/><feComposite in2="SourceAlpha" operator="in" result="effect1_backgroundBlur"/><feColorMatrix in="SourceAlpha" values="0 0 0 0 0 0 0 0 0 0 0 0 0 0 0 0 0 0 127 0" result="hardAlpha"/><feOffset dx="5" dy="5"/><feGaussianBlur stdDeviation="5"/><feColorMatrix values="0 0 0 0 0.577356 0 0 0 0 0.359375 0 0 0 0 0.9375 0 0 0 0.5 0"/><feBlend in2="effect1_backgroundBlur" result="effect2_dropShadow"/><feBlend in="SourceGraphic" in2="effect2_dropShadow" result="shape"/></filter></defs></svg>