<svg width="70" height="64" fill="none" xmlns="http://www.w3.org/2000/svg"><g filter="url(#filter0_bd)"><path d="M45.625 40.417c-5.169 0-9.375-4.207-9.375-9.375 0-5.17 4.206-9.375 9.375-9.375h5.208V17.5a4.17 4.17 0 00-4.166-4.167h-2.084V9.167A4.17 4.17 0 0040.417 5H11.25c-3.09 0-5.644 2.258-6.144 5.206-.046.171-.106.338-.106.523V42.5a6.258 6.258 0 006.25 6.25h35.417a4.17 4.17 0 004.166-4.167v-4.166h-5.208zM9.167 11.25c0-1.148.933-2.083 2.083-2.083h29.167v4.166H11.25a2.085 2.085 0 01-2.083-2.083z" fill="url(#paint0_linear)"/><path d="M44.483 13.333v.1h2.184a4.07 4.07 0 014.066 4.067v4.067h-5.108c-5.224 0-9.475 4.25-9.475 9.475 0 5.224 4.251 9.475 9.475 9.475h5.108v4.066a4.07 4.07 0 01-4.066 4.067H11.25c-3.39 0-6.15-2.76-6.15-6.15V10.73c0-.135.034-.256.073-.392a7.1 7.1 0 00.03-.106h0l.002-.009C5.697 7.322 8.21 5.1 11.25 5.1h29.167a4.07 4.07 0 014.066 4.067v4.166zm-3.966-4.166v-.1H11.25c-1.205 0-2.183.98-2.183 2.183 0 1.203.978 2.183 2.183 2.183h29.267V9.167z" stroke="url(#paint1_linear)" stroke-opacity=".5" stroke-width=".2"/></g><g filter="url(#filter1_bd)"><path d="M53.438 24.792h-7.813a6.258 6.258 0 00-6.25 6.25 6.258 6.258 0 006.25 6.25h7.813c.862 0 1.562-.7 1.562-1.563v-9.375c0-.862-.7-1.562-1.563-1.562zm-7.813 8.333a2.084 2.084 0 11.001-4.168 2.084 2.084 0 01-.001 4.168z" fill="url(#paint2_linear)"/><path d="M45.625 24.892h7.813c.807 0 1.462.655 1.462 1.462v9.375c0 .807-.655 1.463-1.462 1.463h-7.813c-3.39 0-6.15-2.76-6.15-6.15 0-3.39 2.76-6.15 6.15-6.15zm-2.183 6.15a2.184 2.184 0 104.368-.002 2.184 2.184 0 00-4.368.002z" stroke="url(#paint3_linear)" stroke-opacity=".5" stroke-width=".2"/></g><defs><linearGradient id="paint0_linear" x1="47.584" y1="12.9" x2="-3.465" y2="14.644" gradientUnits="userSpaceOnUse"><stop stop-color="#fff"/><stop offset="1" stop-color="#fff" stop-opacity=".2"/></linearGradient><linearGradient id="paint1_linear" x1="9.937" y1="19.676" x2="48.856" y2="19.901" gradientUnits="userSpaceOnUse"><stop stop-color="#fff"/><stop offset="1" stop-color="#fff" stop-opacity="0"/></linearGradient><linearGradient id="paint2_linear" x1="53.892" y1="27.049" x2="36.498" y2="27.758" gradientUnits="userSpaceOnUse"><stop stop-color="#fff"/><stop offset="1" stop-color="#fff" stop-opacity=".2"/></linearGradient><linearGradient id="paint3_linear" x1="41.058" y1="28.985" x2="54.326" y2="29.076" gradientUnits="userSpaceOnUse"><stop stop-color="#fff"/><stop offset="1" stop-color="#fff" stop-opacity="0"/></linearGradient><filter id="filter0_bd" x="-10" y="-10" width="75.833" height="73.75" filterUnits="userSpaceOnUse" color-interpolation-filters="sRGB"><feFlood flood-opacity="0" result="BackgroundImageFix"/><feGaussianBlur in="BackgroundImage" stdDeviation="7.5"/><feComposite in2="SourceAlpha" operator="in" result="effect1_backgroundBlur"/><feColorMatrix in="SourceAlpha" values="0 0 0 0 0 0 0 0 0 0 0 0 0 0 0 0 0 0 127 0" result="hardAlpha"/><feOffset dx="5" dy="5"/><feGaussianBlur stdDeviation="5"/><feColorMatrix values="0 0 0 0 0.15375 0 0 0 0 0.522433 0 0 0 0 0.9 0 0 0 0.5 0"/><feBlend in2="effect1_backgroundBlur" result="effect2_dropShadow"/><feBlend in="SourceGraphic" in2="effect2_dropShadow" result="shape"/></filter><filter id="filter1_bd" x="24.375" y="9.792" width="45.625" height="42.5" filterUnits="userSpaceOnUse" color-interpolation-filters="sRGB"><feFlood flood-opacity="0" result="BackgroundImageFix"/><feGaussianBlur in="BackgroundImage" stdDeviation="7.5"/><feComposite in2="SourceAlpha" operator="in" result="effect1_backgroundBlur"/><feColorMatrix in="SourceAlpha" values="0 0 0 0 0 0 0 0 0 0 0 0 0 0 0 0 0 0 127 0" result="hardAlpha"/><feOffset dx="5" dy="5"/><feGaussianBlur stdDeviation="5"/><feColorMatrix values="0 0 0 0 0.15375 0 0 0 0 0.522433 0 0 0 0 0.9 0 0 0 0.5 0"/><feBlend in2="effect1_backgroundBlur" result="effect2_dropShadow"/><feBlend in="SourceGraphic" in2="effect2_dropShadow" result="shape"/></filter></defs></svg>