<svg width="129" height="149" fill="none" xmlns="http://www.w3.org/2000/svg"><path d="M118.789 95.855c0-29.018-20.341-63.996-45.636-78.505-12.518-7.255-23.992-8.032-32.337-3.11l-8.605 4.923 2.607.26c-4.433 5.44-7.301 13.731-7.301 24.095 0 29.019 20.34 63.997 45.636 78.506 8.605 4.923 16.69 6.736 23.73 5.959l-.26 2.332 8.866-5.182.261-.259c8.084-4.923 13.039-15.027 13.039-29.019z" fill="#4A6BAD"/><path d="M96.706 129.975c17.835-10.232 17.875-43.339.088-73.947C79.007 25.42 50.13 8.901 32.294 19.133 14.46 29.363 14.42 62.47 32.206 93.079c17.787 30.608 46.664 47.127 64.5 36.896z" fill="url(#paint0_linear)"/><path d="M82.019 125.91c-5.476 0-11.735-1.813-17.994-5.441-21.905-12.695-39.899-43.268-39.899-68.4 0-12.437 4.173-21.506 11.996-25.91 7.563-4.405 17.733-3.368 28.686 2.85 21.905 12.696 39.899 43.269 39.899 68.4 0 12.438-4.173 21.506-11.996 25.91-3.13 1.814-6.78 2.591-10.692 2.591zM46.814 24.604c-3.65 0-7.04.777-9.91 2.591-7.301 4.146-11.213 12.955-11.213 24.873 0 24.873 17.472 54.928 39.117 67.365 10.43 5.959 20.08 6.996 27.381 2.85 7.302-4.145 11.214-12.955 11.214-24.873 0-24.873-17.472-54.928-39.117-67.365-6.258-3.627-12.256-5.44-17.472-5.44z" fill="#C5F3FF"/><defs><linearGradient id="paint0_linear" x1="96.705" y1="129.973" x2="32.917" y2="18.776" gradientUnits="userSpaceOnUse"><stop stop-color="#40A4FF"/><stop offset="1" stop-color="#311996"/></linearGradient></defs></svg>