<svg width="194" height="186" fill="none" xmlns="http://www.w3.org/2000/svg"><path d="M104.791 150.64c25.383-14.292 45.917-49.117 46.097-78.149.154-14.403-4.842-24.713-13.276-29.509l-8.562-5.021 1.063 2.383c-6.952-1.156-15.623.446-24.689 5.55-25.383 14.29-45.917 49.116-46.097 78.148-.049 9.87 2.363 17.758 6.526 23.467l-2.169.923 8.919 5.119.355.098c8.305 4.57 19.595 3.881 31.833-3.009z" fill="#4A6BAD"/><path d="M63.996 148.317c17.79 10.386 46.799-5.874 64.793-36.319 17.994-30.445 18.159-63.545.369-73.931-17.79-10.387-46.799 5.873-64.793 36.318-17.993 30.445-18.159 63.545-.369 73.932z" fill="url(#paint0_linear)"/><path d="M60.32 133.641c-2.708-4.738-4.217-11.046-4.14-18.247.27-25.205 18.112-55.83 40.095-68.207 10.878-6.125 20.874-6.98 28.596-2.38 7.594 4.373 11.718 13.683 11.696 26.222-.269 25.204-18.112 55.829-40.095 68.206-10.878 6.125-20.874 6.981-28.596 2.381-3.135-1.814-5.62-4.59-7.555-7.975zm71.2-80.35c-1.806-3.158-4.163-5.709-7.168-7.298-7.238-4.276-16.878-3.322-27.303 2.548-21.757 12.25-39.403 42.168-39.576 67.019-.053 11.96 3.814 20.818 11.051 25.094 7.238 4.276 16.878 3.322 27.303-2.547 21.757-12.249 39.404-42.168 39.576-67.02.077-7.2-1.303-13.283-3.883-17.796z" fill="#C5F3FF"/><defs><linearGradient id="paint0_linear" x1="63.997" y1="148.315" x2="128.566" y2="37.721" gradientUnits="userSpaceOnUse"><stop stop-color="#40A4FF"/><stop offset="1" stop-color="#311996"/></linearGradient></defs></svg>