<svg width="77" height="86" fill="none" xmlns="http://www.w3.org/2000/svg"><path d="M8.661 34.804c1.85 15.11 14.655 32.056 28.732 38.037 6.97 2.999 12.985 2.69 17.01-.392l4.16-3.098-1.373.027c1.959-3.109 2.921-7.604 2.26-13C57.6 41.27 44.795 24.323 30.72 18.342c-4.788-2.028-9.107-2.47-12.718-1.627l-.013-1.23-4.28 3.249-.118.15C9.7 21.952 7.769 27.52 8.66 34.805z" fill="#4A6BAD"/><path d="M17.962 15.68c-8.624 6.432-6.533 23.662 4.671 38.484 11.204 14.822 27.279 21.623 35.903 15.191 8.625-6.432 6.534-23.663-4.67-38.485C42.66 16.048 26.585 9.247 17.961 15.68z" fill="url(#paint0_linear)"/><path d="M25.867 16.867c2.847-.34 6.216.215 9.702 1.714C47.767 23.83 59.07 38.63 60.674 51.714c.793 6.475-.798 11.456-4.585 14.236-3.651 2.764-9.005 2.857-15.096.3-12.198-5.248-23.502-20.047-25.105-33.133-.793-6.475.798-11.456 4.585-14.236 1.511-1.139 3.36-1.77 5.394-2.014zm24.762 50.557c1.899-.227 3.611-.842 4.987-1.965 3.532-2.612 5.004-7.442 4.244-13.648C58.275 38.862 47.274 24.3 35.228 19.17c-5.803-2.455-10.886-2.394-14.418.218-3.532 2.613-5.004 7.443-4.244 13.648C18.152 45.986 29.152 60.55 41.2 65.678c3.485 1.5 6.719 2.07 9.43 1.746z" fill="#C5F3FF"/><defs><linearGradient id="paint0_linear" x1="17.963" y1="15.68" x2="58.189" y2="69.614" gradientUnits="userSpaceOnUse"><stop stop-color="#40A4FF"/><stop offset="1" stop-color="#311996"/></linearGradient></defs></svg>