<svg width="142" height="132" fill="none" xmlns="http://www.w3.org/2000/svg"><path fill-rule="evenodd" clip-rule="evenodd" d="M99.234 23.425c-2.025-2.385-4.05-3.473-7.138-3.473H23.723c-1.62 0-2.936-1.245-3.088-2.909l-.962-11.612c-.152-1.763-1.418-3.21-3.14-3.525L4.46.044a3.878 3.878 0 00-4.405 3.21C-.3 5.326 1.118 7.348 3.143 7.711l7.644 1.348 4.658 56.513c.557 6.843 6.126 12.125 12.86 12.125H83.54c6.43 0 11.897-4.816 12.809-11.353l4.809-34.008c.456-3.106.101-6.527-1.924-8.912z" fill="url(#paint0_linear)"/><g opacity=".5" filter="url(#filter0_f)"><rect x="24.077" y="33.82" width="60.718" height="36.526" rx="18.263" fill="#EB6F0A"/></g><g filter="url(#filter1_b)"><mask id="a" maskUnits="userSpaceOnUse" x="29" y="18.519" width="113" height="114" fill="#000"><path fill="#fff" d="M29 18.519h113v114H29z"/><path fill-rule="evenodd" clip-rule="evenodd" d="M40.855 42.215c-3.358 0-5.56 1.184-7.762 3.777s-2.588 6.314-2.092 9.69l5.23 36.98c.99 7.11 6.936 12.347 13.928 12.347h60.062c7.322 0 13.378-5.745 13.984-13.186l5.065-61.452 8.313-1.466c2.202-.394 3.743-2.593 3.358-4.848a4.218 4.218 0 00-4.79-3.49l-13.13 2.024c-1.872.344-3.248 1.917-3.413 3.834l-1.046 12.627c-.165 1.81-1.597 3.163-3.358 3.163H40.855zm70.249 71.704c4.625 0 8.368 3.833 8.368 8.569 0 4.679-3.743 8.512-8.368 8.512-4.569 0-8.313-3.833-8.313-8.512 0-4.736 3.744-8.569 8.313-8.569zm-61.934 0c4.625 0 8.368 3.833 8.368 8.569 0 4.679-3.743 8.512-8.368 8.512-4.569 0-8.313-3.833-8.313-8.512 0-4.736 3.744-8.569 8.313-8.569z"/></mask><path fill-rule="evenodd" clip-rule="evenodd" d="M40.855 42.215c-3.358 0-5.56 1.184-7.762 3.777s-2.588 6.314-2.092 9.69l5.23 36.98c.99 7.11 6.936 12.347 13.928 12.347h60.062c7.322 0 13.378-5.745 13.984-13.186l5.065-61.452 8.313-1.466c2.202-.394 3.743-2.593 3.358-4.848a4.218 4.218 0 00-4.79-3.49l-13.13 2.024c-1.872.344-3.248 1.917-3.413 3.834l-1.046 12.627c-.165 1.81-1.597 3.163-3.358 3.163H40.855zm70.249 71.704c4.625 0 8.368 3.833 8.368 8.569 0 4.679-3.743 8.512-8.368 8.512-4.569 0-8.313-3.833-8.313-8.512 0-4.736 3.744-8.569 8.313-8.569zm-61.934 0c4.625 0 8.368 3.833 8.368 8.569 0 4.679-3.743 8.512-8.368 8.512-4.569 0-8.313-3.833-8.313-8.512 0-4.736 3.744-8.569 8.313-8.569z" fill="#FFCBB9" fill-opacity=".35"/><path d="M33.093 45.992l.762.647-.762-.647zM31 55.682l.99-.145v.005l-.99.14zm5.23 36.98l.99-.14v.003l-.99.138zm87.974-.84l-.997-.08v-.001l.997.082zm5.065-61.451l-.997-.082a1 1 0 01.823-.903l.174.985zm8.313-1.466l.176.985h-.003l-.173-.985zm3.358-4.848l-.986.169v-.004l.986-.165zm-4.79-3.49l-.152-.988H136l.15.989zm-13.13 2.024l-.18-.983a.477.477 0 01.028-.005l.152.988zm-3.413 3.834l-.997-.083.001-.003.996.086zm-1.046 12.627l.997.083-.001.008-.996-.09zM32.33 45.345c1.158-1.364 2.36-2.41 3.764-3.11 1.41-.7 2.957-1.02 4.76-1.02v2c-1.555 0-2.787.272-3.869.811-1.088.542-2.087 1.384-3.131 2.613l-1.524-1.294zm-2.32 10.483c-.514-3.507-.15-7.575 2.32-10.483l1.524 1.294c-1.934 2.278-2.341 5.651-1.865 8.898l-1.979.29zm5.23 36.975l-5.23-36.98 1.98-.28 5.23 36.98-1.98.28zm14.918 13.206c-7.505 0-13.86-5.62-14.919-13.208l1.981-.276c.924 6.629 6.46 11.484 12.938 11.484v2zm60.062 0H50.159v-2h60.062v2zm14.981-14.105c-.646 7.938-7.116 14.105-14.981 14.105v-2c6.78 0 12.422-5.323 12.987-12.267l1.994.162zm5.064-61.45L125.2 91.905l-1.993-.164 5.065-61.452 1.993.164zm7.49-.564l-8.313 1.466-.347-1.97 8.313-1.466.347 1.97zm4.171-6.001c.476 2.788-1.417 5.508-4.168 6l-.353-1.968c1.653-.296 2.843-1.973 2.549-3.695l1.972-.337zM136 19.579a5.216 5.216 0 015.926 4.313l-1.972.33a3.217 3.217 0 00-3.653-2.666L136 19.579zm-13.132 2.024l13.13-2.024.305 1.977-13.13 2.024-.305-1.977zm-4.257 4.736c.202-2.344 1.893-4.302 4.229-4.731l.361 1.967c-1.408.259-2.469 1.447-2.598 2.936l-1.992-.172zm-1.047 12.63l1.046-12.627 1.994.165-1.046 12.628-1.994-.165zm-2.361 2.246c1.216 0 2.241-.93 2.362-2.254l1.992.182c-.21 2.296-2.047 4.072-4.354 4.072v-2zm-74.349 0h74.349v2H40.855v-2zm77.617 81.273c0-4.206-3.318-7.569-7.368-7.569v-2c5.199 0 9.368 4.304 9.368 9.569h-2zM111.104 130c4.054 0 7.368-3.367 7.368-7.512h2c0 5.213-4.173 9.512-9.368 9.512v-2zm-7.313-7.512c0 4.149 3.318 7.512 7.313 7.512v2c-5.144 0-9.313-4.304-9.313-9.512h2zm7.313-7.569c-3.99 0-7.313 3.359-7.313 7.569h-2c0-5.261 4.165-9.569 9.313-9.569v2zm-54.566 7.569c0-4.206-3.318-7.569-7.368-7.569v-2c5.2 0 9.368 4.304 9.368 9.569h-2zM49.17 130c4.055 0 7.368-3.367 7.368-7.512h2c0 5.213-4.173 9.512-9.368 9.512v-2zm-7.313-7.512c0 4.149 3.319 7.512 7.313 7.512v2c-5.143 0-9.313-4.304-9.313-9.512h2zm7.313-7.569c-3.99 0-7.313 3.359-7.313 7.569h-2c0-5.261 4.165-9.569 9.313-9.569v2z" fill="url(#paint1_linear)" mask="url(#a)"/></g><g filter="url(#filter2_bd)"><mask id="b" fill="#fff"><path fill-rule="evenodd" clip-rule="evenodd" d="M58.967 71.52h15.25c2.312 0 4.129-1.916 4.129-4.228 0-2.367-1.817-4.228-4.13-4.228H58.968c-2.312 0-4.129 1.86-4.129 4.228 0 2.312 1.817 4.228 4.13 4.228z"/></mask><path fill-rule="evenodd" clip-rule="evenodd" d="M58.967 71.52h15.25c2.312 0 4.129-1.916 4.129-4.228 0-2.367-1.817-4.228-4.13-4.228H58.968c-2.312 0-4.129 1.86-4.129 4.228 0 2.312 1.817 4.228 4.13 4.228z" fill="url(#paint2_linear)"/><path d="M58.967 71.12h15.25v.8h-15.25v-.8zm15.25 0c2.079 0 3.729-1.725 3.729-3.828h.8c0 2.52-1.984 4.628-4.53 4.628v-.8zm3.729-3.828c0-2.155-1.647-3.828-3.73-3.828v-.8c2.543 0 4.53 2.049 4.53 4.628h-.8zm-3.73-3.828H58.968v-.8h15.25v.8zm-15.249 0c-2.082 0-3.729 1.673-3.729 3.828h-.8c0-2.58 1.987-4.628 4.53-4.628v.8zm-3.729 3.828c0 2.103 1.65 3.828 3.73 3.828v.8c-2.546 0-4.53-2.108-4.53-4.628h.8z" fill="url(#paint3_linear)" mask="url(#b)"/></g><defs><linearGradient id="paint0_linear" x1="50.667" y1="0" x2="50.667" y2="77.698" gradientUnits="userSpaceOnUse"><stop stop-color="#FFB37F"/><stop offset="1" stop-color="#FF7B0D"/></linearGradient><linearGradient id="paint1_linear" x1="123.459" y1="33.391" x2="52.946" y2="120.494" gradientUnits="userSpaceOnUse"><stop stop-color="#fff" stop-opacity=".25"/><stop offset="1" stop-color="#fff" stop-opacity="0"/></linearGradient><linearGradient id="paint2_linear" x1="56.505" y1="64.591" x2="82.504" y2="66.948" gradientUnits="userSpaceOnUse"><stop stop-color="#fff"/><stop offset="1" stop-color="#fff" stop-opacity=".2"/></linearGradient><linearGradient id="paint3_linear" x1="74.604" y1="64.049" x2="71.648" y2="74.227" gradientUnits="userSpaceOnUse"><stop stop-color="#fff" stop-opacity=".25"/><stop offset="1" stop-color="#fff" stop-opacity="0"/></linearGradient><filter id="filter0_f" x="9.077" y="18.82" width="90.718" height="66.526" filterUnits="userSpaceOnUse" color-interpolation-filters="sRGB"><feFlood flood-opacity="0" result="BackgroundImageFix"/><feBlend in="SourceGraphic" in2="BackgroundImageFix" result="shape"/><feGaussianBlur stdDeviation="7.5" result="effect1_foregroundBlur"/></filter><filter id="filter1_b" x="5.809" y="-4.481" width="160.191" height="160.481" filterUnits="userSpaceOnUse" color-interpolation-filters="sRGB"><feFlood flood-opacity="0" result="BackgroundImageFix"/><feGaussianBlur in="BackgroundImage" stdDeviation="12"/><feComposite in2="SourceAlpha" operator="in" result="effect1_backgroundBlur"/><feBlend in="SourceGraphic" in2="effect1_backgroundBlur" result="shape"/></filter><filter id="filter2_bd" x="39.838" y="48.064" width="53.508" height="38.456" filterUnits="userSpaceOnUse" color-interpolation-filters="sRGB"><feFlood flood-opacity="0" result="BackgroundImageFix"/><feGaussianBlur in="BackgroundImage" stdDeviation="7.5"/><feComposite in2="SourceAlpha" operator="in" result="effect1_backgroundBlur"/><feColorMatrix in="SourceAlpha" values="0 0 0 0 0 0 0 0 0 0 0 0 0 0 0 0 0 0 127 0" result="hardAlpha"/><feOffset dx="5" dy="5"/><feGaussianBlur stdDeviation="5"/><feColorMatrix values="0 0 0 0 1 0 0 0 0 0.521569 0 0 0 0 0.133333 0 0 0 0.5 0"/><feBlend in2="effect1_backgroundBlur" result="effect2_dropShadow"/><feBlend in="SourceGraphic" in2="effect2_dropShadow" result="shape"/></filter></defs></svg>