<svg width="136" height="131" fill="none" xmlns="http://www.w3.org/2000/svg"><path d="M68.144 85.026c-.42.244-.896.391-1.389.415l-15.861.768c-4.502.216-8.375-.225-11.844-1.341-7.59-2.44-13.96-7.527-17.931-14.328L8.039 48.157c-1.51-2.583-1.17-5.882.834-8.211l17.959-20.803a7.416 7.416 0 014.164-2.442l26.879-5.508c3.006-.621 6.043.702 7.547 3.284l13.089 22.399c3.969 6.79 5.28 14.839 3.697 22.665-.727 3.59-2.241 7.19-4.626 11.005l-8.402 13.47c-.26.42-.618.764-1.036 1.01z" fill="url(#paint0_linear)"/><g opacity=".5" filter="url(#filter0_f)"><path d="M61.13 71.69a2.335 2.335 0 01-.928.307L49.758 73.06c-2.965.3-5.492.175-7.728-.381-4.894-1.214-8.888-4.097-11.243-8.123L23.03 51.31c-.896-1.529-.551-3.566.852-5.07l12.566-13.438a5.723 5.723 0 012.825-1.653l17.856-4.385c1.997-.493 3.942.206 4.834 1.734l7.763 13.257c2.354 4.018 2.916 8.909 1.586 13.77-.61 2.231-1.74 4.497-3.447 6.927l-6.018 8.58a2.281 2.281 0 01-.717.659z" fill="#39B93A"/></g><g filter="url(#filter1_b)"><mask id="a" maskUnits="userSpaceOnUse" x="31.331" y="12.903" width="106.124" height="119.663" fill="#000"><path fill="#fff" d="M31.331 12.903h106.124v119.663H31.331z"/><path d="M76.81 124.198a4.08 4.08 0 01-1.785-.732l-17.09-12.498c-4.85-3.549-8.5-7.256-11.17-11.329-5.846-8.91-8.228-19.554-6.696-29.979L45.1 35.35c.58-3.96 3.671-7.118 7.686-7.866l35.91-6.642a9.803 9.803 0 016.348.944l32.457 16.79c3.634 1.874 5.684 5.8 5.1 9.754l-5.033 34.337c-1.525 10.41-6.851 19.905-14.996 26.741-3.736 3.136-8.298 5.62-13.94 7.6l-19.906 7.004a3.98 3.98 0 01-1.915.187z"/></mask><path d="M76.81 124.198a4.08 4.08 0 01-1.785-.732l-17.09-12.498c-4.85-3.549-8.5-7.256-11.17-11.329-5.846-8.91-8.228-19.554-6.696-29.979L45.1 35.35c.58-3.96 3.671-7.118 7.686-7.866l35.91-6.642a9.803 9.803 0 016.348.944l32.457 16.79c3.634 1.874 5.684 5.8 5.1 9.754l-5.033 34.337c-1.525 10.41-6.851 19.905-14.996 26.741-3.736 3.136-8.298 5.62-13.94 7.6l-19.906 7.004a3.98 3.98 0 01-1.915.187z" fill="#72DC60" fill-opacity=".35"/><path d="M76.659 125.186a.997.997 0 001.14-.835 1.003 1.003 0 00-.838-1.142l-.302 1.977zm-1.634-1.72l.59-.807-.59.807zm-17.09-12.498l-.59.807.59-.807zm-11.17-11.329l.835-.548-.836.548zM40.068 69.66l.99.147-.99-.147zM45.1 35.35l.989.146-.99-.146zm7.686-7.866l-.183-.984H52.6l.184.984zm35.91-6.642l.184.983.007-.001-.19-.982zm6.348.944l-.46.887.002.001.458-.888zm32.457 16.79l-.458.889h.001l.457-.888zm5.1 9.754l-.989-.148v.002l.989.146zm-5.033 34.337l-.989-.147.989.147zm-14.996 26.741l.643.767h.001l-.644-.767zm-13.94 7.6l-.332-.944h-.001l.333.944zm-19.906 7.004l-.333-.943-.005.001.338.942zm-1.772-.803a.998.998 0 00-1.133.845c-.079.547.3 1.055.847 1.135l.286-1.98zm.008.001a3.077 3.077 0 01-1.346-.55l-1.179 1.614a5.067 5.067 0 002.223.913l.302-1.977zm-1.346-.55l-17.091-12.498-1.179 1.614 17.091 12.498 1.179-1.614zm-17.09-12.498c-4.774-3.494-8.334-7.117-10.925-11.07l-1.672 1.096c2.75 4.194 6.492 7.984 11.417 11.588l1.18-1.614zM47.6 99.091c-5.713-8.707-8.038-19.105-6.542-29.284l-1.978-.293c-1.568 10.67.87 21.562 6.849 30.673l1.67-1.096zm-6.542-29.284l5.03-34.312-1.979-.293-5.029 34.312 1.978.293zm5.03-34.312c.516-3.524 3.273-6.356 6.881-7.029l-.369-1.967c-4.42.825-7.847 4.307-8.49 8.704l1.978.292zm6.88-7.029l35.91-6.642-.365-1.967L52.6 26.499l.367 1.967zm35.918-6.643a8.802 8.802 0 015.697.85l.921-1.775a10.802 10.802 0 00-6.999-1.04l.381 1.965zm5.7.85l32.456 16.79.917-1.776-32.457-16.79-.917 1.776zm32.457 16.792c3.264 1.682 5.088 5.198 4.568 8.716l1.978.295c.649-4.39-1.628-8.725-5.632-10.79l-.914 1.779zm4.568 8.717l-5.033 34.337 1.978.293 5.034-34.337-1.979-.293zm-5.033 34.338c-1.489 10.164-6.69 19.44-14.65 26.121l1.287 1.533c8.329-6.991 13.781-16.707 15.341-27.362l-1.978-.292zm-14.65 26.121c-3.626 3.042-8.075 5.473-13.63 7.422l.665 1.888c5.73-2.011 10.404-4.549 14.251-7.777l-1.286-1.533zm-13.63 7.422l-19.906 7.005.665 1.887 19.906-7.004-.665-1.888zm-19.91 7.006c-.46.165-.952.21-1.435.139l-.287 1.98a4.986 4.986 0 002.396-.234l-.675-1.885z" fill="url(#paint1_linear)" mask="url(#a)"/></g><g filter="url(#filter2_bd)"><path d="M78.927 83.916a3.984 3.984 0 01-2.593-1.52l-8.423-11.048a3.777 3.777 0 01.791-5.374c1.739-1.26 4.206-.895 5.511.816l6.062 7.945 19.983-14.467c1.744-1.26 4.211-.894 5.511.816a3.772 3.772 0 01-.785 5.374L81.846 83.21a3.956 3.956 0 01-2.919.705z" fill="url(#paint2_linear)"/><path d="M68.76 66.055h0a3.677 3.677 0 00-.77 5.232l.77-5.232zm0 0c1.696-1.229 4.102-.872 5.374.795l6.061 7.946.06.078.078-.057 19.984-14.468c1.7-1.228 4.106-.871 5.373.795 1.271 1.671.927 4.015-.765 5.232h0L81.787 83.13h0a3.855 3.855 0 01-2.845.687 3.883 3.883 0 01-2.528-1.482L67.99 71.287l.77-5.232z" stroke="url(#paint3_linear)" stroke-opacity=".5" stroke-width=".2"/></g><defs><linearGradient id="paint0_linear" x1="57.726" y1=".775" x2="37.245" y2="76.97" gradientUnits="userSpaceOnUse"><stop stop-color="#9BF763"/><stop offset="1" stop-color="#26AB5B"/></linearGradient><linearGradient id="paint1_linear" x1="60.468" y1="28.236" x2="116.951" y2="109.399" gradientUnits="userSpaceOnUse"><stop stop-color="#fff" stop-opacity=".25"/><stop offset="1" stop-color="#fff" stop-opacity="0"/></linearGradient><linearGradient id="paint2_linear" x1="103.66" y1="64.711" x2="61.343" y2="60.162" gradientUnits="userSpaceOnUse"><stop stop-color="#fff"/><stop offset="1" stop-color="#fff" stop-opacity=".2"/></linearGradient><linearGradient id="paint3_linear" x1="71.993" y1="64.17" x2="104.026" y2="69.323" gradientUnits="userSpaceOnUse"><stop stop-color="#fff"/><stop offset="1" stop-color="#fff" stop-opacity="0"/></linearGradient><filter id="filter0_f" x="8.536" y="12.608" width="77.482" height="74.612" filterUnits="userSpaceOnUse" color-interpolation-filters="sRGB"><feFlood flood-opacity="0" result="BackgroundImageFix"/><feBlend in="SourceGraphic" in2="BackgroundImageFix" result="shape"/><feGaussianBlur stdDeviation="7" result="effect1_foregroundBlur"/></filter><filter id="filter1_b" x="14.616" y="-4.331" width="143.083" height="153.571" filterUnits="userSpaceOnUse" color-interpolation-filters="sRGB"><feFlood flood-opacity="0" result="BackgroundImageFix"/><feGaussianBlur in="BackgroundImage" stdDeviation="12"/><feComposite in2="SourceAlpha" operator="in" result="effect1_backgroundBlur"/><feBlend in="SourceGraphic" in2="effect1_backgroundBlur" result="shape"/></filter><filter id="filter2_bd" x="52.128" y="44.519" width="69.429" height="54.442" filterUnits="userSpaceOnUse" color-interpolation-filters="sRGB"><feFlood flood-opacity="0" result="BackgroundImageFix"/><feGaussianBlur in="BackgroundImage" stdDeviation="7.5"/><feComposite in2="SourceAlpha" operator="in" result="effect1_backgroundBlur"/><feColorMatrix in="SourceAlpha" values="0 0 0 0 0 0 0 0 0 0 0 0 0 0 0 0 0 0 127 0" result="hardAlpha"/><feOffset dx="5" dy="5"/><feGaussianBlur stdDeviation="5"/><feColorMatrix values="0 0 0 0 0.454902 0 0 0 0 0.870588 0 0 0 0 0.376471 0 0 0 0.5 0"/><feBlend in2="effect1_backgroundBlur" result="effect2_dropShadow"/><feBlend in="SourceGraphic" in2="effect2_dropShadow" result="shape"/></filter></defs></svg>