<svg width="865" height="463" fill="none" xmlns="http://www.w3.org/2000/svg"><g clip-path="url(#clip0)"><path d="M1038.41-3.819l-43.765-23.375c-.498 0-.995-.497-1.492 0-1.492.497-2.487 2.984-2.984 4.973-1.989 5.47-2.984 10.94-4.476 16.411-.497-1.99-.995-3.48-1.492-5.469-.497-1.989-1.492-3.978-3.481-4.973l-43.765-23.375c-.497-.497-1.492-.497-2.486 0-3.482 1.99-4.974 9.45-5.968 13.429-1.99 8.952-2.487 17.407-3.482 25.862-.994 9.946-.994 24.365-5.47 34.312-8.455 18.401-12.433-2.981-18.401.5-10.444 5.968-4.476 43.766-59.679 70.621-6.465 2.984-12.931 4.97-18.401 5.964-6.465-20.887-6.465-52.713-14.422-56.692l-43.765-23.375h-.497c-.995-.497-2.487-.497-3.979 0-20.887 9.947-10.941 100.957-36.802 119.358-.497 0-.497.495-.994.495-10.942-14.422-21.883-31.331-36.802-39.786h-.498l-2.984-1.491c-8.454-4.476-31.331-16.908-40.283-21.384-.995-.497-2.487-1.494-3.978-1.99-11.936-5.471-25.862-5.965-43.765 3.981-49.235 27.353-49.235 94.988-113.39 130.796-2.984 1.492-5.968 2.983-8.455 3.977-9.946-13.925-19.893-29.839-32.326-37.299h-.497l-44.262-23.375c-8.952-4.973-19.893-4.973-33.818 2.487-28.845 16.411-46.251 45.754-65.647 95.487-15.417 40.78-60.673 122.837-107.919 174.559-.497-.995-.995-1.489-1.492-1.987h-.995l-43.764-23.375c-.995-.497-1.99-.497-2.487 0l.498 173.068 43.764 23.375 214.844-119.853 103.941-58.188 215.839-120.353 67.636-37.795a1055.07 1055.07 0 0129.342-15.915c26.855-14.92 61.668-34.318 97.475-54.211 54.706-30.834 111.404-62.661 141.734-80.067V35.472c-8.45-8.952-10.94-37.301-15.91-39.29z" fill="#14B0FF"/><path d="M1037.41-3.817c-1.49.497-2.48 2.984-2.98 4.973-2.49 6.962-3.98 13.926-5.47 20.888-1.99 8.455-3.98 16.908-6.96 25.362-.5 1.99-1.49 3.98-2.49 5.969-1.99 4.973-4.97 9.45-8.45 10.942-1.99.497-3.48-.498-4.98-.996-1.99-.994-3.48-2.984-4.97-4.973-1.989-2.486-3.481-5.471-4.476-8.455-2.486-6.466-3.978-13.925-5.47-21.384-1.492-7.46-1.99-15.415-3.482-22.875-.994-5.968-1.492-11.936-3.481-17.407-.995-2.486-2.486-6.465-5.47-4.973-3.482 1.99-4.974 9.445-5.968 13.424-1.99 8.952-2.487 17.407-3.482 25.862-.994 9.946-.994 24.37-5.47 34.317-8.455 18.401-12.433-2.986-18.401.495-10.444 5.968-4.476 43.766-59.679 70.622-32.823 15.914-55.203-1.491-59.679-10.442-10.941-22.877-7.46-69.627-20.888-63.161-20.887 9.946-10.941 100.956-36.802 119.357-45.256 25.364-57.192-100.958-129.304-60.674-49.235 27.353-49.235 94.988-113.39 130.795-56.695 31.829-59.181-88.524-119.855-54.706-28.845 16.412-46.251 45.755-65.647 95.488-17.904 46.748-75.593 148.7-129.801 196.443-8.455 7.46-17.904-53.713-27.353-46.751l.497 173.073 214.844-119.858 103.941-58.188 215.839-120.349 67.636-37.799a1055.07 1055.07 0 0129.342-15.915c26.855-14.92 61.668-34.313 97.475-54.206 54.706-30.834 111.404-62.666 141.734-80.072V34.973c-8.95-9.45-10.94-40.78-16.91-38.79z" fill="url(#paint0_linear)"/><path d="M915.323 178.676c-7.958 1.989-16.909 4.973-27.85 9.947-2.487.994-4.974 2.489-7.46 2.986-6.963 2.487-12.931 3.979-18.401 4.974-2.487.497-4.974.495-6.963.495-20.39-30.834-24.369-81.065-42.77-90.514l-43.764-24.366c-.498 0-.498-.5-.995-.5h-.497c-5.471-2.487-12.433-1.49-21.385 4.478-26.856 21.882-35.807 98.965-58.187 169.585-15.914 49.733-38.294 95.983-78.577 118.363l-1.492.995c-1.492.498-3.482 1.494-4.974 1.991-5.47 1.99-10.443 2.983-14.919 3.978-6.963 1.492-12.931 1.493-18.401.996-5.968-5.968-11.439-11.439-17.407-14.92-.497 0-.994-.5-1.492-.5l-43.267-23.871h-.497c-8.952-4.973-19.396-5.966-34.316 1.991-61.668 32.824-50.229 136.766-156.159 204.899-11.936 7.46-22.38 11.436-31.332 12.928-20.887-30.834-31.331-81.061-50.727-99.96-1.492-1.492-3.481-2.988-5.47-3.982l-.498-.496c-.497 0-.497-.495-.994-.495l-43.765-24.371h-.497c-6.963-3.481-14.423-3.479-24.369 1.991-30.834 17.904-25.861 73.604-60.674 121.845C81.807 578.03 54.454 638.203 46 665.058v80.568l44.262 24.371L961.077 284.11v-81.063l-45.754-24.371z" fill="url(#paint1_linear)"/><path d="M959.585 203.05v81.063L88.77 770v-80.568c8.952-26.855 36.305-87.032 51.224-107.92 35.31-48.24 29.84-103.941 60.674-121.844 12.93-7.46 22.877-4.971 30.834 2.986 34.315 33.321 41.278 166.604 126.32 111.898 105.93-68.133 94.492-172.075 156.16-204.898 50.727-27.353 49.733 49.232 115.877 36.799 4.476-.995 9.449-2.486 14.92-3.978 1.492-.497 3.481-.991 4.973-1.986l1.492-.996c40.283-22.379 63.16-69.127 78.577-118.362 22.877-70.62 31.331-147.708 58.187-169.59 46.251-32.824 36.304 75.593 82.058 104.438 8.952 5.47 19.893 7.958 33.818 5.969 5.471-.498 11.936-2.487 18.401-4.974 2.487-.994 4.974-1.987 7.46-2.982 12.931-5.968 21.883-8.952 29.84-10.942z" fill="url(#paint2_linear)"/></g><defs><linearGradient id="paint0_linear" x1="146.208" y1="459.021" x2="1051.25" y2="88.238" gradientUnits="userSpaceOnUse"><stop stop-color="#00C1F8"/><stop offset="1" stop-color="#0274EE"/></linearGradient><linearGradient id="paint1_linear" x1="855.272" y1="180.41" x2="189.515" y2="581.659" gradientUnits="userSpaceOnUse"><stop stop-color="#7AF6B0"/><stop offset=".997" stop-color="#3CDBE1"/></linearGradient><linearGradient id="paint2_linear" x1="88.794" y1="437.312" x2="959.477" y2="437.312" gradientUnits="userSpaceOnUse"><stop stop-color="#7AF6B0"/><stop offset=".997" stop-color="#3CDBE1"/></linearGradient><clipPath id="clip0"><rect width="865" height="463" rx="100" fill="#fff"/></clipPath></defs></svg>