<svg width="146" height="145" fill="none" xmlns="http://www.w3.org/2000/svg"><path d="M65.628 130.79c28.467-7.07 58.251-35.615 66.159-63.636 3.953-14.142 1.845-25.402-4.745-32.211l-7.116-7.071.263 2.619c-6.589-3.143-15.287-3.666-25.567-1.048-28.466 7.071-58.25 35.616-66.158 63.637-2.9 9.689-2.636 18.07 0 24.617l-2.372.261 7.116 7.333.264.262c7.116 6.285 18.187 8.642 32.156 5.237z" fill="#4A6BAD"/><path d="M99.203 99.67c25.845-24.835 35.065-57.02 20.594-71.886-14.472-14.866-47.155-6.785-73 18.05-25.845 24.836-35.065 57.021-20.594 71.887 14.472 14.867 47.155 6.785 73-18.05z" fill="url(#paint0_linear)"/><path d="M49.286 119.792c-7.38 0-13.706-2.357-18.187-6.809-6.325-6.547-7.907-16.76-4.48-29.069 7.38-25.14 34.001-50.543 59.305-56.828 12.388-3.142 22.668-1.309 29.257 5.238 6.326 6.547 7.907 16.76 4.481 29.069-7.117 24.878-33.738 50.542-59.042 56.827-4.217 1.048-7.907 1.572-11.334 1.572zm47.708-92.706c-3.426 0-6.853.524-10.807 1.31-25.04 6.285-51.134 31.163-58.25 55.78-3.427 11.785-1.846 21.736 3.953 27.759 6.063 6.285 15.815 7.857 27.94 4.976 25.04-6.285 51.134-31.164 58.25-55.78 3.427-11.785 1.846-21.736-3.953-27.76-4.217-4.19-10.016-6.285-17.133-6.285z" fill="#C5F3FF"/><defs><linearGradient id="paint0_linear" x1="99.202" y1="99.67" x2="47.147" y2="45.498" gradientUnits="userSpaceOnUse"><stop stop-color="#40A4FF"/><stop offset="1" stop-color="#311996"/></linearGradient></defs></svg>