<svg width="1029" height="650" fill="none" xmlns="http://www.w3.org/2000/svg"><g clip-path="url(#clip0)"><g opacity=".15"><g opacity=".15"><path opacity=".15" d="M585.221 647.918l4.819-.741c.371-.371 1.112-.742 1.854-1.112l385.529-222.474c10.009-5.933 27.427-5.191 38.927 1.483l225.01 129.776c2.97 1.854 5.19 3.708 7.05 5.933l2.59-.742v7.787c0 3.708-2.22 7.045-6.67 9.64L858.798 799.942c-10.008 5.933-27.431 5.191-38.923-1.483L594.859 668.683c-6.302-3.708-9.638-8.528-9.638-12.978v-7.787z" fill="#9FFFF8"/><path opacity=".15" d="M858.428 792.156l385.532-222.474c10.01-5.933 8.52-15.944-2.97-22.618l-225.01-129.777c-11.5-6.674-28.919-7.415-38.928-1.483L591.523 638.278c-10.009 5.933-8.526 15.944 2.966 22.618l225.015 129.777c11.492 6.303 28.915 7.044 38.924 1.483z" fill="#42E8E0"/></g><path opacity=".15" d="M1030.06 644.581l47.45-27.438c4.45-2.596 3.71-7.045-1.11-10.011-5.19-2.967-12.97-3.337-17.42-.742l-47.45 27.439c-4.45 2.595-3.71 7.045 1.11 10.011 5.19 2.966 12.97 3.337 17.42.741z" fill="#fff"/></g><path opacity=".4" d="M867.324 757.672L1193.91 568.94c8.53-4.82 7.42-13.348-2.22-18.91l-190.54-110.125c-9.641-5.561-24.469-6.303-32.995-1.483L641.568 627.154c-8.526 4.82-7.414 13.349 2.224 18.91l190.54 110.125c10.009 5.562 24.466 6.303 32.992 1.483z" fill="#24126A"/><path d="M585.221 490.333l4.819-.742c.371-.37 1.112-.741 1.854-1.112l385.529-222.474c10.009-5.932 27.427-5.191 38.927 1.483l225.01 129.777c2.97 1.854 5.19 3.708 7.05 5.932l2.59-.741v7.786c0 3.708-2.22 7.045-6.67 9.641L858.798 642.357c-10.009 5.932-27.432 5.191-38.923-1.484L594.859 511.097c-6.302-3.708-9.638-8.528-9.638-12.978v-7.786z" fill="#9FFFF8"/><path d="M858.427 634.57l385.533-222.474c10.01-5.932 8.52-15.944-2.97-22.618l-225.01-129.776c-11.5-6.674-28.919-7.416-38.928-1.483L591.523 480.692c-10.009 5.933-8.526 15.944 2.965 22.619l225.016 129.776c11.491 6.674 28.914 7.416 38.923 1.483z" fill="#42E8E0"/><path d="M858.427 634.57l385.533-222.474c10.01-5.932 8.52-15.944-2.97-22.618l-225.01-129.776c-11.5-6.674-28.919-7.416-38.928-1.483L591.523 480.692c-10.009 5.933-8.526 15.944 2.965 22.619l225.016 129.776c11.491 6.674 28.914 7.416 38.923 1.483z" fill="url(#paint0_radial)"/><path opacity=".7" d="M796.15 619.738l421.49-243.608-44.86-25.585-421.485 243.238 44.855 25.955z" fill="#453C9E"/><path d="M1243.59 407.276L858.057 629.75c-10.009 5.932-27.432 5.191-38.924-1.483L594.118 498.49c-5.19-2.966-8.155-6.674-9.268-10.382-1.482 5.191 1.854 10.753 9.268 15.202l225.015 129.777c11.492 6.674 28.915 7.416 38.924 1.483l385.533-222.474c5.56-3.337 7.41-7.786 6.3-12.236-.74 2.967-2.6 5.562-6.3 7.416z" fill="#fff"/><path opacity=".8" d="M802.823 512.209l126.779-73.045-30.768-18.169-127.15 73.417 31.139 17.797z" fill="#fff"/><g opacity=".15"><path opacity=".15" d="M104.793 494.412l.37 34.854c0 .371.371 1.112.742 1.112l380.71 214.687c1.112.742 3.336.742 4.819-.37l61.536-36.338c.741-.371 1.112-.741 1.112-1.483l-.371-35.225-29.656 17.427-351.424-198.002c-1.112-.741-3.336-.741-4.819.371l-21.13 12.607-41.889-9.64z" fill="url(#paint1_linear)"/><path opacity=".15" d="M172.26 456.22l380.71 214.687c1.112.742 1.112 1.854-.371 2.967l-61.536 36.337c-1.483.742-3.707 1.113-4.819.371l-380.71-215.058c-1.112-.742-1.112-1.854.371-2.966l61.536-36.338c1.112-.741 3.336-.741 4.819 0z" fill="url(#paint2_linear)"/></g><g opacity=".2"><path opacity=".2" d="M507.374 245.983c-3.336-41.158-36.699-88.99-74.14-106.417-18.906-8.899-34.846-8.528-45.967-.742l-11.492 8.158h3.707c-5.931 8.528-8.526 20.393-7.414 35.225 3.707 41.157 36.7 88.989 74.14 106.416 12.975 5.933 24.467 7.787 34.105 5.562v3.337l11.862-8.157.371-.371c10.75-7.786 16.311-22.618 14.828-43.011z" fill="#9FFFF8"/><path opacity=".2" d="M480.137 297.78c24.016-16.75 20.036-63.965-8.89-105.456-28.925-41.492-71.842-61.549-95.858-44.798-24.016 16.75-20.036 63.964 8.89 105.456 28.925 41.492 71.842 61.548 95.858 44.798z" fill="#42E8E0"/><path opacity=".2" d="M456.588 295.298c-7.043 0-15.199-1.854-23.354-5.933-33.363-15.573-63.019-58.214-65.985-94.922-1.483-17.798 3.336-31.888 14.087-39.304 10.379-7.416 25.207-7.045 41.518.371 33.363 15.573 63.019 58.214 65.985 94.922 1.483 17.798-3.336 31.888-14.087 39.304-5.19 3.708-11.491 5.562-18.164 5.562zm-57.459-143.496c-6.672 0-12.233 1.854-17.052 5.191-10.009 7.045-14.828 20.393-13.345 37.45 2.965 35.966 32.251 77.866 65.243 93.439 15.57 7.416 30.027 7.416 39.665.741 10.009-7.045 14.828-20.393 13.345-37.449-2.965-35.967-32.251-77.866-65.243-93.439-8.155-4.079-15.94-5.933-22.613-5.933z" fill="#18B2A3"/></g><path d="M104.051 460.299l.371 34.854c0 .371.371 1.112.741 1.112l380.71 214.688c1.112.741 3.337.741 4.819-.371l61.537-36.338c.741-.37 1.112-.741 1.112-1.483l-.371-35.225-29.656 17.427L171.89 456.962c-1.113-.742-3.337-.742-4.82.371l-21.13 12.606-41.889-9.64z" fill="url(#paint3_linear)"/><path d="M104.051 460.299l.371 34.854c0 .371.371 1.112.741 1.112l380.71 214.688c1.112.741 3.337.741 4.819-.371l61.537-36.338c.741-.37 1.112-.741 1.112-1.483l-.371-35.225-29.656 17.427L171.89 456.962c-1.113-.742-3.337-.742-4.82.371l-21.13 12.606-41.889-9.64z" fill="url(#paint4_radial)"/><path d="M171.519 422.108l380.709 214.687c1.112.741 1.112 1.854-.37 2.966l-61.537 36.338c-1.482.741-3.707 1.112-4.819.37L105.163 461.411c-1.112-.741-1.112-1.854.371-2.966l61.536-36.337c1.112-.742 3.336-.742 4.449 0z" fill="url(#paint5_linear)"/><path d="M552.229 636.795l-1.112-.742-60.795 35.967c-1.483.741-3.707 1.112-4.819.371L105.905 458.445l-.742.371c-1.482.741-1.482 2.225-.37 2.966l380.71 214.687c1.112.742 3.336.742 4.819-.37l61.536-36.338c1.483-1.112 1.483-2.225.371-2.966z" fill="#fff"/><path opacity=".6" d="M185.605 474.389l299.156 165.372c2.224-11.865 5.561-23.731 10.009-35.596L196.356 435.827c-4.819 12.977-8.526 25.955-10.751 38.562z" fill="#24126A"/><path d="M158.544 442.501l358.839 202.451c.741.371.741 1.483-.371 1.854l-15.569 9.27c-1.112.741-2.595.741-3.337 0L139.268 453.625c-.741-.371-.741-1.483.371-1.854l15.569-9.27c1.112-.742 2.595-.742 3.336 0z" fill="#24126A"/><path d="M139.639 453.625l7.414 4.078 8.155-4.82c1.112-.741 2.595-.741 3.336 0L510.34 651.256l7.043-4.079c1.112-.742 1.112-1.483.371-1.854L158.915 442.872c-.741-.371-2.224-.371-3.336 0l-15.57 9.27c-1.112 0-1.112.741-.37 1.483z" fill="#453C9E"/><path opacity=".7" d="M1056.75 82.094L758.338-86.245c.371 53.394-36.328 118.282-81.925 145.72L268.642 300.49c-53.751 31.887-97.123 108.641-96.382 170.934l298.414 168.338c-.741-62.663 42.631-139.046 96.383-170.934l407.771-241.013c45.962-27.068 82.662-92.327 81.922-145.72z" fill="url(#paint6_linear)"/><path d="M1056.75 82.094L758.338-86.245c.371 53.394-36.328 118.282-81.925 145.72L268.642 300.49c-53.751 31.887-97.123 108.641-96.382 170.934l298.414 168.338c-.741-62.663 42.631-139.046 96.383-170.934l407.771-241.013c45.962-27.068 82.662-92.327 81.922-145.72z" fill="url(#paint7_radial)"/><path opacity=".8" d="M171.89 471.793l298.414 168.339c0-2.596 0-5.562.371-8.158L172.26 463.636c-.37 2.596-.37 5.191-.37 8.157z" fill="#453C9E"/><path opacity=".8" d="M663.81 294.927l58.941 33-5.931 3.337-58.571-33 5.561-3.337zm-30.398-17.057l21.501 11.866-5.931 3.337-21.13-11.865 5.56-3.338zm-23.354-13.348l14.457 8.157-5.56 3.337-14.457-8.157 5.56-3.337zm93.417 37.82l31.88 18.169-5.561 3.337-31.88-18.168 5.561-3.338zm-48.562-27.067l39.294 21.876-5.56 3.338-39.295-21.877 5.561-3.337zm-23.354-13.349l14.457 8.158-5.56 3.337-14.458-8.157 5.561-3.338zm-22.242-12.606l14.457 8.157-5.56 3.337-14.458-8.157 5.561-3.337zm115.658 50.427l23.355 12.978-5.561 3.337-23.354-12.978 5.56-3.337zm-17.052-9.641l8.156 4.45-5.561 3.337-8.155-4.449 5.56-3.338zm-23.354-12.977l14.457 8.157-5.56 3.337-14.458-8.157 5.561-3.337zm-9.268-20.023l85.632 48.203-5.56 3.337-85.632-48.203 5.56-3.337zm-30.026-17.056l21.13 11.865-5.561 3.337-21.13-11.865 5.561-3.337zm105.279 44.495l23.354 13.348-5.561 3.337-23.354-13.348 5.561-3.337zm-54.493-30.405l45.596 25.584-5.561 3.337-45.596-25.955 5.561-2.966zm-23.354-13.349l14.457 8.158-5.561 3.337-14.457-8.157 5.561-3.338zm66.355 22.619l47.45 26.696-5.561 3.337-47.449-26.696 5.56-3.337zm-43.001-24.472l34.104 19.281-5.56 3.337-34.475-19.281 5.931-3.337zm-32.251-18.169l22.983 12.977-5.56 3.337-22.984-12.977 5.561-3.337zm119.736 52.652l15.94 9.27-5.56 3.337-15.94-9.27 5.56-3.337zm-30.397-17.056l21.5 12.236-5.931 3.337-21.13-12.236 5.561-3.337zm-43.002-24.102l34.105 19.281-5.561 3.337-34.104-19.281 5.56-3.337zm53.011 15.203l49.303 27.438-5.931 3.337-48.933-27.438 5.561-3.337zm-54.864-31.147l45.967 25.956-5.561 3.337-45.967-25.956 5.561-3.337zm-23.354-13.348l14.457 8.157-5.931 3.337-14.087-8.157 5.561-3.337zm-22.613-12.607l14.457 8.157-5.56 3.338-14.458-8.158 5.561-3.337zm133.452 60.439l29.286 16.685-5.561 3.337-29.285-16.685 5.56-3.337zm-251.335-23.36l-40.777-22.989-5.561 3.337 40.778 22.989 5.56-3.337zm4.078-12.236l-32.251-18.169-5.561 3.337 32.251 18.169 5.561-3.337zM552.6 202.6l-23.355-13.348-5.56 3.337 22.983 13.348 5.932-3.337zm23.354-1.854l-33.734-18.91-5.931 3.337 33.733 18.91 5.932-3.337zm2.224-13.348l-23.354-12.978-5.561 2.966 23.354 13.349 5.561-3.337zm18.906-4.079l-29.286-16.685-5.56 3.337 29.285 16.685 5.561-3.337zm-.371-15.202l-16.311-8.899-5.56 3.337 15.94 8.899 5.931-3.337zm27.802.741l-31.138-17.427-5.561 3.337 31.139 17.427 5.56-3.337zm11.121-8.157l-29.656-16.686-5.56 3.337 29.656 16.315 5.56-2.966zm138.643 77.866l12.603 7.045-5.931 3.337-12.233-7.045 5.561-3.337zm-37.07-20.765l28.173 15.944-5.931 3.338-28.174-15.944 5.932-3.338zm34.475-57.843l47.449 27.068-5.56 3.337-47.45-27.068 5.561-3.337zm-32.622-18.168l18.906 10.382-5.931 3.337-18.535-10.382 5.56-3.337zM539.996 367.972l58.941 33.001-5.56 3.337-58.942-33.001 5.561-3.337zm-30.027-17.056l21.13 11.865-5.561 3.337-21.13-11.865 5.561-3.337zm-23.354-12.978l14.457 7.787-5.56 3.337-14.458-8.157 5.561-2.967zm93.046 37.45l32.251 18.169-5.932 3.337-31.88-18.169 5.561-3.337zM531.47 348.32l39.294 22.248-5.561 3.337-39.294-22.247 5.561-3.338zm-23.355-13.348l14.458 8.157-5.932 3.337-14.086-8.157 5.56-3.337zm-22.242-12.607l14.458 8.158-5.931 3.337-14.087-8.158 5.56-3.337zm115.659 50.428l22.983 13.348-5.56 3.337-23.354-13.348 5.931-3.337zm-17.052-9.27l7.785 4.449-5.561 3.337-7.785-4.449 5.561-3.337zm-23.354-13.349l14.457 8.158-5.561 3.337-14.457-8.157 5.561-3.338zm-9.268-20.022l85.632 48.202-5.561 3.337-85.631-48.202 5.56-3.337zm-30.397-17.057l21.5 11.866-5.931 3.337-21.13-11.865 5.561-3.338zM420.63 300.489L379.853 277.5l-5.561 3.337 40.777 22.989 5.561-3.337zm4.078-12.236l-31.881-18.169-5.56 3.337 31.88 18.169 5.561-3.337zm4.077-12.607l-23.354-12.978-5.56 3.337 23.354 12.978 5.56-3.337zm23.355-1.854l-33.734-18.911-5.561 3.338 33.734 18.91 5.561-3.337z" fill="#fff"/><g opacity=".1"><path opacity=".1" d="M1074.18 438.051c0-41.528-28.92-91.585-64.88-112.349-17.791-10.382-34.102-11.494-45.964-4.449l-12.233 7.045 3.707.37c-6.302 7.787-10.38 19.652-10.38 34.484 0 41.528 28.915 91.585 64.87 112.349 12.24 7.045 23.73 9.641 33.74 8.528l-.37 3.337 12.6-7.415.37-.371c11.49-6.674 18.54-21.135 18.54-41.529z" fill="#4A6BAD"/><path opacity=".1" d="M1042.52 487.398c25.36-14.642 25.41-62.021.13-105.824-25.29-43.803-66.336-67.443-91.69-52.801-25.354 14.642-25.41 62.021-.125 105.824 25.284 43.803 66.335 67.443 91.685 52.801z" fill="#49C8FF"/></g><path opacity=".4" d="M1001.15 505.535c-44.857 0-89.341-10.011-123.446-29.663-32.992-19.281-51.157-44.495-51.157-71.562 0-27.068 18.165-52.652 51.157-71.563 68.209-39.303 179.046-39.303 246.886 0 32.99 19.281 51.16 44.495 51.16 71.563 0 27.067-18.17 52.652-51.16 71.562-34.1 20.023-78.96 29.663-123.44 29.663zm0-200.968c-44.487 0-88.971 9.641-122.705 29.293-32.621 18.91-50.786 43.753-50.786 70.45 0 26.696 18.165 51.539 50.786 70.45 67.839 38.933 177.935 38.933 245.775 0l.37.741-.37-.741c32.62-18.911 50.79-43.754 50.79-70.45 0-26.697-18.17-51.54-50.79-70.45-34.1-19.652-78.59-29.293-123.07-29.293z" fill="#49C8FF"/><path opacity=".2" d="M1001.15 532.603c-56.72 0-113.437-12.607-156.809-37.45-41.889-24.101-65.243-56.36-65.243-90.843 0-34.484 22.983-66.743 65.243-90.844 86.373-50.056 226.869-50.056 313.239 0 41.89 24.101 65.25 56.36 65.25 90.844 0 34.483-22.99 66.742-65.25 90.843-43 25.214-99.72 37.45-156.43 37.45zm0-255.103c-56.349 0-113.066 12.236-156.068 37.449-41.518 24.102-64.502 55.989-64.502 89.731s22.984 65.63 64.502 89.731c86.003 49.686 226.128 49.686 312.128 0 41.52-24.101 64.5-55.989 64.5-89.731s-22.98-65.629-64.5-89.731c-43-25.213-99.72-37.449-156.06-37.449z" fill="#49C8FF"/><path d="M1001.15 484.4c-35.219 0-70.436-7.786-97.497-23.36-25.949-15.202-40.406-35.225-40.406-56.73 0-21.506 14.457-41.529 40.406-56.731 53.752-31.147 140.867-31.147 194.617 0 25.95 15.202 40.41 35.225 40.41 56.731 0 21.505-14.46 41.528-40.41 56.73-26.69 15.574-61.91 23.36-97.12 23.36zm0-158.698c-34.848 0-70.065 7.787-96.756 22.989-25.578 14.832-40.035 34.484-40.035 55.619 0 20.764 14.086 40.786 40.035 55.618 53.381 30.776 140.126 30.776 193.506 0 25.58-14.832 40.04-34.483 40.04-55.618 0-20.765-14.09-40.787-40.04-55.619-26.69-15.202-61.91-22.989-96.75-22.989z" fill="#49C8FF"/><path d="M1074.18 438.051c0-41.528-28.92-91.585-64.88-112.349-17.791-10.382-34.102-11.494-45.964-4.449l-12.233 7.045 3.707.37c-6.302 7.787-10.38 19.652-10.38 34.484 0 41.528 28.915 91.585 64.87 112.349 12.24 7.045 23.73 9.641 33.74 8.528l-.37 3.337 12.6-7.415.37-.371c11.49-6.674 18.54-21.135 18.54-41.529z" fill="#4A6BAD"/><path d="M1042.52 487.398c25.36-14.642 25.41-62.021.13-105.824-25.29-43.803-66.336-67.443-91.69-52.801-25.354 14.642-25.41 62.021-.125 105.824 25.284 43.803 66.335 67.443 91.685 52.801z" fill="#49C8FF"/><path d="M1023.02 484.4c-8.16 0-17.05-2.595-26.692-8.157-32.621-18.911-58.941-64.518-58.941-101.967 0-18.54 6.302-31.888 17.423-38.563 11.492-6.674 26.32-5.191 42.26 4.079 32.62 18.91 58.94 64.518 58.94 101.967 0 18.169-6.3 31.888-17.42 38.562-4.82 2.596-10.01 4.079-15.57 4.079zm-52.27-150.911c-5.56 0-10.38 1.112-14.828 3.708-10.75 6.303-16.682 19.281-16.682 37.079 0 36.708 25.949 81.944 57.83 100.484 15.2 8.899 29.66 10.382 40.41 4.078 10.75-6.303 16.68-19.281 16.68-37.079 0-36.708-25.95-81.944-57.832-100.484-8.896-5.191-17.793-7.786-25.578-7.786z" fill="#C5F3FF"/><g opacity=".2"><path opacity=".2" d="M309.049 725.043c0-41.529-28.915-91.585-64.873-112.35-17.793-10.382-34.104-11.494-45.967-4.449l-12.233 7.045 3.707.371c-6.302 7.786-10.379 19.652-10.379 34.483 0 41.529 28.914 91.585 64.872 112.349 12.233 7.045 23.725 9.641 33.734 8.529l-.371 3.337 12.604-7.416.371-.371c11.492-7.045 18.535-21.135 18.535-41.528z" fill="#9FFFF8"/><path opacity=".2" d="M277.593 773.883c25.353-14.642 25.409-62.021.125-105.824s-66.335-67.443-91.688-52.801c-25.354 14.642-25.41 62.021-.126 105.824 25.285 43.803 66.335 67.443 91.689 52.801z" fill="#42E8E0"/><path opacity=".2" d="M256.78 768.425c-7.785 0-16.682-2.596-25.578-7.787-31.139-18.168-56.718-61.921-56.718-97.888 0-17.798 5.932-30.776 17.053-37.079 10.75-6.303 25.207-4.82 40.777 4.079 31.139 18.168 56.717 61.922 56.717 97.888 0 17.798-5.931 30.776-17.052 37.079-4.449 2.225-9.639 3.708-15.199 3.708zm-50.045-145.35c-5.189 0-10.009 1.113-14.086 3.708-10.38 5.933-15.94 18.54-15.94 35.596 0 35.596 24.837 78.608 55.605 96.405 14.828 8.529 28.544 10.012 38.923 4.079 10.38-5.932 15.94-18.539 15.94-35.596 0-35.595-24.837-78.607-55.605-96.405-8.896-5.191-17.423-7.787-24.837-7.787z" fill="#18B2A3"/></g></g><defs><linearGradient id="paint1_linear" x1="569.465" y1="611.705" x2="157.239" y2="622.768" gradientUnits="userSpaceOnUse"><stop stop-color="#5761D7"/><stop offset=".04" stop-color="#5C66D9"/><stop offset=".087" stop-color="#6A73DF"/><stop offset=".137" stop-color="#8289E8"/><stop offset=".19" stop-color="#A3A7F5"/><stop offset=".224" stop-color="#BCBEFF"/></linearGradient><linearGradient id="paint2_linear" x1="445.453" y1="399.215" x2="288.891" y2="646.572" gradientUnits="userSpaceOnUse"><stop stop-color="#C0BFF6"/><stop offset=".294" stop-color="#C5C4F7"/><stop offset=".64" stop-color="#D3D2F9"/><stop offset="1" stop-color="#E9E9FD"/></linearGradient><linearGradient id="paint3_linear" x1="569.001" y1="577.716" x2="156.776" y2="588.779" gradientUnits="userSpaceOnUse"><stop stop-color="#5761D7"/><stop offset=".04" stop-color="#5C66D9"/><stop offset=".087" stop-color="#6A73DF"/><stop offset=".137" stop-color="#8289E8"/><stop offset=".19" stop-color="#A3A7F5"/><stop offset=".224" stop-color="#BCBEFF"/></linearGradient><linearGradient id="paint5_linear" x1="444.989" y1="365.225" x2="288.428" y2="612.583" gradientUnits="userSpaceOnUse"><stop stop-color="#C0BFF6"/><stop offset=".294" stop-color="#C5C4F7"/><stop offset=".64" stop-color="#D3D2F9"/><stop offset="1" stop-color="#E9E9FD"/></linearGradient><linearGradient id="paint6_linear" x1="818.803" y1="-81.19" x2="394.111" y2="654.883" gradientUnits="userSpaceOnUse"><stop stop-color="#C0BFF6"/><stop offset=".117" stop-color="#D0CFF9"/><stop offset=".263" stop-color="#E9E9FD"/><stop offset=".514" stop-color="#C0BFF6"/><stop offset=".622" stop-color="#D0CFF9"/><stop offset=".755" stop-color="#E9E9FD"/><stop offset="1" stop-color="#C0BFF6"/></linearGradient><radialGradient id="paint0_radial" cx="0" cy="0" r="1" gradientUnits="userSpaceOnUse" gradientTransform="matrix(1041.72 0 0 1041.96 1042.56 335.213)"><stop stop-color="#42E8E0"/><stop offset=".017" stop-color="#43E0DE"/><stop offset=".112" stop-color="#47BAD1"/><stop offset=".214" stop-color="#4B9AC7"/><stop offset=".324" stop-color="#4E7FBE"/><stop offset=".443" stop-color="#506BB7"/><stop offset=".578" stop-color="#525CB3"/><stop offset=".739" stop-color="#5354B0"/><stop offset="1" stop-color="#5351AF"/></radialGradient><radialGradient id="paint4_radial" cx="0" cy="0" r="1" gradientUnits="userSpaceOnUse" gradientTransform="rotate(-120.577 488.488 201.139) scale(332.699 332.661)"><stop stop-color="#42E8E0"/><stop offset=".017" stop-color="#43E0DE"/><stop offset=".112" stop-color="#47BAD1"/><stop offset=".214" stop-color="#4B9AC7"/><stop offset=".324" stop-color="#4E7FBE"/><stop offset=".443" stop-color="#506BB7"/><stop offset=".578" stop-color="#525CB3"/><stop offset=".739" stop-color="#5354B0"/><stop offset="1" stop-color="#5351AF"/></radialGradient><radialGradient id="paint7_radial" cx="0" cy="0" r="1" gradientUnits="userSpaceOnUse" gradientTransform="matrix(-441.15122 -746.62985 746.54376 -441.10035 1032.03 262.158)"><stop stop-color="#42E8E0"/><stop offset=".017" stop-color="#43E0DE"/><stop offset=".112" stop-color="#47BAD1"/><stop offset=".214" stop-color="#4B9AC7"/><stop offset=".324" stop-color="#4E7FBE"/><stop offset=".443" stop-color="#506BB7"/><stop offset=".578" stop-color="#525CB3"/><stop offset=".739" stop-color="#5354B0"/><stop offset="1" stop-color="#5351AF"/></radialGradient><clipPath id="clip0"><rect width="1029" height="650" rx="100" fill="#fff"/></clipPath></defs></svg>