<svg width="375" height="300" fill="none" xmlns="http://www.w3.org/2000/svg"><g clip-path="url(#clip0)"><g opacity=".15"><g opacity=".15"><path opacity=".15" d="M184.122 307.129l2.018-.31c.155-.156.466-.311.776-.466l161.48-93.097c4.193-2.482 11.49-2.172 16.304.621l94.248 54.306c1.242.776 2.174 1.552 2.95 2.483l1.087-.31v3.258c0 1.552-.931 2.948-2.795 4.034l-161.48 93.097c-4.192 2.483-11.49 2.172-16.303-.621l-94.248-54.306c-2.64-1.552-4.037-3.569-4.037-5.431v-3.258z" fill="#9FFFF8"/><path opacity=".15" d="M298.555 367.487l161.48-93.097c4.193-2.483 3.571-6.672-1.242-9.465l-94.248-54.306c-4.814-2.793-12.111-3.104-16.304-.621l-161.48 93.097c-4.192 2.482-3.571 6.672 1.242 9.465l94.249 54.306c4.813 2.638 12.111 2.948 16.303.621z" fill="#42E8E0"/></g><path opacity=".15" d="M370.445 305.733l19.875-11.482c1.863-1.087 1.552-2.948-.466-4.19-2.174-1.241-5.435-1.396-7.298-.31l-19.874 11.482c-1.864 1.086-1.553 2.948.465 4.189 2.174 1.241 5.435 1.397 7.298.311z" fill="#fff"/></g><path opacity=".4" d="M302.282 353.057l136.792-78.977c3.571-2.018 3.105-5.586-.932-7.914l-79.808-46.082c-4.037-2.328-10.248-2.638-13.819-.621L207.723 298.44c-3.572 2.017-3.106 5.586.931 7.913l79.809 46.083c4.192 2.327 10.247 2.638 13.819.621z" fill="#24126A"/><path d="M184.122 241.185l2.018-.31c.156-.155.466-.31.777-.465l161.48-93.097c4.192-2.483 11.49-2.172 16.303.621l94.248 54.306c1.243.776 2.174 1.552 2.951 2.483l1.086-.311v3.259c0 1.551-.931 2.948-2.794 4.034l-161.48 93.097c-4.193 2.482-11.49 2.172-16.304-.621l-94.248-54.307c-2.64-1.551-4.037-3.568-4.037-5.43v-3.259z" fill="#9FFFF8"/><path d="M298.555 301.543l161.48-93.097c4.192-2.482 3.571-6.671-1.242-9.464l-94.248-54.307c-4.814-2.793-12.111-3.103-16.304-.62l-161.48 93.096c-4.192 2.483-3.571 6.672 1.242 9.465l94.249 54.307c4.813 2.792 12.111 3.103 16.303.62z" fill="#42E8E0"/><path d="M298.555 301.543l161.48-93.097c4.192-2.482 3.571-6.671-1.242-9.464l-94.248-54.307c-4.814-2.793-12.111-3.103-16.304-.62l-161.48 93.096c-4.192 2.483-3.571 6.672 1.242 9.465l94.249 54.307c4.813 2.792 12.111 3.103 16.303.62z" fill="url(#paint0_radial)"/><path opacity=".7" d="M272.47 295.337l176.541-101.941-18.788-10.706-176.541 101.785 18.788 10.862z" fill="#453C9E"/><path d="M459.88 206.429L298.4 299.526c-4.192 2.483-11.49 2.172-16.303-.621l-94.249-54.306c-2.174-1.241-3.416-2.793-3.882-4.345-.621 2.173.777 4.5 3.882 6.362l94.249 54.306c4.813 2.793 12.111 3.104 16.303.621l161.48-93.097c2.329-1.396 3.105-3.258 2.64-5.12-.311 1.241-1.087 2.328-2.64 3.103z" fill="#fff"/><path opacity=".8" d="M275.265 250.34l53.102-30.567-12.888-7.603-53.257 30.722 13.043 7.448z" fill="#fff"/><g opacity=".15"><path opacity=".15" d="M-17.107 242.892l.155 14.585c0 .156.155.466.31.466l159.462 89.838c.466.31 1.398.31 2.019-.155l25.774-15.206c.311-.155.466-.31.466-.62l-.155-14.741-12.422 7.293-147.195-82.856c-.466-.311-1.397-.311-2.018.155l-8.85 5.275-17.546-4.034z" fill="url(#paint1_linear)"/><path opacity=".15" d="M11.152 226.911l159.461 89.838c.466.31.466.776-.155 1.241l-25.775 15.206c-.621.31-1.552.466-2.018.155l-159.462-89.993c-.465-.311-.465-.776.156-1.242l25.774-15.205c.466-.311 1.398-.311 2.019 0z" fill="url(#paint2_linear)"/></g><g opacity=".2"><path opacity=".2" d="M151.515 138.934c-1.397-17.223-15.371-37.238-31.054-44.531-7.918-3.724-14.595-3.569-19.253-.31l-4.813 3.413h1.552c-2.484 3.569-3.57 8.534-3.105 14.741 1.553 17.222 15.372 37.238 31.054 44.531 5.434 2.482 10.248 3.258 14.285 2.327v1.397l4.968-3.414.155-.155c4.503-3.258 6.832-9.465 6.211-17.999z" fill="#9FFFF8"/><path opacity=".2" d="M140.107 160.61c10.059-7.01 8.392-26.767-3.724-44.13-12.115-17.362-30.091-25.755-40.15-18.746-10.06 7.009-8.392 26.767 3.723 44.129 12.116 17.363 30.092 25.756 40.151 18.747z" fill="#42E8E0"/><path opacity=".2" d="M130.243 159.571c-2.95 0-6.366-.776-9.782-2.483-13.974-6.517-26.396-24.36-27.638-39.721-.62-7.448 1.398-13.344 5.9-16.447 4.348-3.103 10.559-2.948 17.391.155 13.974 6.517 26.395 24.36 27.638 39.721.621 7.448-1.398 13.344-5.901 16.447-2.173 1.552-4.813 2.328-7.608 2.328zm-24.067-60.048c-2.794 0-5.123.776-7.142 2.173-4.192 2.948-6.21 8.533-5.59 15.671 1.242 15.05 13.509 32.584 27.328 39.1 6.521 3.104 12.577 3.104 16.614.311 4.192-2.948 6.21-8.534 5.589-15.672-1.242-15.05-13.508-32.583-27.327-39.1-3.416-1.707-6.677-2.483-9.472-2.483z" fill="#18B2A3"/></g><path d="M-17.418 228.617l.155 14.586c0 .155.156.465.311.465l159.462 89.838c.465.311 1.397.311 2.018-.155l25.775-15.206c.31-.155.466-.31.466-.62l-.156-14.741-12.421 7.293-147.195-82.856c-.466-.31-1.398-.31-2.019.155l-8.85 5.276-17.546-4.035z" fill="url(#paint3_linear)"/><path d="M-17.418 228.617l.155 14.586c0 .155.156.465.311.465l159.462 89.838c.465.311 1.397.311 2.018-.155l25.775-15.206c.31-.155.466-.31.466-.62l-.156-14.741-12.421 7.293-147.195-82.856c-.466-.31-1.398-.31-2.019.155l-8.85 5.276-17.546-4.035z" fill="url(#paint4_radial)"/><path d="M10.841 212.636l159.462 89.838c.465.31.465.776-.156 1.241l-25.774 15.206c-.621.311-1.553.466-2.019.155l-159.306-89.993c-.466-.31-.466-.776.155-1.241l25.775-15.206c.466-.311 1.397-.311 1.863 0z" fill="url(#paint5_linear)"/><path d="M170.303 302.474l-.466-.31-25.464 15.05c-.621.311-1.553.466-2.019.156l-158.995-89.528-.31.155c-.622.31-.622.931-.156 1.241l159.461 89.838c.466.311 1.398.311 2.019-.155l25.775-15.206c.621-.465.621-.931.155-1.241z" fill="#fff"/><path opacity=".6" d="M16.741 234.513l125.303 69.202c.931-4.965 2.329-9.93 4.192-14.895L21.244 218.377c-2.018 5.43-3.57 10.861-4.503 16.136z" fill="#24126A"/><path d="M5.407 221.17l150.301 84.718c.31.155.31.62-.156.775l-6.521 3.879c-.466.311-1.087.311-1.397 0L-2.667 225.825c-.31-.156-.31-.621.155-.776l6.521-3.879c.466-.311 1.087-.311 1.398 0z" fill="#24126A"/><path d="M-2.512 225.825l3.106 1.706 3.415-2.017c.466-.31 1.087-.31 1.398 0l147.35 83.011 2.951-1.706c.465-.311.465-.621.155-.776l-150.3-84.718c-.311-.155-.932-.155-1.398 0l-6.522 3.879c-.465 0-.465.31-.155.621z" fill="#453C9E"/><path opacity=".7" d="M381.624 70.353L256.633-.09c.155 22.343-15.217 49.496-34.315 60.978L51.522 161.743c-22.514 13.344-40.68 45.462-40.37 71.529l124.992 70.443c-.311-26.222 17.856-58.185 40.37-71.529L347.31 131.331c19.253-11.326 34.625-38.635 34.314-60.978z" fill="url(#paint6_linear)"/><path d="M381.624 70.353L256.633-.09c.155 22.343-15.217 49.496-34.315 60.978L51.522 161.743c-22.514 13.344-40.68 45.462-40.37 71.529l124.992 70.443c-.311-26.222 17.856-58.185 40.37-71.529L347.31 131.331c19.253-11.326 34.625-38.635 34.314-60.978z" fill="url(#paint7_radial)"/><path opacity=".8" d="M10.997 233.427l124.991 70.444c0-1.087 0-2.328.156-3.414L11.152 230.014c-.155 1.086-.155 2.172-.155 3.413z" fill="#453C9E"/><path opacity=".8" d="M217.039 159.415l24.688 13.81-2.485 1.396-24.532-13.809 2.329-1.397zm-12.732-7.137l9.005 4.965-2.484 1.397-8.85-4.965 2.329-1.397zm-9.782-5.586l6.055 3.414-2.329 1.396-6.055-3.413 2.329-1.397zm39.128 15.827l13.353 7.603-2.329 1.396-13.353-7.603 2.329-1.396zm-20.341-11.327l16.459 9.154-2.329 1.397-16.459-9.155 2.329-1.396zm-9.782-5.586l6.056 3.414-2.329 1.396-6.056-3.413 2.329-1.397zm-9.316-5.275l6.056 3.413-2.329 1.397-6.056-3.414 2.329-1.396zm48.444 21.102l9.782 5.43-2.329 1.397-9.782-5.431 2.329-1.396zm-7.142-4.035l3.416 1.862-2.329 1.397-3.416-1.862 2.329-1.397zm-9.782-5.43l6.055 3.413-2.329 1.397-6.055-3.414 2.329-1.396zm-3.882-8.379l35.867 20.171-2.329 1.396-35.867-20.17 2.329-1.397zm-12.577-7.137l8.851 4.965-2.329 1.396-8.851-4.965 2.329-1.396zm44.097 18.619l9.782 5.586-2.329 1.396-9.782-5.586 2.329-1.396zm-22.825-12.723l19.098 10.706-2.329 1.396-19.098-10.861 2.329-1.241zm-9.782-5.586l6.056 3.414-2.329 1.396-6.056-3.414 2.329-1.396zm27.794 9.465l19.874 11.171-2.329 1.397-19.875-11.172 2.33-1.396zm-18.012-10.241l14.285 8.069-2.329 1.396-14.44-8.068 2.484-1.397zm-13.508-7.603l9.627 5.431-2.329 1.396-9.627-5.43 2.329-1.397zm50.152 22.033l6.676 3.879-2.329 1.397-6.676-3.879 2.329-1.397zm-12.732-7.137l9.005 5.12-2.484 1.396-8.85-5.12 2.329-1.396zm-18.011-10.086l14.284 8.069-2.329 1.396-14.284-8.068 2.329-1.397zm22.203 6.362l20.651 11.482-2.484 1.396-20.496-11.482 2.329-1.396zm-22.98-13.034l19.254 10.862-2.329 1.396-19.254-10.861 2.329-1.397zm-9.782-5.585l6.056 3.413-2.484 1.396-5.901-3.413 2.329-1.396zm-9.471-5.276l6.055 3.414-2.329 1.396-6.055-3.414 2.329-1.396zm55.897 25.291l12.266 6.983-2.329 1.396-12.266-6.982 2.329-1.397zm-105.273-9.775l-17.079-9.62-2.329 1.397 17.079 9.62 2.329-1.397zm1.708-5.12l-13.508-7.603-2.329 1.396 13.508 7.603 2.329-1.396zm1.708-5.276l-9.782-5.585-2.329 1.396 9.627 5.586 2.484-1.397zm9.782-.775l-14.129-7.914-2.485 1.397 14.13 7.913 2.484-1.396zm.932-5.586l-9.782-5.431-2.329 1.241 9.782 5.586 2.329-1.396zm7.918-1.707l-12.266-6.982-2.329 1.396 12.266 6.982 2.329-1.396zm-.155-6.362l-6.832-3.723-2.329 1.396 6.677 3.724 2.484-1.397zm11.645.311l-13.042-7.293-2.329 1.397 13.042 7.292 2.329-1.396zm4.658-3.414l-12.421-6.982-2.329 1.396 12.421 6.827 2.329-1.241zm58.071 32.584l5.279 2.948-2.484 1.397-5.124-2.949 2.329-1.396zm-15.527-8.689l11.801 6.672-2.485 1.396-11.8-6.672 2.484-1.396zm14.44-24.205l19.875 11.327-2.329 1.396-19.875-11.327 2.329-1.396zm-13.663-7.603l7.918 4.344-2.484 1.397-7.764-4.345 2.33-1.396zm-83.38 94.648l24.688 13.81-2.329 1.396-24.688-13.809 2.329-1.397zm-12.577-7.137l8.851 4.965-2.329 1.396-8.851-4.965 2.329-1.396zm-9.782-5.431l6.056 3.259-2.329 1.396-6.056-3.414 2.329-1.241zm38.973 15.671l13.508 7.603-2.484 1.397-13.353-7.603 2.329-1.397zm-20.185-11.326l16.458 9.309-2.329 1.397-16.458-9.31 2.329-1.396zm-9.782-5.586l6.055 3.413-2.484 1.397-5.9-3.414 2.329-1.396zm-9.316-5.276l6.055 3.414-2.484 1.396-5.9-3.413 2.329-1.397zm48.444 21.102l9.627 5.586-2.33 1.397-9.782-5.586 2.485-1.397zm-7.143-3.879l3.261 1.862-2.329 1.397-3.261-1.862 2.329-1.397zm-9.782-5.585l6.056 3.413-2.329 1.397-6.056-3.414 2.329-1.396zm-3.881-8.379l35.867 20.171-2.329 1.396-35.867-20.171 2.329-1.396zm-12.732-7.138l9.005 4.966-2.484 1.396-8.85-4.965 2.329-1.397zm-42.234-5.275l-17.08-9.62-2.328 1.396 17.079 9.62 2.329-1.396zm1.708-5.12l-13.353-7.603-2.329 1.396 13.353 7.603 2.329-1.396zm1.708-5.276l-9.782-5.431-2.329 1.397 9.782 5.431 2.329-1.397zm9.782-.776l-14.129-7.913-2.329 1.397 14.129 7.913 2.329-1.397z" fill="#fff"/><g opacity=".1"><path opacity=".1" d="M388.922 219.308c0-17.378-12.111-38.325-27.172-47.014-7.453-4.345-14.285-4.81-19.254-1.862l-5.124 2.948 1.553.155c-2.639 3.258-4.347 8.224-4.347 14.43 0 17.378 12.111 38.325 27.172 47.014 5.124 2.948 9.937 4.034 14.129 3.569l-.155 1.396 5.279-3.103.155-.155c4.814-2.793 7.764-8.844 7.764-17.378z" fill="#4A6BAD"/><path opacity=".1" d="M375.664 239.957c10.62-6.127 10.643-25.953.053-44.283-10.591-18.33-27.785-28.222-38.404-22.095-10.62 6.127-10.643 25.953-.053 44.283 10.591 18.33 27.785 28.222 38.404 22.095z" fill="#49C8FF"/></g><path opacity=".4" d="M358.334 247.547c-18.788 0-37.42-4.189-51.705-12.413-13.819-8.068-21.427-18.619-21.427-29.946 0-11.327 7.608-22.033 21.427-29.946 28.57-16.447 74.995-16.447 103.41 0 13.819 8.068 21.427 18.619 21.427 29.946 0 11.327-7.608 22.033-21.427 29.946-14.285 8.379-33.073 12.413-51.705 12.413zm0-84.097c-18.632 0-37.265 4.034-51.394 12.257-13.664 7.914-21.272 18.309-21.272 29.481s7.608 21.567 21.272 29.481c28.414 16.292 74.529 16.292 102.943 0l.156.31-.156-.31c13.664-7.914 21.272-18.309 21.272-29.481s-7.608-21.567-21.272-29.481c-14.284-8.223-32.917-12.257-51.549-12.257z" fill="#49C8FF"/><path opacity=".2" d="M358.334 258.874c-23.756 0-47.512-5.276-65.679-15.672-17.545-10.085-27.327-23.584-27.327-38.014 0-14.43 9.626-27.929 27.327-38.014 36.178-20.947 95.025-20.947 131.203 0 17.545 10.085 27.327 23.584 27.327 38.014 0 14.43-9.627 27.929-27.327 38.014-18.012 10.551-41.768 15.672-65.524 15.672zm0-106.751c-23.601 0-47.357 5.12-65.368 15.671-17.391 10.086-27.017 23.429-27.017 37.549 0 14.12 9.626 27.464 27.017 37.549 36.022 20.792 94.714 20.792 130.736 0 17.391-10.085 27.017-23.429 27.017-37.549 0-14.12-9.626-27.463-27.017-37.549-18.011-10.551-41.767-15.671-65.368-15.671z" fill="#49C8FF"/><path d="M358.334 238.703c-14.751 0-29.501-3.259-40.836-9.775-10.869-6.362-16.924-14.741-16.924-23.74 0-8.999 6.055-17.378 16.924-23.74 22.514-13.033 59.002-13.033 81.516 0 10.869 6.362 16.925 14.741 16.925 23.74 0 8.999-6.056 17.378-16.925 23.74-11.179 6.516-25.93 9.775-40.68 9.775zm0-66.409c-14.595 0-29.346 3.258-40.525 9.62-10.714 6.206-16.769 14.43-16.769 23.274 0 8.689 5.9 17.068 16.769 23.274 22.358 12.879 58.691 12.879 81.05 0 10.714-6.206 16.769-14.43 16.769-23.274 0-8.689-5.9-17.068-16.769-23.274-11.179-6.362-25.93-9.62-40.525-9.62z" fill="#49C8FF"/><path d="M388.922 219.308c0-17.378-12.111-38.325-27.172-47.014-7.453-4.345-14.285-4.81-19.254-1.862l-5.124 2.948 1.553.155c-2.639 3.258-4.347 8.224-4.347 14.43 0 17.378 12.111 38.325 27.172 47.014 5.124 2.948 9.937 4.034 14.129 3.569l-.155 1.396 5.279-3.103.155-.155c4.814-2.793 7.764-8.844 7.764-17.378z" fill="#4A6BAD"/><path d="M375.664 239.957c10.62-6.127 10.643-25.953.053-44.283-10.591-18.33-27.785-28.222-38.404-22.095-10.62 6.127-10.643 25.953-.053 44.283 10.591 18.33 27.785 28.222 38.404 22.095z" fill="#49C8FF"/><path d="M367.495 238.703c-3.416 0-7.143-1.086-11.18-3.414-13.663-7.913-24.688-26.998-24.688-42.669 0-7.758 2.64-13.344 7.298-16.137 4.813-2.793 11.024-2.172 17.701 1.707 13.664 7.913 24.688 26.998 24.688 42.669 0 7.603-2.64 13.344-7.298 16.137-2.018 1.086-4.192 1.707-6.521 1.707zm-21.893-63.151c-2.329 0-4.348.466-6.211 1.552-4.503 2.638-6.987 8.068-6.987 15.516 0 15.361 10.869 34.291 24.222 42.049 6.366 3.723 12.421 4.344 16.924 1.706 4.503-2.637 6.987-8.068 6.987-15.516 0-15.361-10.869-34.29-24.222-42.048-3.726-2.173-7.453-3.259-10.713-3.259z" fill="#C5F3FF"/><g opacity=".2"><path opacity=".2" d="M68.446 339.402c0-17.378-12.11-38.324-27.172-47.013-7.453-4.345-14.285-4.81-19.253-1.862l-5.124 2.948 1.553.155c-2.64 3.258-4.348 8.223-4.348 14.43 0 17.378 12.111 38.325 27.172 47.014 5.124 2.948 9.937 4.034 14.13 3.568l-.156 1.397 5.28-3.103.155-.155c4.813-2.949 7.763-8.845 7.763-17.379z" fill="#9FFFF8"/><path opacity=".2" d="M55.27 359.84c10.62-6.127 10.644-25.953.053-44.283-10.59-18.33-27.784-28.222-38.404-22.095-10.62 6.127-10.643 25.953-.052 44.283 10.59 18.33 27.784 28.222 38.404 22.095z" fill="#42E8E0"/><path opacity=".2" d="M46.553 357.556c-3.26 0-6.987-1.086-10.713-3.258-13.043-7.603-23.757-25.912-23.757-40.963 0-7.447 2.485-12.878 7.143-15.516 4.503-2.637 10.558-2.017 17.08 1.707 13.042 7.603 23.756 25.912 23.756 40.963 0 7.447-2.485 12.878-7.143 15.516-1.863.931-4.037 1.551-6.366 1.551zm-20.961-60.823c-2.174 0-4.192.466-5.9 1.552-4.348 2.482-6.677 7.758-6.677 14.895 0 14.896 10.403 32.894 23.29 40.342 6.211 3.569 11.956 4.189 16.304 1.707 4.347-2.483 6.676-7.758 6.676-14.896 0-14.895-10.403-32.894-23.29-40.341-3.726-2.173-7.298-3.259-10.403-3.259z" fill="#18B2A3"/></g></g><defs><linearGradient id="paint1_linear" x1="177.522" y1="291.975" x2="4.86" y2="296.613" gradientUnits="userSpaceOnUse"><stop stop-color="#5761D7"/><stop offset=".04" stop-color="#5C66D9"/><stop offset=".087" stop-color="#6A73DF"/><stop offset=".137" stop-color="#8289E8"/><stop offset=".19" stop-color="#A3A7F5"/><stop offset=".224" stop-color="#BCBEFF"/></linearGradient><linearGradient id="paint2_linear" x1="125.579" y1="203.056" x2="60.091" y2="306.621" gradientUnits="userSpaceOnUse"><stop stop-color="#C0BFF6"/><stop offset=".294" stop-color="#C5C4F7"/><stop offset=".64" stop-color="#D3D2F9"/><stop offset="1" stop-color="#E9E9FD"/></linearGradient><linearGradient id="paint3_linear" x1="177.328" y1="277.752" x2="4.666" y2="282.39" gradientUnits="userSpaceOnUse"><stop stop-color="#5761D7"/><stop offset=".04" stop-color="#5C66D9"/><stop offset=".087" stop-color="#6A73DF"/><stop offset=".137" stop-color="#8289E8"/><stop offset=".19" stop-color="#A3A7F5"/><stop offset=".224" stop-color="#BCBEFF"/></linearGradient><linearGradient id="paint5_linear" x1="125.385" y1="188.833" x2="59.896" y2="292.398" gradientUnits="userSpaceOnUse"><stop stop-color="#C0BFF6"/><stop offset=".294" stop-color="#C5C4F7"/><stop offset=".64" stop-color="#D3D2F9"/><stop offset="1" stop-color="#E9E9FD"/></linearGradient><linearGradient id="paint6_linear" x1="281.959" y1="2.025" x2="104.324" y2="310.187" gradientUnits="userSpaceOnUse"><stop stop-color="#C0BFF6"/><stop offset=".117" stop-color="#D0CFF9"/><stop offset=".263" stop-color="#E9E9FD"/><stop offset=".514" stop-color="#C0BFF6"/><stop offset=".622" stop-color="#D0CFF9"/><stop offset=".755" stop-color="#E9E9FD"/><stop offset="1" stop-color="#C0BFF6"/></linearGradient><radialGradient id="paint0_radial" cx="0" cy="0" r="1" gradientUnits="userSpaceOnUse" gradientTransform="matrix(436.326 0 0 436.022 375.679 176.274)"><stop stop-color="#42E8E0"/><stop offset=".017" stop-color="#43E0DE"/><stop offset=".112" stop-color="#47BAD1"/><stop offset=".214" stop-color="#4B9AC7"/><stop offset=".324" stop-color="#4E7FBE"/><stop offset=".443" stop-color="#506BB7"/><stop offset=".578" stop-color="#525CB3"/><stop offset=".739" stop-color="#5354B0"/><stop offset="1" stop-color="#5351AF"/></radialGradient><radialGradient id="paint4_radial" cx="0" cy="0" r="1" gradientUnits="userSpaceOnUse" gradientTransform="matrix(-70.88916 -119.86225 119.90185 -70.91258 175.154 338.974)"><stop stop-color="#42E8E0"/><stop offset=".017" stop-color="#43E0DE"/><stop offset=".112" stop-color="#47BAD1"/><stop offset=".214" stop-color="#4B9AC7"/><stop offset=".324" stop-color="#4E7FBE"/><stop offset=".443" stop-color="#506BB7"/><stop offset=".578" stop-color="#525CB3"/><stop offset=".739" stop-color="#5354B0"/><stop offset="1" stop-color="#5351AF"/></radialGradient><radialGradient id="paint7_radial" cx="0" cy="0" r="1" gradientUnits="userSpaceOnUse" gradientTransform="matrix(-184.78036 -312.43408 312.53909 -184.84247 371.271 145.703)"><stop stop-color="#42E8E0"/><stop offset=".017" stop-color="#43E0DE"/><stop offset=".112" stop-color="#47BAD1"/><stop offset=".214" stop-color="#4B9AC7"/><stop offset=".324" stop-color="#4E7FBE"/><stop offset=".443" stop-color="#506BB7"/><stop offset=".578" stop-color="#525CB3"/><stop offset=".739" stop-color="#5354B0"/><stop offset="1" stop-color="#5351AF"/></radialGradient><clipPath id="clip0"><path fill="#fff" d="M0 0h375v300H0z"/></clipPath></defs></svg>