<svg width="21" height="20" fill="none" xmlns="http://www.w3.org/2000/svg"><g clip-path="url(#clip0)" fill="#000"><path d="M15.589 11.115c.083-.203.157-.41.22-.621h.902a.586.586 0 00.586-.586v-3.02a.586.586 0 00-.586-.585h-.901a7.166 7.166 0 00-.543-1.309l.638-.638a.586.586 0 000-.829l-2.136-2.135a.586.586 0 00-.828 0l-.639.638a7.161 7.161 0 00-1.308-.543V.586A.586.586 0 0010.408 0h-3.02a.586.586 0 00-.585.586v.901c-.453.137-.89.319-1.308.543l-.639-.638a.586.586 0 00-.828 0L1.892 3.527a.586.586 0 000 .829l.638.638a7.16 7.16 0 00-.543 1.309h-.901a.586.586 0 00-.586.586v3.019c0 .323.262.586.586.586h.901c.138.452.32.89.543 1.308l-.638.639a.586.586 0 000 .828l2.136 2.136c.228.228.6.228.828 0l.639-.639a7.16 7.16 0 001.308.543v.902c0 .323.262.586.586.586h3.02a.586.586 0 00.585-.586v-.902a7.29 7.29 0 00.622-.22 5.093 5.093 0 013.973-3.974zm-6.69 1.775a4.497 4.497 0 01-4.493-4.492A4.497 4.497 0 018.9 3.906a4.497 4.497 0 014.492 4.492A4.497 4.497 0 018.9 12.89z"/><path d="M16.594 12.187a3.906 3.906 0 100 7.813 3.906 3.906 0 000-7.813zm1.657 3.492l-1.657 1.658a.586.586 0 01-.829 0l-.829-.83a.586.586 0 01.83-.828l.414.414 1.242-1.242a.586.586 0 11.83.828z"/></g><defs><clipPath id="clip0"><path fill="#fff" transform="translate(.5)" d="M0 0h20v20H0z"/></clipPath></defs></svg>