<svg width="18" height="20" fill="none" xmlns="http://www.w3.org/2000/svg"><path d="M12.516 12.969h-.878a.541.541 0 01-.525-.41c-.052-.21.022-.485.162-.604 1.852-1.572 2.998-4.692 2.998-6.682A5.28 5.28 0 009 0a5.28 5.28 0 00-5.273 5.273c0 1.99 1.146 5.11 2.998 6.682.14.119.214.395.162.603a.541.541 0 01-.525.41h-.878a5.28 5.28 0 00-5.273 5.274v1.172c0 .324.262.586.586.586h16.406a.586.586 0 00.586-.586v-1.172a5.28 5.28 0 00-5.273-5.273zm4.101 5.86H1.383v-.587a4.106 4.106 0 014.101-4.101h.878c.787 0 1.471-.534 1.662-1.299.16-.642-.061-1.374-.54-1.78C5.96 9.769 4.898 6.973 4.898 5.273A4.113 4.113 0 019 1.164a4.113 4.113 0 014.102 4.11c0 1.7-1.062 4.495-2.586 5.788-.479.406-.7 1.138-.54 1.78a1.711 1.711 0 001.662 1.299h.878a4.106 4.106 0 014.101 4.101v.586z" fill="#99A0BA"/></svg>