<svg width="122" height="133" fill="none" xmlns="http://www.w3.org/2000/svg"><path d="M82.376 15.505L45.608 5.654C32.274 2.08 22.417 7.809 18.831 21.188L6.69 66.504c-3.644 13.6 2.076 23.313 15.412 26.886l36.766 9.852c13.55 3.631 23.141-1.981 26.785-15.58l12.142-45.316c3.585-13.38-1.868-23.21-15.418-26.84z" fill="url(#paint0_linear)"/><g opacity=".5" filter="url(#filter0_f)"><path d="M28.464 51.764v-26.84l42.05-4.473v35.786l-42.05-4.474z" fill="#FA452D"/></g><g filter="url(#filter1_b)"><path d="M111.093 61.748c0-18.495-11.212-29.388-30.186-29.388H31.19C12.212 32.36 1 43.253 1 61.748v40.282c0 18.494 11.212 29.431 30.19 29.431h49.737c18.973 0 30.185-10.937 30.185-29.431 0-18.495-.019-38.239-.019-40.282z" fill="#FFAC95" fill-opacity=".4"/><path d="M111.593 61.748c0-9.35-2.836-16.838-8.129-21.988-5.291-5.148-12.975-7.9-22.557-7.9H31.19c-9.583 0-17.269 2.752-22.56 7.9C3.336 44.91.5 52.398.5 61.748v40.282c0 9.349 2.836 16.848 8.13 22.009 5.29 5.159 12.976 7.922 22.56 7.922h49.737c9.582 0 17.266-2.763 22.557-7.922 5.292-5.161 8.128-12.66 8.128-22.009 0-9.248-.005-18.808-.009-26.311l-.007-9.433-.003-4.538z" stroke="url(#paint1_linear)" stroke-linecap="round" stroke-linejoin="round"/></g><g filter="url(#filter2_b)"><path d="M71.378 84.38c1.486 6.734 7.412 11.471 14.178 11.348h30.346c2.815 0 5.098-2.322 5.098-5.193v-17.92c-.006-2.864-2.283-5.193-5.098-5.2h-30.89c-7.696.025-13.912 6.389-13.9 14.23 0 .919.091 1.837.266 2.736z" fill="#FFAC95" fill-opacity=".4"/><path d="M70.887 84.477h0l.003.012c1.536 6.958 7.663 11.864 14.67 11.739h30.342c3.099 0 5.598-2.555 5.598-5.693V72.614c-.007-3.13-2.498-5.692-5.597-5.698H85.011c-7.98.025-14.41 6.621-14.399 14.73 0 .95.094 1.9.275 2.83z" stroke="url(#paint2_linear)" stroke-linecap="round" stroke-linejoin="round"/></g><g filter="url(#filter3_bd)"><circle cx="85.27" cy="81.573" r="6.067" fill="url(#paint3_linear)"/><circle cx="85.27" cy="81.573" r="5.967" stroke="url(#paint4_linear)" stroke-opacity=".5" stroke-width=".2"/></g><g filter="url(#filter4_bd)"><path d="M58.185 61.92H27.133c-2.324-.01-4.204-1.856-4.194-4.122.01-2.257 1.884-4.085 4.194-4.095h31.071c2.325-.009 4.224 1.823 4.234 4.09.01 2.271-1.87 4.118-4.194 4.127h-.06z" fill="url(#paint5_linear)"/><path d="M58.204 53.803h0c2.273-.009 4.124 1.781 4.134 3.99.01 2.214-1.823 4.018-4.095 4.027 0 0 0 0 0 0H27.134s0 0 0 0c-2.272-.01-4.104-1.813-4.095-4.022.01-2.2 1.837-3.985 4.094-3.995h31.071z" stroke="url(#paint6_linear)" stroke-opacity=".5" stroke-width=".2"/></g><defs><linearGradient id="paint0_linear" x1="56.475" y1="61.88" x2="-23.967" y2="74.095" gradientUnits="userSpaceOnUse"><stop stop-color="#FFA78F"/><stop offset="1" stop-color="#F23E2C"/></linearGradient><linearGradient id="paint1_linear" x1="18.528" y1="43.905" x2="80.034" y2="128.546" gradientUnits="userSpaceOnUse"><stop stop-color="#fff" stop-opacity=".25"/><stop offset="1" stop-color="#fff" stop-opacity="0"/></linearGradient><linearGradient id="paint2_linear" x1="79.054" y1="70.714" x2="93.049" y2="101.254" gradientUnits="userSpaceOnUse"><stop stop-color="#fff" stop-opacity=".25"/><stop offset="1" stop-color="#fff" stop-opacity="0"/></linearGradient><linearGradient id="paint3_linear" x1="90.477" y1="77.697" x2="76.96" y2="78.138" gradientUnits="userSpaceOnUse"><stop stop-color="#fff"/><stop offset="1" stop-color="#fff" stop-opacity=".2"/></linearGradient><linearGradient id="paint4_linear" x1="90.817" y1="81.83" x2="79.019" y2="82.321" gradientUnits="userSpaceOnUse"><stop stop-color="#fff"/><stop offset="1" stop-color="#fff" stop-opacity="0"/></linearGradient><linearGradient id="paint5_linear" x1="59.637" y1="55.187" x2="16.649" y2="61.925" gradientUnits="userSpaceOnUse"><stop stop-color="#fff"/><stop offset="1" stop-color="#fff" stop-opacity=".2"/></linearGradient><linearGradient id="paint6_linear" x1="60.745" y1="57.986" x2="23.761" y2="65.392" gradientUnits="userSpaceOnUse"><stop stop-color="#fff"/><stop offset="1" stop-color="#fff" stop-opacity="0"/></linearGradient><filter id="filter0_f" x="11.464" y="3.451" width="76.049" height="69.786" filterUnits="userSpaceOnUse" color-interpolation-filters="sRGB"><feFlood flood-opacity="0" result="BackgroundImageFix"/><feBlend in="SourceGraphic" in2="BackgroundImageFix" result="shape"/><feGaussianBlur stdDeviation="8.5" result="effect1_foregroundBlur"/></filter><filter id="filter1_b" x="-15" y="16.36" width="142.112" height="131.101" filterUnits="userSpaceOnUse" color-interpolation-filters="sRGB"><feFlood flood-opacity="0" result="BackgroundImageFix"/><feGaussianBlur in="BackgroundImage" stdDeviation="7.5"/><feComposite in2="SourceAlpha" operator="in" result="effect1_backgroundBlur"/><feBlend in="SourceGraphic" in2="effect1_backgroundBlur" result="shape"/></filter><filter id="filter2_b" x="55.112" y="51.416" width="81.888" height="60.315" filterUnits="userSpaceOnUse" color-interpolation-filters="sRGB"><feFlood flood-opacity="0" result="BackgroundImageFix"/><feGaussianBlur in="BackgroundImage" stdDeviation="7.5"/><feComposite in2="SourceAlpha" operator="in" result="effect1_backgroundBlur"/><feBlend in="SourceGraphic" in2="effect1_backgroundBlur" result="shape"/></filter><filter id="filter3_bd" x="64.202" y="60.506" width="42.135" height="42.135" filterUnits="userSpaceOnUse" color-interpolation-filters="sRGB"><feFlood flood-opacity="0" result="BackgroundImageFix"/><feGaussianBlur in="BackgroundImage" stdDeviation="7.5"/><feComposite in2="SourceAlpha" operator="in" result="effect1_backgroundBlur"/><feColorMatrix in="SourceAlpha" values="0 0 0 0 0 0 0 0 0 0 0 0 0 0 0 0 0 0 127 0" result="hardAlpha"/><feOffset dx="5" dy="5"/><feGaussianBlur stdDeviation="5"/><feColorMatrix values="0 0 0 0 1 0 0 0 0 0.447059 0 0 0 0 0.368627 0 0 0 0.5 0"/><feBlend in2="effect1_backgroundBlur" result="effect2_dropShadow"/><feBlend in="SourceGraphic" in2="effect2_dropShadow" result="shape"/></filter><filter id="filter4_bd" x="7.939" y="38.703" width="69.499" height="38.217" filterUnits="userSpaceOnUse" color-interpolation-filters="sRGB"><feFlood flood-opacity="0" result="BackgroundImageFix"/><feGaussianBlur in="BackgroundImage" stdDeviation="7.5"/><feComposite in2="SourceAlpha" operator="in" result="effect1_backgroundBlur"/><feColorMatrix in="SourceAlpha" values="0 0 0 0 0 0 0 0 0 0 0 0 0 0 0 0 0 0 127 0" result="hardAlpha"/><feOffset dx="5" dy="5"/><feGaussianBlur stdDeviation="5"/><feColorMatrix values="0 0 0 0 1 0 0 0 0 0.447059 0 0 0 0 0.368627 0 0 0 0.5 0"/><feBlend in2="effect1_backgroundBlur" result="effect2_dropShadow"/><feBlend in="SourceGraphic" in2="effect2_dropShadow" result="shape"/></filter></defs></svg>