<svg width="1920" height="459" fill="none" xmlns="http://www.w3.org/2000/svg"><path d="M2.12 278.067c110.312-14.692 102.958 72.584 248.202 85.316 145.245 12.733 185.693-76.397 251.881-101.863 66.187-25.466 95.604-141.511 205.917-133.675 110.312 7.836 165.468 86.347 257.396 96.142 91.924 9.795 110.314 74.752 196.724 122.746 86.41 47.993 165.47 53.87 273.94 44.075 108.48-9.794 137.89-108.823 189.37-112.741 51.48-3.918 97.45 43.306 141.57 54.08 44.13 10.774 57 58.661 150.76 58.661" stroke="#D0E1F1" stroke-width="4" stroke-linecap="round" stroke-linejoin="round"/><path stroke="#D0E1F1" d="M0 .5h1920M0 153.083h1920M0 305.666h1920M0 458.248h1920"/><path d="M0 415.422c84.356-12.977 153.723-92.115 254.375-105.417 53.647-7.09 96.623 6.709 144.573 28.15 47.951 21.44 38.564 30.699 146.404 47.228 88.992 13.64 112.27-133.424 199.474-127.774 87.203 5.651 127.536-171.166 219.604-156.406 92.07 14.76 110.46-23.402 197.01 48.922 86.54 72.324 166.5-96.258 275.14-111.018 108.64-14.76 136.94 141.9 188.49 135.996 51.56-5.904 97.98 105.726 142.18 121.962 44.19 16.236 56.72-42.744 150.63-42.744" stroke="#78DFFF" stroke-width="4" stroke-linecap="round" stroke-linejoin="round"/><path d="M254.375 310.005C153.723 323.307 84.356 402.445 0 415.423v32.009h1917.88V254.321c-93.91 0-106.44 58.98-150.63 42.744-44.2-16.236-90.62-127.866-142.18-121.962-51.55 5.904-79.85-150.756-188.49-135.996-108.64 14.76-188.6 183.342-275.14 111.018-86.55-72.324-104.94-34.162-197.01-48.922-92.068-14.76-132.401 162.057-219.604 156.406-87.204-5.65-110.482 141.414-199.474 127.774-107.84-16.529-98.453-25.788-146.404-47.228-47.95-21.441-90.926-35.24-144.573-28.15z" fill="url(#paint0_linear)"/><path stroke="#78DFFF" stroke-dasharray="4.4 4.4" d="M826.99 210.801v245.828"/><g filter="url(#filter0_dd)"><rect x="805.298" y="182.197" width="42.384" height="42.101" rx="21.05" fill="#78DFFF"/><rect x="807.298" y="184.197" width="38.384" height="38.101" rx="19.05" stroke="#fff" stroke-width="4"/></g><path stroke="#78DFFF" stroke-dasharray="4.4 4.4" d="M1210.57 191.728v267.02"/><g filter="url(#filter1_dd)"><rect x="1188.87" y="146.411" width="42.384" height="42.101" rx="21.05" fill="#78DFFF"/><rect x="1190.87" y="148.411" width="38.384" height="38.101" rx="19.05" stroke="#fff" stroke-width="4"/></g><path stroke="#78DFFF" stroke-dasharray="4.4 4.4" d="M1731.89 276.497v182.251"/><g filter="url(#filter2_dd)"><rect x="1710.2" y="247.453" width="42.384" height="42.101" rx="21.05" fill="#78DFFF"/><rect x="1712.2" y="249.453" width="38.384" height="38.101" rx="19.05" stroke="#fff" stroke-width="4"/></g><defs><filter id="filter0_dd" x="799.965" y="179.53" width="53.051" height="52.767" filterUnits="userSpaceOnUse" color-interpolation-filters="sRGB"><feFlood flood-opacity="0" result="BackgroundImageFix"/><feColorMatrix in="SourceAlpha" values="0 0 0 0 0 0 0 0 0 0 0 0 0 0 0 0 0 0 127 0" result="hardAlpha"/><feOffset dy="2.667"/><feGaussianBlur stdDeviation="2.667"/><feColorMatrix values="0 0 0 0 0.196487 0 0 0 0 0.196487 0 0 0 0 0.279476 0 0 0 0.06 0"/><feBlend mode="multiply" in2="BackgroundImageFix" result="effect1_dropShadow"/><feColorMatrix in="SourceAlpha" values="0 0 0 0 0 0 0 0 0 0 0 0 0 0 0 0 0 0 127 0" result="hardAlpha"/><feOffset dy="2.667"/><feGaussianBlur stdDeviation="1.333"/><feColorMatrix values="0 0 0 0 0.196487 0 0 0 0 0.196487 0 0 0 0 0.279476 0 0 0 0.06 0"/><feBlend mode="multiply" in2="effect1_dropShadow" result="effect2_dropShadow"/><feBlend in="SourceGraphic" in2="effect2_dropShadow" result="shape"/></filter><filter id="filter1_dd" x="1183.54" y="143.745" width="53.051" height="52.767" filterUnits="userSpaceOnUse" color-interpolation-filters="sRGB"><feFlood flood-opacity="0" result="BackgroundImageFix"/><feColorMatrix in="SourceAlpha" values="0 0 0 0 0 0 0 0 0 0 0 0 0 0 0 0 0 0 127 0" result="hardAlpha"/><feOffset dy="2.667"/><feGaussianBlur stdDeviation="2.667"/><feColorMatrix values="0 0 0 0 0.196487 0 0 0 0 0.196487 0 0 0 0 0.279476 0 0 0 0.06 0"/><feBlend mode="multiply" in2="BackgroundImageFix" result="effect1_dropShadow"/><feColorMatrix in="SourceAlpha" values="0 0 0 0 0 0 0 0 0 0 0 0 0 0 0 0 0 0 127 0" result="hardAlpha"/><feOffset dy="2.667"/><feGaussianBlur stdDeviation="1.333"/><feColorMatrix values="0 0 0 0 0.196487 0 0 0 0 0.196487 0 0 0 0 0.279476 0 0 0 0.06 0"/><feBlend mode="multiply" in2="effect1_dropShadow" result="effect2_dropShadow"/><feBlend in="SourceGraphic" in2="effect2_dropShadow" result="shape"/></filter><filter id="filter2_dd" x="1704.87" y="244.786" width="53.051" height="52.767" filterUnits="userSpaceOnUse" color-interpolation-filters="sRGB"><feFlood flood-opacity="0" result="BackgroundImageFix"/><feColorMatrix in="SourceAlpha" values="0 0 0 0 0 0 0 0 0 0 0 0 0 0 0 0 0 0 127 0" result="hardAlpha"/><feOffset dy="2.667"/><feGaussianBlur stdDeviation="2.667"/><feColorMatrix values="0 0 0 0 0.196487 0 0 0 0 0.196487 0 0 0 0 0.279476 0 0 0 0.06 0"/><feBlend mode="multiply" in2="BackgroundImageFix" result="effect1_dropShadow"/><feColorMatrix in="SourceAlpha" values="0 0 0 0 0 0 0 0 0 0 0 0 0 0 0 0 0 0 127 0" result="hardAlpha"/><feOffset dy="2.667"/><feGaussianBlur stdDeviation="1.333"/><feColorMatrix values="0 0 0 0 0.196487 0 0 0 0 0.196487 0 0 0 0 0.279476 0 0 0 0.06 0"/><feBlend mode="multiply" in2="effect1_dropShadow" result="effect2_dropShadow"/><feBlend in="SourceGraphic" in2="effect2_dropShadow" result="shape"/></filter><linearGradient id="paint0_linear" x1="958.94" y1="38.125" x2="958.94" y2="618.644" gradientUnits="userSpaceOnUse"><stop stop-color="#7459D9" stop-opacity=".1"/><stop offset=".999" stop-color="#fff" stop-opacity="0"/></linearGradient></defs></svg>