<svg width="69" height="63" fill="none" xmlns="http://www.w3.org/2000/svg"><g filter="url(#filter0_bd)"><path fill-rule="evenodd" clip-rule="evenodd" d="M5 10.431C5 7.463 7.364 5 10.35 5h34.091c2.986 0 5.35 2.463 5.35 5.431v10.715a1.563 1.563 0 01-3.124 0V10.43c0-1.305-1.028-2.306-2.226-2.306h-34.09c-1.199 0-2.226 1.001-2.226 2.306v19.346c0 1.305 1.027 2.306 2.225 2.306h14.963a1.563 1.563 0 010 3.125H10.35c-2.986 0-5.35-2.463-5.35-5.431V10.43z" fill="url(#paint0_linear)"/><path d="M5.2 10.431C5.2 7.57 7.48 5.2 10.35 5.2h34.091c2.871 0 5.15 2.37 5.15 5.231v10.715a1.363 1.363 0 01-2.724 0V10.43c0-1.412-1.114-2.506-2.426-2.506h-34.09c-1.312 0-2.426 1.094-2.426 2.506v19.346c0 1.412 1.114 2.506 2.425 2.506h14.963a1.363 1.363 0 010 2.725H10.35c-2.87 0-5.15-2.369-5.15-5.231V10.43z" stroke="url(#paint1_linear)" stroke-width=".4"/></g><g filter="url(#filter1_bd)"><path fill-rule="evenodd" clip-rule="evenodd" d="M5 12.813c0-.863.7-1.563 1.563-1.563h41.666a1.563 1.563 0 010 3.125H6.563c-.863 0-1.563-.7-1.563-1.563z" fill="url(#paint2_linear)"/><path d="M5.2 12.813c0-.753.61-1.363 1.362-1.363H48.23a1.363 1.363 0 010 2.725H6.563c-.753 0-1.363-.61-1.363-1.363z" stroke="url(#paint3_linear)" stroke-width=".4"/></g><g filter="url(#filter2_bd)"><path fill-rule="evenodd" clip-rule="evenodd" d="M9.167 23.23c0-.864.7-1.563 1.563-1.563h4.166a1.562 1.562 0 110 3.125H10.73c-.862 0-1.562-.7-1.562-1.563z" fill="url(#paint4_linear)"/><path d="M9.367 23.23c0-.753.61-1.363 1.362-1.363h4.167a1.363 1.363 0 010 2.725H10.73c-.752 0-1.362-.61-1.362-1.363z" stroke="url(#paint5_linear)" stroke-width=".4"/></g><g filter="url(#filter3_bd)"><path fill-rule="evenodd" clip-rule="evenodd" d="M9.167 28.438c0-.863.7-1.563 1.563-1.563h8.333a1.562 1.562 0 110 3.125H10.73c-.863 0-1.563-.7-1.563-1.563z" fill="url(#paint6_linear)"/><path d="M9.367 28.438c0-.753.61-1.363 1.362-1.363h8.334a1.362 1.362 0 110 2.725H10.73c-.753 0-1.363-.61-1.363-1.363z" stroke="url(#paint7_linear)" stroke-width=".4"/></g><g filter="url(#filter4_bd)"><path fill-rule="evenodd" clip-rule="evenodd" d="M30 35.73c0-6.617 5.363-11.98 11.98-11.98 6.615 0 11.978 5.363 11.978 11.98 0 6.615-5.363 11.978-11.979 11.978C35.363 47.708 30 42.345 30 35.73zm17.25.062a1.562 1.562 0 10-2.209-2.21l-3.062 3.062-2.02-2.02a1.562 1.562 0 10-2.21 2.21l3.125 3.125c.61.61 1.6.61 2.21 0l4.167-4.167z" fill="url(#paint8_linear)"/><path d="M30.2 35.73c0-6.506 5.274-11.78 11.78-11.78 6.505 0 11.778 5.274 11.778 11.78 0 6.505-5.274 11.778-11.779 11.778S30.2 42.234 30.2 35.73zm17.192.204A1.762 1.762 0 1044.9 33.44l-2.92 2.92-1.88-1.878s0 0 0 0a1.762 1.762 0 10-2.492 2.492l3.125 3.125a1.762 1.762 0 002.492 0l4.167-4.166z" stroke="url(#paint9_linear)" stroke-width=".4"/></g><defs><linearGradient id="paint0_linear" x1="46.616" y1="10.455" x2="-3.214" y2="12.864" gradientUnits="userSpaceOnUse"><stop stop-color="#fff"/><stop offset="1" stop-color="#fff" stop-opacity=".2"/></linearGradient><linearGradient id="paint1_linear" x1="12.13" y1="8.519" x2="28.688" y2="38.927" gradientUnits="userSpaceOnUse"><stop stop-color="#fff" stop-opacity=".25"/><stop offset="1" stop-color="#fff" stop-opacity="0"/></linearGradient><linearGradient id="paint2_linear" x1="46.616" y1="11.814" x2="5.622" y2="30.972" gradientUnits="userSpaceOnUse"><stop stop-color="#fff"/><stop offset="1" stop-color="#fff" stop-opacity=".2"/></linearGradient><linearGradient id="paint3_linear" x1="12.13" y1="11.614" x2="12.359" y2="15.68" gradientUnits="userSpaceOnUse"><stop stop-color="#fff" stop-opacity=".25"/><stop offset="1" stop-color="#fff" stop-opacity="0"/></linearGradient><linearGradient id="paint4_linear" x1="15.942" y1="22.231" x2="7.858" y2="22.846" gradientUnits="userSpaceOnUse"><stop stop-color="#fff"/><stop offset="1" stop-color="#fff" stop-opacity=".2"/></linearGradient><linearGradient id="paint5_linear" x1="10.328" y1="22.031" x2="11.588" y2="25.673" gradientUnits="userSpaceOnUse"><stop stop-color="#fff" stop-opacity=".25"/><stop offset="1" stop-color="#fff" stop-opacity="0"/></linearGradient><linearGradient id="paint6_linear" x1="19.813" y1="27.439" x2="7.216" y2="28.945" gradientUnits="userSpaceOnUse"><stop stop-color="#fff"/><stop offset="1" stop-color="#fff" stop-opacity=".2"/></linearGradient><linearGradient id="paint7_linear" x1="10.991" y1="27.239" x2="11.848" y2="31.129" gradientUnits="userSpaceOnUse"><stop stop-color="#fff" stop-opacity=".25"/><stop offset="1" stop-color="#fff" stop-opacity="0"/></linearGradient><linearGradient id="paint8_linear" x1="52.26" y1="28.076" x2="25.572" y2="28.947" gradientUnits="userSpaceOnUse"><stop stop-color="#fff"/><stop offset="1" stop-color="#fff" stop-opacity=".2"/></linearGradient><linearGradient id="paint9_linear" x1="33.814" y1="26.541" x2="49.097" y2="45.469" gradientUnits="userSpaceOnUse"><stop stop-color="#fff" stop-opacity=".25"/><stop offset="1" stop-color="#fff" stop-opacity="0"/></linearGradient><filter id="filter0_bd" x="-10" y="-10" width="74.792" height="60.208" filterUnits="userSpaceOnUse" color-interpolation-filters="sRGB"><feFlood flood-opacity="0" result="BackgroundImageFix"/><feGaussianBlur in="BackgroundImage" stdDeviation="7.5"/><feComposite in2="SourceAlpha" operator="in" result="effect1_backgroundBlur"/><feColorMatrix in="SourceAlpha" values="0 0 0 0 0 0 0 0 0 0 0 0 0 0 0 0 0 0 127 0" result="hardAlpha"/><feOffset dx="5" dy="5"/><feGaussianBlur stdDeviation="5"/><feColorMatrix values="0 0 0 0 1 0 0 0 0 0.580392 0 0 0 0 0.247059 0 0 0 0.5 0"/><feBlend in2="effect1_backgroundBlur" result="effect2_dropShadow"/><feBlend in="SourceGraphic" in2="effect2_dropShadow" result="shape"/></filter><filter id="filter1_bd" x="-10" y="-3.75" width="74.792" height="33.125" filterUnits="userSpaceOnUse" color-interpolation-filters="sRGB"><feFlood flood-opacity="0" result="BackgroundImageFix"/><feGaussianBlur in="BackgroundImage" stdDeviation="7.5"/><feComposite in2="SourceAlpha" operator="in" result="effect1_backgroundBlur"/><feColorMatrix in="SourceAlpha" values="0 0 0 0 0 0 0 0 0 0 0 0 0 0 0 0 0 0 127 0" result="hardAlpha"/><feOffset dx="5" dy="5"/><feGaussianBlur stdDeviation="5"/><feColorMatrix values="0 0 0 0 1 0 0 0 0 0.580392 0 0 0 0 0.247059 0 0 0 0.5 0"/><feBlend in2="effect1_backgroundBlur" result="effect2_dropShadow"/><feBlend in="SourceGraphic" in2="effect2_dropShadow" result="shape"/></filter><filter id="filter2_bd" x="-5.833" y="6.667" width="37.292" height="33.125" filterUnits="userSpaceOnUse" color-interpolation-filters="sRGB"><feFlood flood-opacity="0" result="BackgroundImageFix"/><feGaussianBlur in="BackgroundImage" stdDeviation="7.5"/><feComposite in2="SourceAlpha" operator="in" result="effect1_backgroundBlur"/><feColorMatrix in="SourceAlpha" values="0 0 0 0 0 0 0 0 0 0 0 0 0 0 0 0 0 0 127 0" result="hardAlpha"/><feOffset dx="5" dy="5"/><feGaussianBlur stdDeviation="5"/><feColorMatrix values="0 0 0 0 1 0 0 0 0 0.580392 0 0 0 0 0.247059 0 0 0 0.5 0"/><feBlend in2="effect1_backgroundBlur" result="effect2_dropShadow"/><feBlend in="SourceGraphic" in2="effect2_dropShadow" result="shape"/></filter><filter id="filter3_bd" x="-5.833" y="11.875" width="41.458" height="33.125" filterUnits="userSpaceOnUse" color-interpolation-filters="sRGB"><feFlood flood-opacity="0" result="BackgroundImageFix"/><feGaussianBlur in="BackgroundImage" stdDeviation="7.5"/><feComposite in2="SourceAlpha" operator="in" result="effect1_backgroundBlur"/><feColorMatrix in="SourceAlpha" values="0 0 0 0 0 0 0 0 0 0 0 0 0 0 0 0 0 0 127 0" result="hardAlpha"/><feOffset dx="5" dy="5"/><feGaussianBlur stdDeviation="5"/><feColorMatrix values="0 0 0 0 1 0 0 0 0 0.580392 0 0 0 0 0.247059 0 0 0 0.5 0"/><feBlend in2="effect1_backgroundBlur" result="effect2_dropShadow"/><feBlend in="SourceGraphic" in2="effect2_dropShadow" result="shape"/></filter><filter id="filter4_bd" x="15" y="8.75" width="53.958" height="53.958" filterUnits="userSpaceOnUse" color-interpolation-filters="sRGB"><feFlood flood-opacity="0" result="BackgroundImageFix"/><feGaussianBlur in="BackgroundImage" stdDeviation="7.5"/><feComposite in2="SourceAlpha" operator="in" result="effect1_backgroundBlur"/><feColorMatrix in="SourceAlpha" values="0 0 0 0 0 0 0 0 0 0 0 0 0 0 0 0 0 0 127 0" result="hardAlpha"/><feOffset dx="5" dy="5"/><feGaussianBlur stdDeviation="5"/><feColorMatrix values="0 0 0 0 1 0 0 0 0 0.580392 0 0 0 0 0.247059 0 0 0 0.5 0"/><feBlend in2="effect1_backgroundBlur" result="effect2_dropShadow"/><feBlend in="SourceGraphic" in2="effect2_dropShadow" result="shape"/></filter></defs></svg>