<svg width="71" height="71" fill="none" xmlns="http://www.w3.org/2000/svg"><g filter="url(#filter0_bd)"><path d="M48.804 40.91l-7.496-4.703a10.661 10.661 0 01-3.103 6.623 10.672 10.672 0 01-7.596 3.146 10.672 10.672 0 01-7.596-3.146 10.661 10.661 0 01-3.102-6.623l-7.496 4.703a14.523 14.523 0 00-6.806 12.302v2.237h50v-2.237c0-4.998-2.57-9.646-6.805-12.302zm-2.57 10.632h-7.812a1.465 1.465 0 110-2.93h7.812a1.465 1.465 0 110 2.93z" fill="url(#paint0_linear)"/><path d="M22.943 42.9l.066-.066-.066.066a10.772 10.772 0 007.666 3.176c2.896 0 5.62-1.128 7.667-3.175l-.052-.052.052.052a10.76 10.76 0 003.116-6.523l7.36 4.617.052-.085-.053.085a14.423 14.423 0 016.758 12.217v2.137H5.71v-2.137a14.42 14.42 0 016.759-12.217l-.05-.08.05.08 7.36-4.617a10.76 10.76 0 003.115 6.523zm15.479 8.742h7.812a1.565 1.565 0 000-3.13h-7.812a1.565 1.565 0 000 3.13z" stroke="url(#paint1_linear)" stroke-opacity=".5" stroke-width=".2"/></g><g filter="url(#filter1_bd)"><path d="M30.61 43.046a7.812 7.812 0 007.744-6.796 13.573 13.573 0 01-7.744 2.402c-2.807 0-5.483-.84-7.745-2.402a7.812 7.812 0 007.745 6.796z" fill="url(#paint2_linear)"/><path d="M38.223 36.46a7.713 7.713 0 01-7.613 6.486 7.713 7.713 0 01-7.613-6.486 13.675 13.675 0 007.613 2.292c2.749 0 5.375-.801 7.613-2.292z" stroke="url(#paint3_linear)" stroke-opacity=".5" stroke-width=".2"/></g><g filter="url(#filter2_bd)"><path d="M41.742 13.554h-.39c-.11 0-.216.013-.318.036-1.163-4.676-5.389-8.141-10.425-8.141-5.932 0-10.742 4.81-10.742 10.742v.263h3.505c1.72 0 3.39-.712 4.58-1.953l1.6-1.668c.277-.288.658-.45 1.057-.45h.003c.4 0 .782.164 1.058.454l1.597 1.677a6.377 6.377 0 004.597 1.97h3.878a2.444 2.444 0 012.442 2.441v6.836a2.444 2.444 0 01-2.442 2.442h-.883c.32-1.018.493-2.1.493-3.223v-5.566h-3.488a9.32 9.32 0 01-6.718-2.88l-.54-.567-.54.562a9.322 9.322 0 01-6.694 2.855h-3.505v5.596c0 5.933 4.81 10.742 10.742 10.742 2.11 0 4.079-.609 5.739-1.66H32.66a1.465 1.465 0 110-2.93h9.082a5.38 5.38 0 005.371-5.371v-6.836a5.377 5.377 0 00-5.37-5.37z" fill="url(#paint4_linear)"/><path d="M40.937 13.614l.023.094.095-.02a1.37 1.37 0 01.297-.034h.39a5.277 5.277 0 015.271 5.271v6.836a5.28 5.28 0 01-5.27 5.271H32.66a1.565 1.565 0 000 3.13h3.332a10.59 10.59 0 01-5.383 1.46c-5.877 0-10.642-4.764-10.642-10.642v-5.496h3.405a9.422 9.422 0 006.767-2.886l.466-.486.468.492h0a9.419 9.419 0 006.79 2.91h3.389v5.466c0 1.113-.171 2.185-.488 3.193l-.04.13h1.018a2.544 2.544 0 002.542-2.542v-6.836a2.544 2.544 0 00-2.542-2.541h-3.878a6.277 6.277 0 01-4.524-1.939l-1.598-1.677h0a1.565 1.565 0 00-1.13-.486h0-.003c-.426 0-.834.174-1.129.482l-1.6 1.668a6.279 6.279 0 01-4.508 1.922h-3.405v-.163c0-5.878 4.765-10.642 10.642-10.642 4.989 0 9.176 3.433 10.328 8.065z" stroke="url(#paint5_linear)" stroke-opacity=".5" stroke-width=".2"/></g><defs><linearGradient id="paint0_linear" x1="52.064" y1="39.682" x2="-3.293" y2="44.372" gradientUnits="userSpaceOnUse"><stop stop-color="#fff"/><stop offset="1" stop-color="#fff" stop-opacity=".2"/></linearGradient><linearGradient id="paint1_linear" x1="10.995" y1="42.662" x2="53.445" y2="43.271" gradientUnits="userSpaceOnUse"><stop stop-color="#fff"/><stop offset="1" stop-color="#fff" stop-opacity="0"/></linearGradient><linearGradient id="paint2_linear" x1="37.256" y1="37.477" x2="20.079" y2="38.754" gradientUnits="userSpaceOnUse"><stop stop-color="#fff"/><stop offset="1" stop-color="#fff" stop-opacity=".2"/></linearGradient><linearGradient id="paint3_linear" x1="24.534" y1="38.53" x2="37.684" y2="38.696" gradientUnits="userSpaceOnUse"><stop stop-color="#fff"/><stop offset="1" stop-color="#fff" stop-opacity="0"/></linearGradient><linearGradient id="paint4_linear" x1="45.182" y1="10.915" x2="14.826" y2="11.806" gradientUnits="userSpaceOnUse"><stop stop-color="#fff"/><stop offset="1" stop-color="#fff" stop-opacity=".2"/></linearGradient><linearGradient id="paint5_linear" x1="22.802" y1="15.604" x2="45.938" y2="15.719" gradientUnits="userSpaceOnUse"><stop stop-color="#fff"/><stop offset="1" stop-color="#fff" stop-opacity="0"/></linearGradient><filter id="filter0_bd" x="-9.391" y="21.207" width="80" height="49.242" filterUnits="userSpaceOnUse" color-interpolation-filters="sRGB"><feFlood flood-opacity="0" result="BackgroundImageFix"/><feGaussianBlur in="BackgroundImage" stdDeviation="7.5"/><feComposite in2="SourceAlpha" operator="in" result="effect1_backgroundBlur"/><feColorMatrix in="SourceAlpha" values="0 0 0 0 0 0 0 0 0 0 0 0 0 0 0 0 0 0 127 0" result="hardAlpha"/><feOffset dx="5" dy="5"/><feGaussianBlur stdDeviation="5"/><feColorMatrix values="0 0 0 0 0.9 0 0 0 0 0.6015 0 0 0 0 0.15375 0 0 0 0.5 0"/><feBlend in2="effect1_backgroundBlur" result="effect2_dropShadow"/><feBlend in="SourceGraphic" in2="effect2_dropShadow" result="shape"/></filter><filter id="filter1_bd" x="7.865" y="21.25" width="45.489" height="36.796" filterUnits="userSpaceOnUse" color-interpolation-filters="sRGB"><feFlood flood-opacity="0" result="BackgroundImageFix"/><feGaussianBlur in="BackgroundImage" stdDeviation="7.5"/><feComposite in2="SourceAlpha" operator="in" result="effect1_backgroundBlur"/><feColorMatrix in="SourceAlpha" values="0 0 0 0 0 0 0 0 0 0 0 0 0 0 0 0 0 0 127 0" result="hardAlpha"/><feOffset dx="5" dy="5"/><feGaussianBlur stdDeviation="5"/><feColorMatrix values="0 0 0 0 0.9 0 0 0 0 0.6015 0 0 0 0 0.15375 0 0 0 0.5 0"/><feBlend in2="effect1_backgroundBlur" result="effect2_dropShadow"/><feBlend in="SourceGraphic" in2="effect2_dropShadow" result="shape"/></filter><filter id="filter2_bd" x="4.867" y="-9.551" width="57.246" height="60.273" filterUnits="userSpaceOnUse" color-interpolation-filters="sRGB"><feFlood flood-opacity="0" result="BackgroundImageFix"/><feGaussianBlur in="BackgroundImage" stdDeviation="7.5"/><feComposite in2="SourceAlpha" operator="in" result="effect1_backgroundBlur"/><feColorMatrix in="SourceAlpha" values="0 0 0 0 0 0 0 0 0 0 0 0 0 0 0 0 0 0 127 0" result="hardAlpha"/><feOffset dx="5" dy="5"/><feGaussianBlur stdDeviation="5"/><feColorMatrix values="0 0 0 0 0.9 0 0 0 0 0.6015 0 0 0 0 0.15375 0 0 0 0.5 0"/><feBlend in2="effect1_backgroundBlur" result="effect2_dropShadow"/><feBlend in="SourceGraphic" in2="effect2_dropShadow" result="shape"/></filter></defs></svg>