<svg width="375" height="403" fill="none" xmlns="http://www.w3.org/2000/svg"><g clip-path="url(#clip0)"><g opacity=".25" filter="url(#filter0_f)"><ellipse cx="-135.558" cy="431.174" rx="189.94" ry="190.022" fill="#49C8FF" fill-opacity=".3"/></g><g opacity=".25" filter="url(#filter1_f)"><ellipse cx="282.203" cy="144.54" rx="189.94" ry="190.022" fill="#49C8FF" fill-opacity=".3"/></g><path d="M117.873 338.298c38.601 0 69.894-31.425 69.894-70.19s-31.293-70.191-69.894-70.191c-38.601 0-69.894 31.426-69.894 70.191s31.293 70.19 69.894 70.19z" fill="url(#paint0_linear)"/><path d="M366.769 575.292c94.735 0 171.533-77.07 171.533-172.141 0-95.07-76.798-172.14-171.533-172.14-94.735 0-171.533 77.07-171.533 172.14 0 95.071 76.798 172.141 171.533 172.141z" fill="url(#paint1_linear)"/><path d="M374.52 342.164l50.433 43.972v39.877l-474.99-.053v-32.927l50.64-50.921 373.917.052z" fill="#EBF9FD"/><path opacity=".1" fill-rule="evenodd" clip-rule="evenodd" d="M353.788 416.16h-64.791c-3.006 0-5.805-.571-6.634-1.711l-23.636-28.002c-.57-.778.933-1.399 3.318-1.399h53.076c2.436 0 5.131.621 6.064 1.399l35.505 27.639c1.4 1.141.104 2.074-2.902 2.074z" fill="#000"/><path fill-rule="evenodd" clip-rule="evenodd" d="M353.84 412.323c-.26 3.474-4.199 3.578-5.132 3.578-65.775 0-61.162-.052-62.406-.104-4.146-.207-5.079-1.608-6.168-2.645-1.088-1.037-22.858-27.949-22.91-28.571-.155-2.593 1.815-2.23 3.473-2.23 55.046-.259 51.366-.311 52.662-.155 3.835.414 4.457 1.399 5.701 2.385 34.209 27.586 34.883 26.342 34.78 27.742z" fill="url(#paint2_linear)"/><path fill-rule="evenodd" clip-rule="evenodd" d="M350.366 413.256H287.96c-3.006 0-5.805-.57-6.634-1.711l-23.636-28.001c-.57-.778.933-1.401 3.317-1.401h50.64c2.437 0 5.132.623 6.065 1.401l35.505 27.638c1.451 1.141.155 2.074-2.851 2.074z" fill="url(#paint3_linear)"/><path fill-rule="evenodd" clip-rule="evenodd" d="M280.859 408.226l-21.044-24.423c-.051-.104.104-.156.415-.156h55.409c.311 0 .622.052.725.156l31.463 24.423c.155.156-.001.259-.363.259h-65.879c-.259 0-.622-.103-.726-.259z" fill="url(#paint4_linear)"/><path fill-rule="evenodd" clip-rule="evenodd" d="M291.019 382.766h-7.879c-.207 0-.362.052-.311.104.052.051.311.103.519.103h7.93c.207 0 .363-.052.259-.103-.052-.052-.259-.104-.518-.104zm28.093 27.483c-.57-.571-2.281-1.037-3.836-1.037-1.555 0-2.332.466-1.814 1.037.57.57 2.281 1.037 3.836 1.037 1.607 0 2.384-.467 1.814-1.037z" fill="url(#paint5_linear)"/><path d="M216.95 366.899h-62.198c-3.369 0-5.702-3.215-4.51-6.223a200.783 200.783 0 004.043-10.993c2.488-7.364 4.147-9.075 4.613-22.972.104-2.437.104-5.237.104-8.556h24.361l29.182.207c0 2.178.103 4.771.155 7.26.052 2.541.156 4.667.311 6.534v.881c.726 8.349 2.229 10.579 4.25 16.646 1.244 3.733 2.799 7.778 4.043 10.993 1.348 3.008-.984 6.223-4.354 6.223z" fill="url(#paint6_linear)"/><path d="M216.95 365.602h-62.198c-3.369 0-5.702-3.215-4.51-6.222a200.523 200.523 0 004.043-10.994c2.488-7.363 4.147-9.074 4.613-22.971.104-2.437.104-5.237.104-8.556h24.361l29.182.207c0 2.178.103 4.771.155 7.26.052 2.541.156 4.667.311 6.534v.881c.726 8.348 2.229 10.578 4.25 16.645 1.244 3.734 2.799 7.779 4.043 10.994 1.348 3.007-.984 6.222-4.354 6.222z" fill="url(#paint7_linear)"/><path opacity=".1" d="M213.167 331.741l-54.269-6.378c.104-2.437.104-5.237.104-8.556h24.361l29.182.207c0 2.178.103 4.771.155 7.26.104 2.489.208 4.874.311 6.534v.622c.104.155.156.207.156.311z" fill="#444D89"/><path d="M302.836 165.963H69.696c-2.955 0-5.391 2.436-5.391 5.392V319.4c0 2.955 2.436 5.393 5.39 5.393h233.141c2.955 0 5.391-2.438 5.391-5.393V171.355a5.387 5.387 0 00-5.391-5.392z" fill="url(#paint8_linear)"/><path d="M308.227 159.584v133.578H64.357V159.584c0-4.2 3.161-7.57 7.049-7.57h229.772c3.887-.052 7.049 3.37 7.049 7.57z" fill="#5075D9"/><path d="M299.156 161.503v122.48H73.997l.363-122.48h224.796z" fill="url(#paint9_linear)"/><path d="M186.577 157.873a1.348 1.348 0 100-2.696 1.348 1.348 0 000 2.696z" fill="#81C5FB"/><path d="M167.206 218.297h10.398c1.155 0 2.079.93 2.079 2.092a2.077 2.077 0 01-2.079 2.092h-10.398a10.116 10.116 0 0010.09 9.374h.385c1.155 0 2.079.93 2.079 2.092a2.077 2.077 0 01-2.079 2.092h-.385a10.116 10.116 0 00-10.09 9.374h27.65c5.315 0 9.705-4.106 10.09-9.374h-10.398a2.077 2.077 0 01-2.079-2.092c0-1.162.924-2.092 2.079-2.092h10.398a10.116 10.116 0 00-10.09-9.374h-.385a2.077 2.077 0 01-2.079-2.092c0-1.162.924-2.092 2.079-2.092h.385c5.315 0 9.705-4.106 10.09-9.374h-27.65a10.116 10.116 0 00-10.09 9.374z" fill="#D1F2FF"/><path d="M260.593 373.277H104.164c.052-.26.207-.519.311-.727l12.077-24.527c.207-.466.674-.726 1.192-.726H246.91c.518 0 .933.26 1.192.726l12.284 24.527c.052.26.104.467.207.727z" fill="url(#paint10_linear)"/><path d="M260.645 373.691v.882c0 .778-.777 1.4-1.71 1.4H105.771c-.933 0-1.71-.622-1.71-1.4v-.622c0-.312.051-.519.051-.623h156.43c.052.052.103.156.103.363z" fill="url(#paint11_linear)"/><path fill-rule="evenodd" clip-rule="evenodd" d="M256.707 370.995l-7.931-.052c-.466 0-.933-.207-1.036-.518l-.571-1.401c-.103-.259.156-.467.622-.467l7.827.053c.467 0 .933.207 1.037.466l.674 1.452c.103.26-.156.467-.622.467zm-4.458-6.378l-18.66-.052c-.466 0-.881-.208-.933-.467l-1.243-3.837c-.052-.26.207-.415.621-.415h18.09c.415 0 .881.207.985.415l1.762 3.889c.104.259-.155.467-.622.467zm-2.695-5.964h-13.01c-.415 0-.829-.207-.933-.414l-1.296-3.578c-.104-.208.207-.415.622-.415l12.595-.052c.415 0 .83.156.933.415l1.659 3.578c.155.311-.104.466-.57.466zm-2.488-5.496h-6.479c-.415 0-.829-.156-.881-.415l-1.348-3.319c-.104-.207.156-.363.57-.363l6.324-.051c.414 0 .777.155.881.362l1.555 3.319c.052.311-.208.467-.622.467zm-9.745.052h-6.427c-.414 0-.777-.156-.881-.415l-1.088-3.319c-.052-.207.207-.363.57-.363l6.271-.052c.415 0 .778.156.882.363l1.295 3.319c.052.259-.207.467-.622.467zm-9.692 0h-6.376c-.414 0-.777-.156-.829-.363l-.881-3.319c-.052-.207.207-.363.622-.363l6.22-.052c.414 0 .777.156.829.363l1.089 3.319c0 .259-.26.415-.674.415zm-9.641.051h-6.324c-.414 0-.777-.155-.829-.362l-.674-3.267c-.051-.208.259-.363.622-.363l6.168-.052c.415 0 .778.156.83.363l.829 3.319c.104.155-.207.362-.622.362zm-9.537 0h-6.272c-.414 0-.725-.155-.777-.362l-.415-3.267c-.052-.208.259-.363.674-.363l6.116-.052c.415 0 .726.156.778.363l.622 3.267c0 .259-.311.414-.726.414zm-9.434.053h-6.271c-.415 0-.726-.156-.726-.364l-.207-3.266c0-.208.311-.363.674-.363l6.064-.052c.363 0 .726.155.726.363l.414 3.267c0 .207-.311.415-.674.415zm-9.433 0h-6.22c-.415 0-.726-.156-.726-.364v-3.266c0-.208.311-.363.674-.363l6.013-.052c.363 0 .725.155.725.363l.156 3.267c.104.259-.207.415-.622.415zm-9.33.051h-6.168c-.415 0-.674-.155-.674-.363l.208-3.267c0-.207.311-.363.725-.363h5.961c.363 0 .674.156.674.363l-.052 3.267c.052.156-.259.363-.674.363zm-9.226 0h-6.116c-.363 0-.674-.155-.674-.363l.415-3.214c.052-.208.363-.364.725-.364l5.961-.052c.363 0 .674.156.674.363l-.259 3.267c0 .208-.363.363-.726.363zm-8.449-.363c-.051.208-.362.363-.777.363h-6.064c-.363 0-.674-.155-.622-.363l.622-3.214c.051-.208.362-.364.725-.364h5.909c.363 0 .674.156.622.364l-.415 3.214zm-9.07.052c-.052.208-.415.363-.778.363h-6.012c-.363 0-.622-.155-.57-.363l.829-3.215c.052-.207.415-.363.777-.363h5.857c.363 0 .622.156.622.363l-.725 3.215zm-9.019 0c-.052.208-.415.363-.778.363h-5.96c-.363 0-.622-.155-.57-.363l1.036-3.215c.052-.207.415-.363.778-.363h5.805c.363 0 .622.156.57.363l-.881 3.215zm-8.967.052c-.052.207-.415.363-.829.363h-5.909c-.363 0-.622-.156-.518-.363l1.243-3.163c.052-.207.415-.363.778-.363h5.753c.363 0 .622.156.571.363l-1.089 3.163zm-8.915 0c-.104.207-.467.363-.829.363h-9.123c-.363 0-.57-.156-.518-.363l1.503-3.163c.104-.207.466-.363.829-.363l8.864-.052c.362 0 .622.155.518.363l-1.244 3.215zm2.177 1.4c.363 0 .622.156.518.363l-1.296 3.422c-.103.208-.466.415-.881.415h-12.958c-.363 0-.622-.155-.518-.415l1.607-3.422c.103-.207.466-.363.881-.363h12.647zm2.747 5.341c.415 0 .674.207.57.415l-1.244 3.682c-.104.259-.466.414-.881.414l-18.349-.051c-.414 0-.622-.208-.518-.415l1.711-3.682c.103-.207.518-.415.881-.415l17.83.052zm-14.098 5.652c.414 0 .673.207.57.467l-1.659 3.993c-.104.259-.518.467-.933.467l-6.531-.053c-.414 0-.674-.207-.518-.466l1.866-3.941c.104-.26.518-.467.933-.415l6.272-.052zm2.28.467c.104-.26.519-.467.933-.467h6.376c.414 0 .673.207.57.467l-1.452 3.993c-.103.259-.518.467-.933.467l-6.582-.053c-.415 0-.674-.207-.57-.466l1.658-3.941zm9.693 0c.103-.26.466-.467.881-.467h8.293c.415 0 .674.207.622.467l-1.14 3.993c-.052.259-.467.467-.881.467l-8.553-.053c-.414 0-.673-.207-.622-.466l1.4-3.941zm7.049-7.26h-6.168c-.415 0-.622-.155-.57-.415l1.244-3.422c.052-.207.466-.363.829-.363h5.961c.363 0 .622.156.57.363l-1.089 3.422c0 .26-.362.415-.777.415zm-3.836 5.238l1.244-3.682c.052-.208.467-.415.83-.415h6.22c.414 0 .673.207.622.415l-1.037 3.733c-.052.26-.467.415-.881.415h-6.427c-.415 0-.674-.207-.571-.466zm8.397 2.074c.052-.259.467-.467.881-.467h9.537c.415 0 .726.208.674.467l-.829 4.044c-.052.26-.466.467-.881.467l-9.796-.052c-.415 0-.726-.207-.622-.466l1.036-3.993zm8.138-11.149c.052-.207.415-.363.777-.363h6.065c.363 0 .674.156.622.363l-.622 3.475c-.052.207-.415.414-.778.414h-6.271c-.415 0-.674-.207-.622-.414l.829-3.475zm-3.369 3.837h-6.22c-.415 0-.674-.207-.57-.415l1.036-3.422c.052-.207.415-.363.83-.363h6.012c.363 0 .674.156.622.363l-.829 3.475c-.104.207-.467.362-.881.362zm5.183 1.556l-.777 3.733c-.052.26-.415.415-.83.415h-6.479c-.414 0-.674-.207-.622-.415l.985-3.733c.052-.208.415-.415.829-.415h6.272c.415 0 .674.155.622.415zm.985 3.733l.777-3.733c.052-.208.415-.415.83-.415h6.323c.415 0 .726.207.674.415l-.57 3.733c-.052.26-.415.467-.829.467h-6.531c-.415-.052-.726-.259-.674-.467zm1.918 2.023c.051-.259.414-.467.829-.467l42.761.104c.415 0 .778.207.83.467l.414 4.096c.052.259-.311.467-.777.467l-44.161-.208c-.415 0-.726-.207-.674-.466l.778-3.993zm33.12-11.616h6.272c.415 0 .726.156.778.415l.259 3.527c0 .207-.311.414-.726.414h-6.479c-.415 0-.726-.207-.726-.414l-.103-3.527c0-.259.311-.415.725-.415zm2.644 5.86l.155 3.786c0 .259-.311.466-.725.466h-6.687c-.414 0-.777-.207-.777-.466l.052-3.786c0-.208.311-.415.725-.415h6.479c.415 0 .778.155.778.415zm-12.025-5.86h6.22c.414 0 .725.156.725.415l.052 3.527c0 .207-.311.414-.726.414h-6.427c-.414 0-.725-.207-.725-.414l.155-3.475c0-.259.311-.467.726-.467zm2.229 5.86l-.052 3.786c0 .259-.363.466-.778.466h-6.634c-.415 0-.726-.207-.726-.466l.259-3.786c0-.208.363-.415.778-.415h6.427c.415 0 .726.155.726.415zm-12.285-5.445c0-.207.363-.415.726-.415h6.168c.415 0 .726.156.674.415l-.208 3.474c0 .208-.362.415-.777.415h-6.375c-.415 0-.726-.207-.674-.415l.466-3.474zm-2.902 3.889h-6.324c-.414 0-.674-.207-.674-.415l.57-3.474c.052-.207.363-.415.778-.415h6.116c.415 0 .674.156.674.363l-.415 3.475c.052.311-.311.466-.725.466zm5.494 1.556l-.311 3.733c0 .26-.363.467-.778.467h-6.582c-.415 0-.726-.207-.674-.467l.518-3.733c.052-.208.363-.415.778-.415h6.375c.363 0 .674.155.674.415zm21.51 3.786l-.207-3.786c0-.26.311-.415.726-.415h6.53c.415 0 .778.207.778.415l.415 3.786c.051.259-.311.466-.726.466h-6.738c-.415 0-.778-.207-.778-.466zm9.278 1.658h9.848c.415 0 .83.208.881.467l.778 4.149c.052.259-.259.467-.726.467l-10.159-.053c-.466 0-.829-.207-.881-.466l-.466-4.097c0-.259.311-.467.725-.467zm5.028-11.355h6.375c.415 0 .778.155.83.414l.725 3.526c.052.208-.259.415-.674.415h-6.582c-.415 0-.778-.207-.83-.415l-.57-3.526c0-.259.311-.414.726-.414zm-9.123 4.355c-.414 0-.777-.207-.777-.415l-.311-3.526c0-.207.311-.414.674-.414h6.323c.415 0 .778.155.778.414l.518 3.526c.052.208-.259.415-.674.415h-6.531zm12.596 1.556l.673 3.837c.052.259-.259.467-.725.467h-6.79c-.415 0-.829-.208-.829-.467l-.467-3.785c-.052-.259.311-.415.726-.415h6.582c.415-.052.778.103.83.363zm1.814 0c-.052-.26.259-.415.674-.415h6.634c.415 0 .829.207.881.415l.933 3.837c.052.259-.259.467-.674.467h-6.841c-.415 0-.83-.208-.882-.467l-.725-3.837zm3.006 5.444h7.464c.415 0 .829.208.933.467l1.088 4.149c.052.259-.259.467-.673.467l-7.723-.053c-.467 0-.882-.207-.933-.518l-.83-4.148c-.052-.156.259-.364.674-.364zm2.281-7c-.415 0-.778-.207-.83-.415l-.777-3.526c-.052-.207.259-.414.622-.414h6.427c.415 0 .778.155.829.414l.985 3.579c.052.207-.207.414-.622.414l-6.634-.052zm9.07-.466l-1.036-3.578c-.052-.208.207-.415.622-.415h6.479c.414 0 .829.155.881.415l1.244 3.578c.103.207-.208.414-.622.414h-6.687c-.414.052-.777-.155-.881-.414zm4.51 6.326h-6.894c-.415 0-.829-.208-.933-.467l-.985-3.837c-.052-.26.208-.415.674-.415h6.686c.415 0 .83.207.882.415l1.192 3.837c.103.259-.208.467-.622.467zm-4.199 3.941l7.671.051c.467 0 .882.208.985.467l.467 1.401c.103.259-.208.518-.674.466l-7.775-.052c-.466 0-.881-.207-.933-.518l-.363-1.4c-.103-.208.156-.415.622-.415zm9.952-2.852h7.619c.467 0 .882.207.985.467l.467 1.192c.103.26-.156.467-.622.467h-7.723c-.467 0-.881-.207-.985-.467l-.415-1.192c-.052-.26.259-.467.674-.467zm1.037 2.956l7.723.051c.466 0 .933.208 1.036.467l.519 1.348c.103.259-.156.519-.622.519l-7.879-.052c-.466 0-.933-.207-.985-.518l-.466-1.297c-.052-.311.207-.518.674-.518z" fill="url(#paint12_linear)"/><path opacity=".1" fill-rule="evenodd" clip-rule="evenodd" d="M265.777 414.449l-25.242-31.476c-.881-1.089-2.799-1.97-4.302-1.97H93.383c-1.502 0-3.42.881-4.301 1.97l-25.346 31.476c-1.659 2.022-1.296 3.733.777 3.733h200.435c2.125 0 2.281-1.918.829-3.733z" fill="#000"/><path fill-rule="evenodd" clip-rule="evenodd" d="M94.887 276.464h133.571a4.978 4.978 0 014.976 4.978v90.953a4.978 4.978 0 01-4.976 4.978H94.887a4.978 4.978 0 01-4.976-4.978v-90.953c0-2.8 2.229-4.978 4.976-4.978z" fill="#5075D9"/><path d="M161.647 279.575a.933.933 0 100-1.865.933.933 0 000 1.865z" fill="#81C5FB"/><path fill-rule="evenodd" clip-rule="evenodd" d="M94.42 369.335v-87.478c0-.57.467-.985.986-.985h132.483c.57 0 .985.467.985.985v87.478a.985.985 0 01-.985.986H95.406a.985.985 0 01-.985-.986z" fill="url(#paint13_linear)"/><path d="M149.866 318.569h8.431c.937 0 1.686.754 1.686 1.696 0 .943-.749 1.696-1.686 1.696h-8.431a8.203 8.203 0 008.181 7.603h.312c.937 0 1.686.754 1.686 1.696 0 .943-.749 1.697-1.686 1.697h-.312a8.203 8.203 0 00-8.181 7.602h22.419a8.203 8.203 0 008.181-7.602h-8.43a1.685 1.685 0 01-1.687-1.697c0-.942.75-1.696 1.687-1.696h8.43a8.203 8.203 0 00-8.181-7.603h-.312a1.683 1.683 0 01-1.686-1.696c0-.942.749-1.696 1.686-1.696h.312a8.203 8.203 0 008.181-7.603h-22.419a8.203 8.203 0 00-8.181 7.603z" fill="#D1F2FF"/><path fill-rule="evenodd" clip-rule="evenodd" d="M261.268 414.501v-3.526h-3.265l-22.34-28.52c-.881-1.089-2.747-1.971-4.198-1.971H91.985c-1.452 0-3.318.882-4.199 1.971l-22.443 28.52h-3.37v4.251c.053.778.675 1.297 1.763 1.297h195.252c1.503 0 2.28-.83 2.28-2.022z" fill="url(#paint14_linear)"/><path fill-rule="evenodd" clip-rule="evenodd" d="M260.387 408.745l-24.62-31.476c-.881-1.089-2.747-1.97-4.198-1.97H92.089c-1.452 0-3.318.881-4.199 1.97l-24.776 31.476c-1.607 2.022-1.296 3.733.778 3.733H259.61c2.021 0 2.177-1.918.777-3.733z" fill="url(#paint15_linear)"/><path d="M186.838 396.507h-49.863c-.985 0-1.918.415-2.073.882l-3.421 10.837c-.156.467.466.882 1.399.882h57.482c.985 0 1.607-.415 1.4-.882l-2.955-10.837c-.103-.467-1.036-.882-1.969-.882z" fill="url(#paint16_linear)"/><path fill-rule="evenodd" clip-rule="evenodd" d="M241.002 393.137h-8.034c-.466 0-.985-.156-1.088-.363l-.726-1.038c-.155-.207.156-.363.622-.363h7.879c.466 0 .984.156 1.088.363l.778 1.038c.259.155 0 .363-.519.363zm-4.976-4.563h-18.97c-.467 0-.881-.156-.985-.312l-1.555-2.748c-.104-.156.207-.311.622-.311h18.297c.414 0 .881.155 1.036.311l2.125 2.748c.156.156-.103.312-.57.312zm-3.213-4.201h-13.166c-.414 0-.881-.155-.985-.311l-1.554-2.489c-.104-.155.155-.259.57-.259h12.699c.414 0 .829.104.984.259l1.918 2.489c.208.208 0 .311-.466.311zm-2.903-3.837h-6.531c-.414 0-.829-.104-.933-.259l-1.555-2.334c-.103-.155.156-.259.57-.259h6.324c.415 0 .829.104.933.259l1.762 2.334c.104.155-.155.259-.57.259zm-9.848 0h-6.531c-.414 0-.829-.104-.881-.259l-1.348-2.334c-.103-.155.156-.259.57-.259h6.324c.415 0 .777.104.881.259l1.555 2.334c.104.155-.155.259-.57.259zm-9.796 0h-6.531c-.415 0-.829-.104-.881-.259l-1.089-2.334c-.052-.155.208-.259.622-.259h6.324c.414 0 .777.104.881.259l1.296 2.334c.051.155-.208.259-.622.259zm-9.848 0h-6.531c-.415 0-.778-.104-.83-.259l-.829-2.334c-.052-.155.259-.259.622-.259h6.324c.414 0 .777.104.829.259l1.037 2.334c.103.155-.208.259-.622.259zm-9.797 0h-6.531c-.414 0-.777-.104-.829-.259l-.57-2.334c-.052-.155.259-.259.674-.259h6.323c.415 0 .778.104.83.259l.777 2.334c0 .155-.259.259-.674.259zm-9.848 0h-6.531c-.414 0-.777-.104-.777-.259l-.311-2.334c0-.155.311-.259.674-.259h6.323c.415 0 .778.104.778.259l.518 2.334c.052.155-.259.259-.674.259zm-9.848 0h-6.531c-.414 0-.777-.104-.777-.259l-.052-2.334c0-.155.311-.259.726-.259h6.323c.415 0 .726.104.778.259l.259 2.334c.052.155-.311.259-.726.259zm-9.796 0h-6.531c-.415 0-.726-.104-.726-.259l.208-2.334c0-.155.362-.259.725-.259h6.324c.414 0 .725.104.725.259v2.334c0 .155-.311.259-.725.259zm-9.848 0h-6.531c-.415 0-.726-.104-.674-.259l.467-2.334c.051-.155.362-.259.777-.259h6.324c.414 0 .725.104.673.259l-.259 2.334c0 .155-.363.259-.777.259zm-9.019-.259c-.052.155-.415.259-.829.259h-6.531c-.415 0-.726-.104-.674-.259l.726-2.334c.051-.155.414-.259.829-.259h6.323c.415 0 .726.104.674.259l-.518 2.334zm-9.796 0c-.052.155-.415.259-.83.259h-6.531c-.414 0-.673-.104-.622-.259l.933-2.334c.052-.155.415-.259.83-.259h6.323c.415 0 .674.104.622.259l-.725 2.334zm-9.797 0c-.051.155-.466.259-.881.259h-6.531c-.414 0-.673-.104-.622-.259l1.193-2.334c.051-.155.466-.259.881-.259h6.323c.415 0 .674.104.622.259l-.985 2.334zm-9.796 0c-.104.155-.466.259-.881.259h-6.531c-.415 0-.674-.104-.57-.259l1.451-2.334c.104-.155.467-.259.881-.259h6.324c.415 0 .674.104.57.259l-1.244 2.334zm-9.796 0c-.104.155-.518.259-.933.259H92.037c-.415 0-.674-.104-.519-.259l1.814-2.334c.104-.155.519-.259.933-.259h9.797c.414 0 .673.104.57.259l-1.555 2.334zm2.384 1.037c.415 0 .674.104.57.259l-1.555 2.489c-.103.156-.518.311-.985.311h-14.46c-.415 0-.675-.155-.57-.311l1.969-2.489c.103-.155.57-.259.985-.259h14.046zm2.851 3.889c.415 0 .726.155.622.311l-1.503 2.748c-.104.156-.57.312-.985.312H85.868c-.466 0-.725-.156-.57-.312l2.126-2.748c.155-.156.57-.311 1.036-.311h19.852zm-15.964 4.2c.466 0 .725.156.57.311l-2.074 3.008c-.155.207-.622.363-1.088.363h-7.464c-.466 0-.725-.156-.57-.363l2.332-3.008c.156-.207.622-.311 1.089-.311h7.205zm2.591.363c.104-.207.57-.311 1.037-.311h7.153c.466 0 .725.156.622.311l-1.763 3.008c-.103.207-.57.363-1.088.363h-7.464c-.467 0-.726-.156-.622-.363l2.125-3.008zm10.833 0c.104-.207.57-.311 1.037-.311h9.226c.466 0 .777.156.674.311l-1.348 3.008c-.104.207-.518.363-1.037.363h-9.589c-.466 0-.777-.156-.673-.363l1.71-3.008zm8.034-5.393h-6.79c-.415 0-.726-.155-.622-.311l1.503-2.489c.104-.155.519-.259.933-.259h6.583c.415 0 .674.104.622.259l-1.244 2.489c-.156.208-.57.311-.985.311zm-4.406 3.889l1.452-2.748c.103-.156.518-.311.933-.311h6.841c.415 0 .726.155.674.311l-1.244 2.748c-.103.156-.518.312-.985.312h-7.101c-.414 0-.673-.156-.57-.312zm9.278 1.504c.104-.207.519-.311.985-.311h10.47c.467 0 .778.156.726.311l-.933 3.008c-.052.207-.518.363-.985.363h-10.885c-.466 0-.777-.156-.725-.363l1.347-3.008zm9.071-8.193c.052-.155.466-.259.881-.259h6.583c.414 0 .725.104.674.259l-.726 2.489c-.052.156-.415.311-.881.311h-6.79c-.415 0-.726-.155-.674-.311l.933-2.489zm-3.732 2.8h-6.79c-.415 0-.726-.155-.622-.311l1.192-2.489c.052-.155.467-.259.881-.259h6.583c.415 0 .726.104.622.259l-.985 2.489c-.052.208-.415.311-.881.311zm5.65 1.141l-.933 2.748c-.052.156-.467.312-.933.312H120.7c-.467 0-.778-.156-.674-.312l1.14-2.748c.052-.156.467-.311.933-.311h6.842c.467 0 .778.155.726.311zm1.036 2.748l.881-2.748c.052-.156.467-.311.882-.311h6.841c.415 0 .778.155.726.311l-.622 2.748c-.052.156-.415.312-.881.312h-7.101c-.466 0-.777-.156-.726-.312zm2.074 1.504c.051-.207.466-.311.933-.311h45.923c.466 0 .829.156.881.311l.57 3.008c.052.207-.311.363-.777.363h-47.634c-.466 0-.829-.156-.777-.363l.881-3.008zm35.453-8.452h6.582c.415 0 .778.104.778.259l.415 2.489c0 .156-.311.311-.726.311h-6.79c-.415 0-.777-.155-.777-.311l-.156-2.489c-.052-.155.259-.259.674-.259zm2.902 4.2l.26 2.748c0 .156-.311.312-.778.312h-7.101c-.466 0-.829-.156-.829-.312l-.052-2.748c0-.156.363-.311.777-.311h6.842c.519 0 .881.155.881.311zm-12.802-4.2h6.583c.414 0 .777.104.777.259l.104 2.489c0 .156-.311.311-.778.311h-6.79c-.414 0-.777-.155-.777-.311l.103-2.489c0-.155.363-.259.778-.259zm2.436 4.2v2.748c0 .156-.363.312-.829.312h-7.101c-.467 0-.778-.156-.778-.312l.259-2.748c0-.156.363-.311.83-.311h6.842c.466 0 .777.155.777.311zm-13.165-3.941c0-.155.362-.259.777-.259h6.583c.414 0 .725.104.725.259l-.155 2.489c0 .156-.363.311-.778.311h-6.79c-.414 0-.777-.155-.725-.311l.363-2.489zm-3.058 2.8h-6.842c-.415 0-.726-.155-.726-.311l.674-2.489c.052-.155.415-.259.829-.259h6.583c.414 0 .725.104.725.259l-.414 2.489c-.052.208-.415.311-.829.311zm5.857 1.141l-.311 2.748c0 .156-.415.312-.83.312h-7.101c-.466 0-.777-.156-.725-.312l.57-2.748c.052-.156.414-.311.829-.311h6.842c.415 0 .777.155.726.311zm23.013 2.748l-.311-2.748c0-.156.311-.311.778-.311h6.841c.415 0 .83.155.83.311l.57 2.748c.052.156-.311.312-.726.312h-7.101c-.518 0-.881-.156-.881-.312zm9.848 1.141h10.315c.466 0 .881.156.933.311l.985 3.008c.051.207-.26.363-.726.363H184.09c-.466 0-.881-.156-.933-.363l-.622-3.008c-.051-.155.26-.311.726-.311zm4.769-8.089h6.582c.415 0 .778.104.882.259l.933 2.489c.051.156-.26.311-.674.311h-6.79c-.415 0-.83-.155-.881-.311l-.726-2.489c-.052-.155.259-.259.674-.259zm-9.33 3.059c-.415 0-.829-.155-.829-.311l-.467-2.489c-.052-.155.311-.259.726-.259h6.582c.415 0 .778.104.83.259l.674 2.489c.051.156-.26.311-.726.311h-6.79zm13.217 1.141l.881 2.748c.052.156-.259.312-.725.312h-7.101c-.467 0-.83-.156-.882-.312l-.621-2.748c-.052-.156.259-.311.725-.311h6.842c.415 0 .829.155.881.311zm1.866 0c-.052-.156.259-.311.674-.311h6.842c.414 0 .829.155.933.311l1.192 2.748c.052.156-.207.312-.674.312h-7.101c-.466 0-.881-.156-.933-.312l-.933-2.748zm3.421 3.889h7.723c.466 0 .881.156.985.311l1.347 3.008c.104.207-.207.363-.673.363h-8.034c-.467 0-.933-.156-.985-.363l-1.037-3.008c-.103-.155.208-.311.674-.311zm2.021-5.03c-.414 0-.829-.155-.881-.311l-.985-2.489c-.051-.155.208-.259.623-.259h6.582c.415 0 .829.104.881.259l1.192 2.489c.104.156-.207.311-.622.311h-6.79zm9.278-.259l-1.244-2.489c-.103-.156.208-.259.622-.259h6.583c.415 0 .829.103.933.259l1.503 2.489c.104.155-.155.311-.622.311h-6.79c-.466-.052-.881-.156-.985-.311zm4.976 4.46h-7.101c-.466 0-.881-.156-.985-.312l-1.244-2.748c-.051-.156.208-.311.674-.311h6.842c.415 0 .881.155.933.311l1.503 2.748c.104.156-.155.312-.622.312zm-4.043 2.799h7.879c.466 0 .933.156 1.037.363l.57 1.038c.103.207-.208.363-.674.363h-7.982c-.467 0-.933-.156-1.037-.363l-.466-1.038c-.104-.207.207-.363.673-.363zm10.056-2.022h7.723c.466 0 .933.156 1.036.311l.571.83c.103.208-.156.363-.622.363h-7.879c-.466 0-.933-.155-1.036-.363l-.467-.83c-.104-.207.207-.311.674-.311zm1.244 2.126h7.93c.467 0 .933.156 1.089.363l.622.934c.155.207-.156.363-.622.363h-8.034c-.467 0-.933-.156-1.037-.363l-.57-.934c-.156-.207.155-.363.622-.363z" fill="url(#paint17_linear)"/><path opacity=".1" d="M274.951 370.684c.415 1.763 2.385 4.563 10.47 2.385 0 0 4.354-.674 3.681-4.563-1.089-6.586-5.235-9.593-5.235-9.593l-8.501-1.971s-2.592.415-2.592 1.089c0 .674 2.177 12.653 2.177 12.653z" fill="#000"/><path d="M284.851 372.291c-1.244.518-3.317 1.193-6.79 1.037-.829-.052-1.606-.311-2.332-.674-2.177-1.193-3.68-3.526-4.354-4.459-.933-1.245-5.702-8.764-6.272-9.646-.466-.622-.363-1.97-.777-2.903-.052-.052-.052-.156-.052-.208-.156-.518 0-1.14.363-1.503.155-.156.363-.363.622-.519.881-.57 3.11-1.192 5.027-1.555 1.918-.363 4.924-.415 7.983.57 2.021.674 4.665 3.163 6.79 6.222 2.125 3.06 2.954 6.741 2.902 9.438-.052 2.593-1.658 3.578-3.11 4.2z" fill="url(#paint18_linear)"/><path d="M275.781 372.654c-2.177-1.193-3.68-3.526-4.354-4.459-.933-1.245-5.701-8.764-6.272-9.645-.466-.623-.362-1.971-.777-2.904-.052-.052-.052-.156-.052-.208 1.659.882 3.162 2.956 4.976 6.223 2.177 3.889 4.198 8.038 5.08 9.386.362.518.881.933 1.399 1.607z" fill="url(#paint19_linear)"/><path opacity=".1" fill-rule="evenodd" clip-rule="evenodd" d="M-.382 375.662l-.777 1.296.518.519h44.317L66.74 358.29l4.147-2.333-11.404.518s-37.06 10.631-37.837 11.149c-.777.519-22.029 8.038-22.029 8.038z" fill="#000"/><path d="M37.975 376.958H.81a3.197 3.197 0 01-3.213-3.215 3.197 3.197 0 013.213-3.215h37.164v6.43z" fill="#fff"/><path d="M-.848 370.943l31.825-20.119 32.136-.26-25.138 19.964H.707c0-.051-.622-.052-1.555.415z" fill="#5FB8F4"/><path d="M37.975 376.958l25.397-21.52-.259-4.874-25.138 19.912v6.482z" fill="url(#paint20_linear)"/><path d="M41.085 369.698l-28.56-1.037-1.088-.052-5.65-.103a2.948 2.948 0 01-2.85-2.852c-.052-1.712 1.348-3.163 3.058-3.112l5.442.104 1.452.052 27.937.83.26 6.17z" fill="#fff"/><path d="M65.445 349.475l-3.887 2.23-9.278 5.237-11.455 6.534-27.937-.83-1.452-.052-5.546-.103s-.466 0-1.192.259l14.254-6.949 12.025-5.652 3.628-1.711 4.924.156 2.333.103 23.583.778z" fill="url(#paint21_linear)"/><path d="M61.558 351.705l-9.278 5.289-33.38-1.141 12.077-5.704 30.581 1.556z" fill="#79CAF9"/><path opacity=".3" d="M41.862 348.697l-29.026 14.001-.311.155v5.86l-1.088-.052v-6.482l.259-.155 27.833-13.378 2.333.051z" fill="#fff"/><path d="M40.826 363.476l.26 6.222 24.879-15.556-.519-4.615-24.62 13.949z" fill="url(#paint22_linear)"/><path opacity=".1" d="M349.227 366.38c8.817 0 15.964-1.463 15.964-3.267 0-1.804-7.147-3.267-15.964-3.267s-15.964 1.463-15.964 3.267c0 1.804 7.147 3.267 15.964 3.267z" fill="#000"/><path d="M363.792 329.252l-6.945 33.135c0 1.608-6.376 2.904-14.254 2.904-7.879 0-14.254-1.296-14.254-2.904l-6.945-33.135h42.398z" fill="url(#paint23_linear)"/><path d="M363.791 329.252v6.482c0 2.385-9.485 4.304-21.251 4.304-11.714 0-21.251-1.919-21.251-4.304v-6.482h42.502z" fill="#47B7FE"/><path d="M342.54 333.556c11.737 0 21.251-1.927 21.251-4.304 0-2.377-9.514-4.304-21.251-4.304-11.736 0-21.251 1.927-21.251 4.304 0 2.377 9.515 4.304 21.251 4.304z" fill="#88D3FF"/><path d="M362.806 329.252c-.052.259-1.296 1.296-5.805 2.178-2.384.467-5.235.778-8.345.985-1.97.104-4.043.207-6.168.207-2.332 0-4.561-.103-6.686-.207-2.903-.207-5.546-.519-7.775-.933-4.51-.882-5.702-1.919-5.805-2.178.052-.259 1.295-1.296 5.805-2.178a61.388 61.388 0 017.775-.933c2.125-.156 4.405-.208 6.686-.208 2.125 0 4.198.052 6.168.208 3.11.207 5.961.518 8.345.985 4.561.778 5.753 1.815 5.805 2.074z" fill="#009CFE"/><path d="M363.481 297.31a.686.686 0 00.673-.674.687.687 0 00-.673-.675h-.726v-3.63h.726a.686.686 0 00.673-.674.686.686 0 00-.673-.674h-.726c-.156-2.333-2.073-4.2-4.458-4.2h-.155a4.414 4.414 0 00-4.302 4.2h-.726a.686.686 0 00-.674.674c0 .363.311.674.674.674h.674v3.63h-.674a.687.687 0 00-.674.675c0 .363.311.674.674.674h.674v1.4h-4.872v-1.66h.57a.686.686 0 00.674-.674.686.686 0 00-.674-.674h-.57v-3.63h.57a.686.686 0 00.674-.674.686.686 0 00-.674-.674h-.57v-3.63h.57a.686.686 0 00.674-.674.686.686 0 00-.674-.674h-.57v-.259c0-3.526-2.903-6.43-6.427-6.43-3.525 0-6.428 2.904-6.428 6.43v.259h-.57a.686.686 0 00-.674.674c0 .363.311.674.674.674h.57v3.63h-.57a.686.686 0 00-.674.674c0 .363.311.674.674.674h.57v3.63h-.57a.686.686 0 00-.674.674c0 .363.311.674.674.674h.57v3.63h-.57a.686.686 0 00-.674.674c0 .363.311.674.674.674h.57v3.63h-.57a.686.686 0 00-.674.674c0 .363.311.675.674.675h.57v3.629h-4.613v-1.4h.415a.686.686 0 00.674-.674.686.686 0 00-.674-.674h-.415v-3.63h.415a.686.686 0 00.674-.674.686.686 0 00-.674-.674h-.415c-.155-2.282-2.021-4.148-4.354-4.2h-.103c-2.384 0-4.302 1.866-4.458 4.2h-.725a.686.686 0 00-.674.674c0 .363.311.674.674.674h.725v3.63h-.725a.686.686 0 00-.674.674c0 .363.311.674.674.674h.725v3.63h-.725a.686.686 0 00-.674.674c0 .363.311.674.674.674h.725v.83a4.458 4.458 0 004.458 4.459h9.07v1.141h-.57a.686.686 0 00-.674.674c0 .363.311.674.674.674h.57v3.63h-.57a.686.686 0 00-.674.674c0 .363.311.675.674.675h.57v5.133c2.074.155 4.199.207 6.428.207h.259c2.125 0 4.198-.052 6.168-.207v-5.186h.57a.686.686 0 00.674-.674.686.686 0 00-.674-.674h-.57v-3.629h.57a.686.686 0 00.674-.674.687.687 0 00-.674-.675h-.57v-3.63h.57a.686.686 0 00.674-.674.686.686 0 00-.674-.674h-.57v-3.63h.57a.686.686 0 00.674-.674.686.686 0 00-.674-.674h-.57v-3.059h9.381a4.458 4.458 0 004.458-4.459v-.83h.726a.686.686 0 00.673-.674.686.686 0 00-.673-.674h-.726v-3.63h.726z" fill="url(#paint24_linear)"/><path opacity=".1" d="M342.54 278.901v53.721c-2.228 0-4.353-.103-6.427-.207v-12.704h-9.07a4.46 4.46 0 01-4.458-4.46v-12.03a4.458 4.458 0 014.458-4.459h.103v14.934c0 .881.674 1.555 1.555 1.555h7.36v-29.92c.052-3.578 2.955-6.43 6.479-6.43zm15.654 7.83v13.949c0 1.245-.985 2.23-2.229 2.23h-6.997v-4.2h4.872v-7.571c0-2.385 1.97-4.356 4.354-4.408z" fill="#009CFE"/><path opacity=".1" d="M396.912 397.389c0 1.918-7.619 3.785-17.053 3.785-9.433 0-17.052-1.867-17.052-3.785 0-1.919 7.619-3.164 17.052-3.164 9.434 0 17.053 1.245 17.053 3.164z" fill="#000"/><path d="M392.663 367.106v28.779c0 1.556-4.458 2.852-10.626 3.267-1.4.103-2.903.156-4.458.156-8.345 0-15.135-1.452-15.135-3.371v-28.779h30.219v-.052z" fill="url(#paint25_linear)"/><path d="M392.662 368.143c0 1.918-6.79 3.785-15.135 3.785-8.345 0-15.135-1.867-15.135-3.785 0-1.919 6.79-3.163 15.135-3.163 8.396-.052 15.135 1.192 15.135 3.163z" fill="#88D3FF"/><path d="M391.832 368.143c0 .155-.674 1.037-3.835 1.815-.104.051-.208.052-.311.103-2.799.675-6.428 1.089-10.16 1.089-3.783 0-7.36-.363-10.159-1.089-.103 0-.207-.052-.311-.103-3.11-.83-3.835-1.66-3.835-1.815 0 0 .311-.83 3.887-1.556 2.695-.518 6.375-.829 10.418-.829 3.991 0 7.723.311 10.419.829 3.628.726 3.887 1.504 3.887 1.556z" fill="url(#paint26_linear)"/><path d="M387.737 370.01c-2.799.674-6.427 1.089-10.159 1.089-3.784 0-7.36-.363-10.159-1.089 2.695-.519 6.272-.778 10.159-.778 3.888 0 7.464.311 10.159.778z" fill="#1183E3"/><path opacity=".1" fill-rule="evenodd" clip-rule="evenodd" d="M44.351 410.093h-25.76c-2.436 0-3.525-.933-2.436-2.022l23.531-22.712c.778-.83 3.059-1.452 5.08-1.452H66.38c2.021 0 3.214.674 2.592 1.452L50.26 408.071c-.83 1.089-3.473 2.022-5.909 2.022z" fill="#000"/><path fill-rule="evenodd" clip-rule="evenodd" d="M41.448 409.522h-25.76c-2.436 0-3.68-3.059-2.592-4.2l23.687-20.586c.778-.83 2.592-3.785 4.613-3.785h23.636c2.021 0 1.71 2.955 1.088 3.785l-18.71 22.712c-.881 1.141-3.525 2.074-5.96 2.074z" fill="url(#paint27_linear)"/><path fill-rule="evenodd" clip-rule="evenodd" d="M41.448 406.93h-25.76c-2.437 0-3.525-.933-2.437-2.022l23.532-22.712c.778-.83 3.058-1.453 5.08-1.453h21.614c2.021 0 3.213.675 2.591 1.453l-18.711 22.712c-.83 1.089-3.473 2.022-5.909 2.022z" fill="url(#paint28_linear)"/><path d="M54.666 381.521H49.12c-.207 0-.415.052-.518.156-.052.104.051.156.259.156h5.546c.207 0 .414-.052.518-.156.052-.104-.052-.156-.26-.156zm-23.998 22.453c-1.348 0-2.903.519-3.421 1.089-.57.622.103 1.141 1.503 1.141s2.902-.519 3.472-1.141c.519-.622-.155-1.089-1.554-1.089z" fill="url(#paint29_linear)"/><path fill-rule="evenodd" clip-rule="evenodd" d="M16.932 402.626l20.37-19.705c.259-.311 1.14-.518 1.866-.518h23.894c.778 0 1.192.259.933.518l-17.26 19.705c-.31.363-1.244.674-2.073.674H17.76c-.777 0-1.192-.311-.83-.674z" fill="url(#paint30_linear)"/></g><defs><linearGradient id="paint0_linear" x1="117.873" y1="338.296" x2="117.873" y2="197.918" gradientUnits="userSpaceOnUse"><stop stop-color="#40A4FF"/><stop offset="1" stop-color="#311996"/></linearGradient><linearGradient id="paint1_linear" x1="366.769" y1="575.286" x2="366.769" y2="231.012" gradientUnits="userSpaceOnUse"><stop stop-color="#40A4FF"/><stop offset="1" stop-color="#311996"/></linearGradient><linearGradient id="paint2_linear" x1="257.229" y1="399.036" x2="353.864" y2="399.036" gradientUnits="userSpaceOnUse"><stop offset=".003" stop-color="#93DCFF"/><stop offset="1" stop-color="#0B7FE2"/></linearGradient><linearGradient id="paint3_linear" x1="257.577" y1="397.694" x2="353.843" y2="397.694" gradientUnits="userSpaceOnUse"><stop offset=".003" stop-color="#E5F8FE"/><stop offset="1" stop-color="#A8EBFB"/></linearGradient><linearGradient id="paint4_linear" x1="257.023" y1="383.326" x2="355.619" y2="413.461" gradientUnits="userSpaceOnUse"><stop offset=".007" stop-color="#61DCFE"/><stop offset="1" stop-color="#94B7F9"/></linearGradient><linearGradient id="paint5_linear" x1="301.971" y1="412.264" x2="301.769" y2="408.777" gradientUnits="userSpaceOnUse"><stop offset=".003" stop-color="#8DBCFA" stop-opacity="0"/><stop offset="1" stop-color="#57B3F2"/></linearGradient><linearGradient id="paint6_linear" x1="149.921" y1="342.532" x2="221.78" y2="342.532" gradientUnits="userSpaceOnUse"><stop offset=".003" stop-color="#93DCFF"/><stop offset="1" stop-color="#0B7FE2"/></linearGradient><linearGradient id="paint7_linear" x1="149.921" y1="341.223" x2="221.78" y2="341.223" gradientUnits="userSpaceOnUse"><stop offset=".003" stop-color="#E5F8FE"/><stop offset="1" stop-color="#A8EBFB"/></linearGradient><linearGradient id="paint8_linear" x1="64.316" y1="245.362" x2="308.208" y2="245.362" gradientUnits="userSpaceOnUse"><stop offset=".003" stop-color="#E5F8FE"/><stop offset="1" stop-color="#A8EBFB"/></linearGradient><linearGradient id="paint9_linear" x1="79.362" y1="164.325" x2="298.445" y2="283.577" gradientUnits="userSpaceOnUse"><stop offset=".007" stop-color="#61DCFE"/><stop offset="1" stop-color="#94B7F9"/></linearGradient><linearGradient id="paint10_linear" x1="104.145" y1="360.278" x2="260.581" y2="360.278" gradientUnits="userSpaceOnUse"><stop offset=".003" stop-color="#E5F8FE"/><stop offset="1" stop-color="#A8EBFB"/></linearGradient><linearGradient id="paint11_linear" x1="164.242" y1="374.453" x2="330.58" y2="375.801" gradientUnits="userSpaceOnUse"><stop offset=".003" stop-color="#93DCFF"/><stop offset="1" stop-color="#0B7FE2"/></linearGradient><linearGradient id="paint12_linear" x1="108.251" y1="360.037" x2="257.334" y2="360.037" gradientUnits="userSpaceOnUse"><stop offset=".003" stop-color="#93DCFF"/><stop offset="1" stop-color="#0B7FE2"/></linearGradient><linearGradient id="paint13_linear" x1="87.956" y1="278.841" x2="231.668" y2="369.91" gradientUnits="userSpaceOnUse"><stop offset=".007" stop-color="#61DCFE"/><stop offset="1" stop-color="#94B7F9"/></linearGradient><linearGradient id="paint14_linear" x1="62.055" y1="398.481" x2="261.289" y2="398.481" gradientUnits="userSpaceOnUse"><stop offset=".003" stop-color="#93DCFF"/><stop offset="1" stop-color="#0B7FE2"/></linearGradient><linearGradient id="paint15_linear" x1="62.059" y1="393.886" x2="261.285" y2="393.886" gradientUnits="userSpaceOnUse"><stop offset=".003" stop-color="#E5F8FE"/><stop offset="1" stop-color="#A8EBFB"/></linearGradient><linearGradient id="paint16_linear" x1="131.478" y1="402.827" x2="191.866" y2="402.827" gradientUnits="userSpaceOnUse"><stop offset=".003" stop-color="#93DCFF"/><stop offset="1" stop-color="#0B7FE2"/></linearGradient><linearGradient id="paint17_linear" x1="81.698" y1="385.407" x2="241.647" y2="385.407" gradientUnits="userSpaceOnUse"><stop offset=".003" stop-color="#93DCFF"/><stop offset="1" stop-color="#0B7FE2"/></linearGradient><linearGradient id="paint18_linear" x1="264.197" y1="362.441" x2="287.932" y2="362.441" gradientUnits="userSpaceOnUse"><stop offset=".003" stop-color="#E5F8FE"/><stop offset="1" stop-color="#A8EBFB"/></linearGradient><linearGradient id="paint19_linear" x1="264.307" y1="357.133" x2="288.559" y2="386.918" gradientUnits="userSpaceOnUse"><stop offset=".003" stop-color="#93DCFF"/><stop offset="1" stop-color="#0B7FE2"/></linearGradient><linearGradient id="paint20_linear" x1="48.103" y1="354.446" x2="52.956" y2="373.067" gradientUnits="userSpaceOnUse"><stop offset=".003" stop-color="#E5F8FE"/><stop offset="1" stop-color="#A8EBFB"/></linearGradient><linearGradient id="paint21_linear" x1="4.666" y1="355.981" x2="65.425" y2="355.981" gradientUnits="userSpaceOnUse"><stop offset=".003" stop-color="#E5F8FE"/><stop offset="1" stop-color="#A8EBFB"/></linearGradient><linearGradient id="paint22_linear" x1="51.558" y1="353.116" x2="54.942" y2="366.103" gradientUnits="userSpaceOnUse"><stop offset=".003" stop-color="#E5F8FE"/><stop offset="1" stop-color="#A8EBFB"/></linearGradient><linearGradient id="paint23_linear" x1="321.308" y1="347.276" x2="363.783" y2="347.276" gradientUnits="userSpaceOnUse"><stop offset=".003" stop-color="#E5F8FE"/><stop offset="1" stop-color="#A8EBFB"/></linearGradient><linearGradient id="paint24_linear" x1="342.685" y1="282.04" x2="342.685" y2="330.982" gradientUnits="userSpaceOnUse"><stop offset=".003" stop-color="#E5F8FE"/><stop offset="1" stop-color="#A8EBFB"/></linearGradient><linearGradient id="paint25_linear" x1="362.451" y1="383.18" x2="392.674" y2="383.18" gradientUnits="userSpaceOnUse"><stop offset=".003" stop-color="#E5F8FE"/><stop offset="1" stop-color="#A8EBFB"/></linearGradient><linearGradient id="paint26_linear" x1="363.271" y1="368.43" x2="391.851" y2="368.43" gradientUnits="userSpaceOnUse"><stop offset=".003" stop-color="#93DCFF"/><stop offset="1" stop-color="#0B7FE2"/></linearGradient><linearGradient id="paint27_linear" x1="12.671" y1="395.225" x2="66.549" y2="395.225" gradientUnits="userSpaceOnUse"><stop offset=".003" stop-color="#93DCFF"/><stop offset="1" stop-color="#0B7FE2"/></linearGradient><linearGradient id="paint28_linear" x1="35.502" y1="378.332" x2="44.681" y2="413.556" gradientUnits="userSpaceOnUse"><stop offset=".003" stop-color="#E5F8FE"/><stop offset="1" stop-color="#A8EBFB"/></linearGradient><linearGradient id="paint29_linear" x1="38.866" y1="407.99" x2="39.523" y2="403.514" gradientUnits="userSpaceOnUse"><stop offset=".003" stop-color="#8DBCFA" stop-opacity="0"/><stop offset="1" stop-color="#57B3F2"/></linearGradient><linearGradient id="paint30_linear" x1="36.693" y1="382.034" x2="44.358" y2="404.032" gradientUnits="userSpaceOnUse"><stop offset=".007" stop-color="#61DCFE"/><stop offset="1" stop-color="#94B7F9"/></linearGradient><filter id="filter0_f" x="-725.498" y="-158.847" width="1179.88" height="1180.04" filterUnits="userSpaceOnUse" color-interpolation-filters="sRGB"><feFlood flood-opacity="0" result="BackgroundImageFix"/><feBlend in="SourceGraphic" in2="BackgroundImageFix" result="shape"/><feGaussianBlur stdDeviation="200" result="effect1_foregroundBlur"/></filter><filter id="filter1_f" x="-307.737" y="-445.481" width="1179.88" height="1180.04" filterUnits="userSpaceOnUse" color-interpolation-filters="sRGB"><feFlood flood-opacity="0" result="BackgroundImageFix"/><feBlend in="SourceGraphic" in2="BackgroundImageFix" result="shape"/><feGaussianBlur stdDeviation="200" result="effect1_foregroundBlur"/></filter><clipPath id="clip0"><rect x="-71" width="517" height="403" rx="100" fill="#fff"/></clipPath></defs></svg>