<svg width="1800" height="400" fill="none" xmlns="http://www.w3.org/2000/svg"><g clip-path="url(#clip0)"><g opacity=".25" filter="url(#filter0_f)"><circle cx="527" cy="494" r="356" fill="#49C8FF" fill-opacity=".3"/></g><g opacity=".25" filter="url(#filter1_f)"><circle cx="1310" cy="-43" r="356" fill="#49C8FF" fill-opacity=".3"/></g><path d="M1002 320c72.35 0 131-58.875 131-131.5S1074.35 57 1002 57c-72.349 0-131 58.875-131 131.5S929.651 320 1002 320z" fill="url(#paint0_linear)"/><path d="M1468.5 764c177.56 0 321.5-144.388 321.5-322.5S1646.06 119 1468.5 119 1147 263.388 1147 441.5 1290.94 764 1468.5 764z" fill="url(#paint1_linear)"/><path d="M1483.03 327.242l94.52 82.381v74.707l-890.259-.098v-61.689l94.913-95.399 700.826.098z" fill="#EBF9FD"/><path d="M1187.7 373.581h-116.58c-6.31 0-10.69-6.023-8.45-11.657a382.151 382.151 0 007.58-20.596c4.66-13.795 7.77-17.001 8.64-43.036.2-4.566.2-9.812.2-16.029h45.66l54.69.388c0 4.08.19 8.937.29 13.6.1 4.76.29 8.744.58 12.241v1.651c1.36 15.641 4.18 19.819 7.97 31.185 2.33 6.995 5.25 14.572 7.58 20.596 2.52 5.634-1.85 11.657-8.16 11.657z" fill="url(#paint2_linear)"/><path d="M1187.7 371.153h-116.58c-6.31 0-10.69-6.023-8.45-11.658a381.836 381.836 0 007.58-20.596c4.66-13.794 7.77-17 8.64-43.036.2-4.566.2-9.812.2-16.029h45.66l54.69.388c0 4.08.19 8.938.29 13.601.1 4.76.29 8.743.58 12.241v1.651c1.36 15.64 4.18 19.818 7.97 31.184 2.33 6.995 5.25 14.573 7.58 20.596 2.52 5.635-1.85 11.658-8.16 11.658z" fill="url(#paint3_linear)"/><path opacity=".1" d="M1180.61 307.714l-101.72-11.949c.2-4.565.2-9.811.2-16.029h45.66l54.69.389c0 4.08.19 8.938.29 13.601.2 4.663.39 9.131.58 12.24v1.166c.2.291.3.388.3.582z" fill="#444D89"/><path d="M1348.67-2.866H911.702c-5.537 0-10.103 4.565-10.103 10.103v277.357c0 5.537 4.566 10.103 10.103 10.103h436.968c5.54 0 10.11-4.566 10.11-10.103V7.237c0-5.635-4.57-10.103-10.11-10.103z" fill="url(#paint4_linear)"/><path d="M1358.78-14.816v250.253H901.695V-14.816c0-7.869 5.926-14.183 13.212-14.183h430.653c7.29-.097 13.22 6.314 13.22 14.183z" fill="#5075D9"/><path d="M1341.77-11.221v229.463H919.765l.68-229.463h421.325z" fill="url(#paint5_linear)"/><path d="M1094.46 95.181h19.49c2.17 0 3.9 1.742 3.9 3.92a3.89 3.89 0 01-3.9 3.918h-19.49c.72 9.87 8.95 17.563 18.91 17.563h.73c2.16 0 3.89 1.741 3.89 3.919 0 2.177-1.73 3.919-3.89 3.919h-.73c-9.96 0-18.19 7.692-18.91 17.562h51.83c9.96 0 18.19-7.693 18.91-17.562h-19.49c-2.17 0-3.9-1.742-3.9-3.919a3.89 3.89 0 013.9-3.919h19.49c-.72-9.87-8.95-17.563-18.91-17.563h-.72a3.89 3.89 0 01-3.9-3.919 3.891 3.891 0 013.9-3.918h.72c9.96 0 18.19-7.693 18.91-17.563h-51.83c-9.96 0-18.19 7.693-18.91 17.563z" fill="#D1F2FF"/><path d="M1269.5 385.53H976.306c.097-.485.388-.972.583-1.36l22.635-45.951c.388-.874 1.266-1.36 2.236-1.36h242.09c.97 0 1.75.486 2.23 1.36l23.03 45.951c.1.486.19.875.39 1.36z" fill="url(#paint6_linear)"/><path d="M1269.59 386.307v1.652c0 1.457-1.45 2.623-3.2 2.623H979.317c-1.748 0-3.206-1.166-3.206-2.623v-1.166c0-.583.097-.972.097-1.166H1269.4c.1.097.19.292.19.68z" fill="url(#paint7_linear)"/><path fill-rule="evenodd" clip-rule="evenodd" d="M1262.21 381.255l-14.86-.096c-.88 0-1.75-.389-1.94-.972l-1.07-2.623c-.2-.486.29-.875 1.16-.875l14.67.098c.88 0 1.75.388 1.94.874l1.27 2.721c.19.485-.29.873-1.17.873zm-8.35-11.949l-34.98-.096c-.87 0-1.65-.389-1.74-.875l-2.34-7.189c-.09-.486.39-.777 1.17-.777h33.9c.78 0 1.66.388 1.85.777l3.3 7.286c.2.485-.29.874-1.16.874zm-5.05-11.172h-24.39c-.78 0-1.55-.388-1.75-.777l-2.43-6.703c-.19-.389.39-.777 1.17-.777l23.61-.097c.77 0 1.55.291 1.75.777l3.1 6.703c.3.583-.19.874-1.06.874zm-4.67-10.297H1232c-.78 0-1.56-.292-1.65-.778l-2.53-6.217c-.19-.388.29-.68 1.07-.68l11.85-.097c.78 0 1.46.291 1.65.68l2.92 6.217c.1.583-.39.875-1.17.875zm-18.26.097h-12.05c-.77 0-1.45-.291-1.65-.777l-2.04-6.218c-.1-.388.39-.68 1.07-.68l11.75-.097c.78 0 1.46.292 1.66.68l2.42 6.217c.1.486-.38.875-1.16.875zm-18.17 0h-11.95c-.77 0-1.45-.292-1.55-.68l-1.65-6.217c-.1-.389.39-.68 1.16-.68l11.66-.098c.78 0 1.46.292 1.55.68l2.05 6.218c0 .486-.49.777-1.27.777zm-18.07.097h-11.85c-.78 0-1.46-.291-1.55-.68l-1.27-6.121c-.09-.388.49-.679 1.17-.679l11.56-.098c.78 0 1.46.292 1.55.681l1.56 6.217c.19.292-.39.68-1.17.68zm-17.87 0h-11.76c-.77 0-1.36-.291-1.45-.68l-.78-6.121c-.1-.388.48-.679 1.26-.679l11.46-.098c.78 0 1.36.292 1.46.681l1.17 6.12c0 .485-.59.777-1.36.777zm-17.68.097h-11.76c-.78 0-1.36-.291-1.36-.68l-.39-6.12c0-.388.59-.68 1.27-.68l11.36-.097c.68 0 1.36.291 1.36.679l.78 6.121c0 .389-.58.777-1.26.777zm-17.68 0h-11.66c-.78 0-1.36-.291-1.36-.68v-6.12c0-.388.58-.68 1.26-.68l11.27-.097c.68 0 1.36.291 1.36.679l.29 6.121c.2.486-.39.777-1.16.777zm-17.49.097h-11.56c-.78 0-1.26-.291-1.26-.68l.38-6.12c0-.389.59-.68 1.36-.68h11.18c.68 0 1.26.291 1.26.68l-.1 6.12c.1.291-.48.68-1.26.68zm-17.29 0h-11.47c-.68 0-1.26-.291-1.26-.68l.78-6.022c.09-.389.68-.681 1.36-.681l11.17-.097c.68 0 1.26.291 1.26.68l-.48 6.12c0 .389-.68.68-1.36.68zm-15.84-.68c-.1.389-.68.68-1.46.68h-11.36c-.68 0-1.26-.291-1.17-.68l1.17-6.022c.1-.389.68-.681 1.36-.681h11.07c.68 0 1.27.292 1.17.681l-.78 6.022zm-17 .098c-.1.388-.78.68-1.46.68h-11.27c-.68 0-1.16-.292-1.06-.68l1.55-6.024c.1-.388.78-.68 1.46-.68h10.98c.68 0 1.16.292 1.16.68l-1.36 6.024zm-16.9 0c-.1.388-.78.68-1.46.68h-11.17c-.68 0-1.17-.292-1.07-.68l1.94-6.024c.1-.388.78-.68 1.46-.68h10.88c.68 0 1.17.292 1.07.68l-1.65 6.024zm-16.81.096c-.1.389-.78.681-1.55.681h-11.08c-.68 0-1.16-.292-.97-.681l2.33-5.925c.1-.389.78-.68 1.46-.68h10.78c.68 0 1.17.291 1.07.68l-2.04 5.925zm-16.71 0c-.19.389-.87.681-1.55.681h-17.101c-.68 0-1.069-.292-.972-.681l2.813-5.925c.2-.389.88-.68 1.56-.68l16.61-.097c.68 0 1.17.291.97.679l-2.33 6.023zm4.08 2.624c.68 0 1.17.291.97.68l-2.43 6.411c-.19.389-.87.777-1.65.777h-24.284c-.68 0-1.166-.291-.972-.777l3.012-6.411c.194-.389.874-.68 1.651-.68h23.703zm5.15 10.006c.78 0 1.26.388 1.07.777l-2.33 6.898c-.2.485-.88.777-1.65.777l-34.394-.097c-.778 0-1.166-.389-.972-.778l3.206-6.897c.194-.389.971-.777 1.651-.777l33.419.097zm-26.42 10.589c.77 0 1.26.388 1.06.874l-3.104 7.48c-.194.486-.971.875-1.749.875l-12.24-.098c-.777 0-1.263-.388-.972-.873l3.498-7.384c.194-.486.971-.874 1.748-.777l11.759-.097zm4.27.874c.19-.486.97-.874 1.75-.874h11.95c.78 0 1.26.388 1.07.874l-2.72 7.48c-.2.486-.97.875-1.75.875l-12.34-.098c-.78 0-1.26-.388-1.07-.873l3.11-7.384zm18.17 0c.19-.486.87-.874 1.65-.874h15.54c.78 0 1.27.388 1.17.874l-2.14 7.48c-.1.486-.87.875-1.65.875l-16.03-.098c-.78 0-1.26-.388-1.17-.873l2.63-7.384zm13.21-13.601h-11.56c-.78 0-1.17-.291-1.07-.777l2.33-6.411c.1-.389.88-.68 1.56-.68h11.17c.68 0 1.16.291 1.07.68l-2.04 6.411c0 .486-.68.777-1.46.777zm-7.19 9.813l2.33-6.898c.1-.389.88-.777 1.56-.777h11.65c.78 0 1.27.388 1.17.777l-1.94 6.994c-.1.486-.88.777-1.65.777h-12.05c-.78 0-1.26-.388-1.07-.873zm15.74 3.886c.1-.486.87-.875 1.65-.875h17.88c.77 0 1.36.389 1.26.875l-1.56 7.577c-.09.486-.87.875-1.65.875l-18.36-.098c-.78 0-1.36-.388-1.16-.874l1.94-7.48zm15.25-20.887c.1-.389.78-.68 1.46-.68h11.36c.68 0 1.27.291 1.17.68l-1.17 6.509c-.09.389-.77.777-1.45.777h-11.76c-.78 0-1.26-.388-1.16-.777l1.55-6.509zm-6.31 7.188h-11.66c-.78 0-1.26-.388-1.07-.777l1.94-6.411c.1-.389.78-.68 1.56-.68h11.27c.68 0 1.26.291 1.16.68l-1.55 6.509c-.2.389-.88.679-1.65.679zm9.71 2.915l-1.46 6.994c-.09.486-.77.777-1.55.777h-12.14c-.78 0-1.27-.388-1.17-.777l1.85-6.994c.09-.389.77-.777 1.55-.777h11.75c.78 0 1.27.291 1.17.777zm1.85 6.994l1.45-6.994c.1-.389.78-.777 1.56-.777h11.85c.78 0 1.36.388 1.26.777l-1.07 6.994c-.09.486-.77.875-1.55.875h-12.24c-.78-.097-1.36-.486-1.26-.875zm3.59 3.79c.1-.486.78-.875 1.56-.875l80.14.194c.78 0 1.46.389 1.56.875l.77 7.674c.1.486-.58.875-1.45.875l-82.77-.389c-.78 0-1.36-.388-1.27-.874l1.46-7.48zm62.08-21.762h11.75c.78 0 1.36.291 1.46.777l.49 6.607c0 .389-.59.777-1.36.777h-12.15c-.77 0-1.36-.388-1.36-.777l-.19-6.607c0-.486.58-.777 1.36-.777zm4.95 10.978l.29 7.092c0 .486-.58.874-1.36.874h-12.53c-.78 0-1.46-.388-1.46-.874l.1-7.092c0-.389.58-.777 1.36-.777h12.15c.77 0 1.45.291 1.45.777zm-22.54-10.978h11.66c.78 0 1.36.291 1.36.777l.1 6.607c0 .389-.58.777-1.36.777h-12.05c-.77 0-1.36-.388-1.36-.777l.29-6.509c0-.486.59-.875 1.36-.875zm4.18 10.978l-.1 7.092c0 .486-.68.874-1.45.874h-12.44c-.77 0-1.36-.388-1.36-.874l.49-7.092c0-.389.68-.777 1.46-.777h12.04c.78 0 1.36.291 1.36.777zm-23.02-10.201c0-.388.68-.777 1.36-.777h11.56c.78 0 1.36.291 1.26.777l-.39 6.509c0 .389-.68.777-1.45.777h-11.95c-.78 0-1.36-.388-1.27-.777l.88-6.509zm-5.44 7.286h-11.85c-.78 0-1.27-.388-1.27-.777l1.07-6.509c.1-.388.68-.777 1.46-.777h11.46c.78 0 1.26.292 1.26.68l-.77 6.509c.09.583-.59.874-1.36.874zm10.3 2.915l-.59 6.994c0 .486-.68.875-1.45.875h-12.34c-.78 0-1.36-.389-1.27-.875l.98-6.994c.09-.389.68-.777 1.45-.777h11.95c.68 0 1.27.291 1.27.777zm40.31 7.092l-.39-7.092c0-.486.59-.777 1.36-.777h12.24c.78 0 1.46.388 1.46.777l.78 7.092c.1.486-.58.874-1.36.874h-12.63c-.78 0-1.46-.388-1.46-.874zm17.39 3.108h18.46c.78 0 1.55.389 1.65.875l1.46 7.772c.09.485-.49.874-1.36.874l-19.04-.097c-.88 0-1.56-.388-1.65-.874l-.88-7.675c0-.486.58-.875 1.36-.875zm9.42-21.275h11.95c.78 0 1.46.292 1.56.777l1.36 6.606c.1.389-.49.777-1.26.777h-12.34c-.78 0-1.46-.388-1.56-.777l-1.07-6.606c0-.485.59-.777 1.36-.777zm-17.09 8.16c-.78 0-1.46-.388-1.46-.777l-.58-6.606c0-.388.58-.777 1.26-.777h11.85c.78 0 1.46.292 1.46.777l.97 6.606c.1.389-.49.777-1.26.777h-12.24zm23.6 2.915l1.27 7.189c.09.486-.49.875-1.36.875h-12.73c-.78 0-1.55-.389-1.55-.875l-.88-7.092c-.1-.485.58-.777 1.36-.777h12.34c.78-.097 1.46.194 1.55.68zm3.4 0c-.09-.486.49-.777 1.27-.777h12.43c.78 0 1.56.388 1.65.777l1.75 7.189c.1.486-.48.875-1.26.875h-12.82c-.78 0-1.56-.389-1.66-.875l-1.36-7.189zm5.64 10.2h13.99c.77 0 1.55.389 1.75.875l2.04 7.772c.09.485-.49.874-1.27.874l-14.47-.097c-.88 0-1.65-.389-1.75-.972l-1.55-7.772c-.1-.291.48-.68 1.26-.68zm4.27-13.115c-.77 0-1.45-.388-1.55-.777l-1.46-6.606c-.1-.388.49-.777 1.17-.777h12.04c.78 0 1.46.292 1.56.777l1.84 6.704c.1.389-.39.777-1.16.777l-12.44-.098zm17-.874l-1.94-6.703c-.1-.389.39-.777 1.17-.777h12.14c.78 0 1.55.291 1.65.777l2.33 6.703c.2.389-.39.777-1.16.777h-12.54c-.77.098-1.45-.291-1.65-.777zm8.46 11.853h-12.93c-.77 0-1.55-.389-1.74-.875l-1.85-7.189c-.1-.486.39-.777 1.26-.777h12.54c.77 0 1.55.388 1.65.777l2.23 7.189c.2.486-.39.875-1.16.875zm-7.87 7.383l14.37.096c.88 0 1.66.389 1.85.875l.87 2.623c.2.486-.38.971-1.26.874l-14.57-.097c-.88 0-1.65-.388-1.75-.971l-.68-2.623c-.19-.389.29-.777 1.17-.777zm18.65-5.344h14.28c.87 0 1.65.389 1.85.875l.87 2.234c.19.486-.29.874-1.17.874h-14.47c-.88 0-1.65-.388-1.85-.874l-.77-2.234c-.1-.486.48-.875 1.26-.875zm1.94 5.538l14.48.097c.87 0 1.75.389 1.94.874l.97 2.526c.2.486-.29.971-1.16.971l-14.77-.096c-.88 0-1.75-.389-1.85-.972l-.87-2.429c-.1-.582.39-.971 1.26-.971z" fill="url(#paint8_linear)"/><path fill-rule="evenodd" clip-rule="evenodd" d="M958.917 204.155h250.353c5.15 0 9.32 4.177 9.32 9.326v170.398c0 5.148-4.17 9.325-9.32 9.325H958.917c-5.149 0-9.326-4.177-9.326-9.325V213.481c0-5.246 4.177-9.326 9.326-9.326z" fill="#5075D9"/><path d="M1084.04 209.984c.97 0 1.75-.782 1.75-1.748s-.78-1.749-1.75-1.749c-.96 0-1.75.783-1.75 1.749 0 .966.79 1.748 1.75 1.748z" fill="#81C5FB"/><path fill-rule="evenodd" clip-rule="evenodd" d="M958.043 378.146V214.259c0-1.069.874-1.846 1.846-1.846H1208.2c1.07 0 1.84.875 1.84 1.846v163.887c0 1.069-.87 1.847-1.84 1.847H959.889a1.845 1.845 0 01-1.846-1.847z" fill="url(#paint9_linear)"/><path d="M1061.96 283.037h15.81a3.16 3.16 0 013.16 3.178 3.16 3.16 0 01-3.16 3.178h-15.81c.59 8.004 7.26 14.243 15.34 14.243h.58c1.76 0 3.16 1.412 3.16 3.178s-1.4 3.178-3.16 3.178h-.58c-8.08 0-14.75 6.239-15.34 14.243h42.02c8.08 0 14.75-6.239 15.34-14.243h-15.8a3.161 3.161 0 01-3.17-3.178 3.161 3.161 0 013.17-3.178h15.8c-.59-8.004-7.26-14.243-15.34-14.243h-.58a3.153 3.153 0 01-3.16-3.178c0-1.766 1.4-3.178 3.16-3.178h.58c8.08 0 14.75-6.239 15.34-14.243h-42.02c-8.08 0-14.75 6.239-15.34 14.243z" fill="#D1F2FF"/><path fill-rule="evenodd" clip-rule="evenodd" d="M1270.76 462.763v-6.606h-6.12l-41.87-53.431c-1.65-2.04-5.15-3.693-7.87-3.693H953.477c-2.72 0-6.217 1.653-7.869 3.693l-42.065 53.431h-6.314v7.965c.097 1.457 1.262 2.429 3.303 2.429h365.958c2.81 0 4.27-1.554 4.27-3.788z" fill="url(#paint10_linear)"/><path fill-rule="evenodd" clip-rule="evenodd" d="M1269.11 451.979l-46.15-58.968c-1.65-2.04-5.15-3.693-7.87-3.693H953.67c-2.72 0-6.217 1.653-7.869 3.693l-46.436 58.968c-3.012 3.788-2.429 6.995 1.457 6.995h366.828c3.79 0 4.08-3.595 1.46-6.995z" fill="url(#paint11_linear)"/><path fill-rule="evenodd" clip-rule="evenodd" d="M1232.78 422.738h-15.06c-.88 0-1.85-.292-2.04-.681l-1.36-1.943c-.29-.388.29-.68 1.16-.68h14.77c.87 0 1.85.292 2.04.68l1.46 1.943c.48.292 0 .681-.97.681zm-9.33-8.549h-35.56c-.87 0-1.65-.292-1.84-.584l-2.92-5.148c-.19-.292.39-.583 1.17-.583h34.29c.78 0 1.65.291 1.95.583l3.98 5.148c.29.292-.2.584-1.07.584zm-6.02-7.87h-24.68c-.78 0-1.65-.291-1.84-.582l-2.92-4.663c-.19-.292.29-.486 1.07-.486h23.8c.78 0 1.55.194 1.85.486l3.59 4.663c.39.388 0 .582-.87.582zm-5.44-7.188h-12.24c-.78 0-1.56-.194-1.75-.486l-2.92-4.371c-.19-.292.29-.486 1.07-.486H1208c.78 0 1.56.194 1.75.486l3.3 4.371c.2.292-.29.486-1.06.486zm-18.46 0h-12.24c-.78 0-1.56-.194-1.65-.486l-2.53-4.371c-.19-.292.29-.486 1.07-.486h11.85c.78 0 1.46.194 1.65.486l2.92 4.371c.19.292-.29.486-1.07.486zm-18.36 0h-12.24c-.78 0-1.56-.194-1.65-.486l-2.04-4.371c-.1-.292.38-.486 1.16-.486h11.85c.78 0 1.46.194 1.65.486l2.43 4.371c.1.292-.39.486-1.16.486zm-18.46 0h-12.24c-.78 0-1.46-.194-1.56-.486l-1.55-4.371c-.1-.292.49-.486 1.17-.486h11.85c.77 0 1.45.194 1.55.486l1.94 4.371c.2.292-.38.486-1.16.486zm-18.36 0h-12.24c-.78 0-1.46-.194-1.56-.486l-1.07-4.371c-.09-.292.49-.486 1.27-.486h11.85c.78 0 1.46.194 1.55.486l1.46 4.371c0 .292-.48.486-1.26.486zm-18.46 0h-12.24c-.78 0-1.46-.194-1.46-.486l-.58-4.371c0-.292.58-.486 1.26-.486h11.85c.78 0 1.46.194 1.46.486l.97 4.371c.1.292-.48.486-1.26.486zm-18.46 0h-12.24c-.78 0-1.46-.194-1.46-.486l-.09-4.371c0-.292.58-.486 1.36-.486h11.85c.78 0 1.36.194 1.46.486l.48 4.371c.1.292-.58.486-1.36.486zm-18.36 0h-12.24c-.78 0-1.36-.194-1.36-.486l.39-4.371c0-.292.68-.486 1.36-.486h11.85c.78 0 1.36.194 1.36.486v4.371c0 .292-.58.486-1.36.486zm-18.46 0h-12.24c-.77 0-1.36-.194-1.26-.486l.87-4.371c.1-.292.68-.486 1.46-.486h11.85c.78 0 1.36.194 1.27.486l-.49 4.371c0 .292-.68.486-1.46.486zm-16.9-.486c-.1.292-.78.486-1.55.486h-12.25c-.77 0-1.36-.194-1.26-.486l1.36-4.371c.1-.292.78-.486 1.56-.486h11.85c.78 0 1.36.194 1.26.486l-.97 4.371zm-18.36 0c-.1.292-.78.486-1.56.486h-12.24c-.77 0-1.26-.194-1.16-.486l1.75-4.371c.09-.292.77-.486 1.55-.486h11.85c.78 0 1.27.194 1.17.486l-1.36 4.371zm-18.36 0c-.1.292-.88.486-1.65.486h-12.245c-.777 0-1.262-.194-1.165-.486l2.234-4.371c.097-.292.874-.486 1.652-.486h11.854c.77 0 1.26.194 1.16.486l-1.84 4.371zm-18.363 0c-.195.292-.875.486-1.652.486h-12.24c-.778 0-1.263-.194-1.069-.486l2.72-4.371c.194-.292.874-.486 1.652-.486h11.852c.777 0 1.263.194 1.068.486l-2.331 4.371zm-18.361 0c-.195.292-.972.486-1.749.486h-18.944c-.777 0-1.263-.194-.971-.486l3.4-4.371c.194-.292.971-.486 1.749-.486h18.361c.777 0 1.263.194 1.068.486l-2.914 4.371zm4.469 1.943c.777 0 1.263.194 1.068.486l-2.914 4.663c-.194.291-.972.582-1.846.582h-27.104c-.777 0-1.263-.291-1.069-.582l3.692-4.663c.194-.292 1.068-.486 1.846-.486h26.327zm5.343 7.286c.777 0 1.36.291 1.166.583l-2.818 5.148c-.194.292-1.068.584-1.846.584h-38.567c-.875 0-1.36-.292-1.069-.584l3.983-5.148c.292-.292 1.069-.583 1.943-.583h37.208zm-29.922 7.869c.875 0 1.36.292 1.069.583l-3.886 5.635c-.291.388-1.166.68-2.04.68H935.31c-.875 0-1.36-.292-1.069-.68l4.372-5.635c.291-.388 1.165-.583 2.04-.583h13.503zm4.858.68c.194-.389 1.068-.582 1.943-.582h13.406c.874 0 1.36.291 1.166.582l-3.303 5.634c-.195.389-1.069.681-2.04.681h-13.99c-.874 0-1.36-.292-1.165-.681l3.983-5.634zm20.304 0c.194-.389 1.068-.582 1.942-.582h17.293c.874 0 1.457.291 1.263.582l-2.526 5.634c-.194.389-.972.681-1.943.681h-17.972c-.875 0-1.458-.292-1.263-.681l3.206-5.634zm15.057-10.104h-12.726c-.777 0-1.36-.291-1.166-.582l2.818-4.663c.194-.292.971-.486 1.748-.486h12.338c.777 0 1.263.194 1.166.486l-2.332 4.663c-.291.388-1.068.582-1.846.582zm-8.257 7.286l2.72-5.148c.194-.292.971-.583 1.749-.583h12.823c.78 0 1.36.291 1.26.583l-2.33 5.148c-.19.292-.97.584-1.84.584h-13.314c-.777 0-1.262-.292-1.068-.584zm17.392 2.818c.19-.389.97-.582 1.84-.582h19.63c.87 0 1.45.291 1.36.582l-1.75 5.634c-.1.389-.97.681-1.85.681h-20.4c-.87 0-1.46-.292-1.36-.681l2.53-5.634zm17-15.349c.1-.292.87-.486 1.65-.486h12.34c.77 0 1.36.194 1.26.486l-1.36 4.663c-.1.291-.78.582-1.65.582h-12.73c-.77 0-1.36-.291-1.26-.582l1.75-4.663zm-7 5.245h-12.72c-.78 0-1.363-.291-1.169-.582l2.239-4.663c.09-.292.87-.486 1.65-.486h12.34c.77 0 1.36.194 1.16.486l-1.84 4.663c-.1.388-.78.582-1.66.582zm10.59 2.138l-1.75 5.148c-.09.292-.87.584-1.74.584h-13.31c-.88 0-1.46-.292-1.27-.584l2.14-5.148c.1-.292.87-.583 1.75-.583h12.82c.88 0 1.46.291 1.36.583zm1.95 5.148l1.65-5.148c.09-.292.87-.583 1.65-.583h12.82c.78 0 1.46.291 1.36.583l-1.16 5.148c-.1.292-.78.584-1.66.584h-13.3c-.88 0-1.46-.292-1.36-.584zm3.88 2.818c.1-.389.88-.582 1.75-.582h86.07c.88 0 1.56.291 1.65.582l1.07 5.634c.1.389-.58.681-1.45.681h-89.28c-.88 0-1.56-.292-1.46-.681l1.65-5.634zm66.45-15.835h12.34c.78 0 1.46.194 1.46.486l.77 4.663c0 .291-.58.582-1.36.582h-12.72c-.78 0-1.46-.291-1.46-.582l-.29-4.663c-.1-.292.48-.486 1.26-.486zm5.44 7.869l.49 5.148c0 .292-.59.584-1.46.584h-13.31c-.87 0-1.55-.292-1.55-.584l-.1-5.148c0-.292.68-.583 1.46-.583h12.82c.97 0 1.65.291 1.65.583zm-23.99-7.869h12.33c.78 0 1.46.194 1.46.486l.19 4.663c0 .291-.58.582-1.45.582h-12.73c-.78 0-1.46-.291-1.46-.582l.2-4.663c0-.292.68-.486 1.46-.486zm4.56 7.869v5.148c0 .292-.68.584-1.55.584h-13.31c-.88 0-1.46-.292-1.46-.584l.49-5.148c0-.292.68-.583 1.55-.583h12.82c.88 0 1.46.291 1.46.583zm-24.67-7.383c0-.292.68-.486 1.45-.486h12.34c.78 0 1.36.194 1.36.486l-.29 4.663c0 .291-.68.582-1.46.582h-12.72c-.78 0-1.46-.291-1.36-.582l.68-4.663zm-5.74 5.245h-12.82c-.78 0-1.36-.291-1.36-.582l1.26-4.663c.1-.292.78-.486 1.56-.486h12.34c.77 0 1.36.194 1.36.486l-.78 4.663c-.1.388-.78.582-1.56.582zm10.98 2.138l-.58 5.148c0 .292-.78.584-1.56.584h-13.3c-.88 0-1.46-.292-1.36-.584l1.06-5.148c.1-.292.78-.583 1.56-.583h12.82c.78 0 1.46.291 1.36.583zm43.14 5.148l-.59-5.148c0-.292.59-.583 1.46-.583h12.82c.78 0 1.56.291 1.56.583l1.07 5.148c.09.292-.59.584-1.36.584h-13.31c-.97 0-1.65-.292-1.65-.584zm18.45 2.138h19.34c.87 0 1.65.292 1.74.583l1.85 5.635c.1.388-.49.68-1.36.68h-20.01c-.88 0-1.65-.292-1.75-.68l-1.17-5.635c-.09-.291.49-.583 1.36-.583zm8.94-15.155h12.34c.78 0 1.46.194 1.65.486l1.75 4.663c.1.291-.49.582-1.26.582h-12.73c-.78 0-1.55-.291-1.65-.582l-1.36-4.663c-.1-.292.48-.486 1.26-.486zm-17.49 5.731c-.77 0-1.55-.291-1.55-.582l-.87-4.663c-.1-.292.58-.486 1.36-.486h12.33c.78 0 1.46.194 1.56.486l1.26 4.663c.1.291-.49.582-1.36.582H1116zm24.78 2.138l1.65 5.148c.1.292-.49.584-1.36.584h-13.31c-.88 0-1.56-.292-1.65-.584l-1.17-5.148c-.1-.292.49-.583 1.36-.583h12.83c.77 0 1.55.291 1.65.583zm3.49 0c-.09-.292.49-.583 1.27-.583h12.82c.78 0 1.56.291 1.75.583l2.23 5.148c.1.292-.38.584-1.26.584h-13.31c-.87 0-1.65-.292-1.75-.584l-1.75-5.148zm6.42 7.286h14.47c.88 0 1.65.292 1.85.583l2.52 5.635c.2.388-.39.68-1.26.68h-15.06c-.87 0-1.75-.292-1.84-.68l-1.95-5.635c-.19-.291.39-.583 1.27-.583zm3.78-9.424c-.77 0-1.55-.291-1.65-.582l-1.84-4.663c-.1-.292.39-.486 1.16-.486h12.34c.78 0 1.56.194 1.65.486l2.24 4.663c.19.291-.39.582-1.17.582h-12.73zm17.39-.485l-2.33-4.663c-.19-.292.39-.486 1.17-.486h12.34c.77 0 1.55.194 1.74.486l2.82 4.663c.2.291-.29.583-1.16.583h-12.73c-.87-.097-1.65-.292-1.85-.583zm9.33 8.355h-13.31c-.87 0-1.65-.292-1.84-.584l-2.34-5.148c-.09-.292.39-.583 1.27-.583h12.82c.78 0 1.65.291 1.75.583l2.82 5.148c.19.292-.3.584-1.17.584zm-7.58 5.245h14.77c.87 0 1.75.292 1.94.68l1.07 1.943c.2.389-.39.681-1.26.681h-14.96c-.88 0-1.75-.292-1.95-.681l-.87-1.943c-.19-.388.39-.68 1.26-.68zm18.85-3.788h14.47c.88 0 1.75.291 1.95.583l1.07 1.554c.19.389-.3.68-1.17.68h-14.77c-.87 0-1.74-.291-1.94-.68l-.87-1.554c-.2-.389.39-.583 1.26-.583zm2.33 3.983h14.86c.88 0 1.75.291 2.04.68l1.17 1.748c.29.389-.29.681-1.17.681h-15.05c-.88 0-1.75-.292-1.95-.681l-1.06-1.748c-.3-.389.29-.68 1.16-.68z" fill="url(#paint12_linear)"/><path opacity=".1" d="M1296.41 380.673c.78 3.303 4.47 8.548 19.62 4.468 0 0 8.16-1.262 6.9-8.549-2.04-12.337-9.81-17.972-9.81-17.972l-15.93-3.691s-4.86.777-4.86 2.039c0 1.263 4.08 23.705 4.08 23.705z" fill="#000"/><path d="M1314.96 383.684c-2.33.971-6.21 2.234-12.72 1.943-1.56-.097-3.02-.583-4.38-1.263-4.08-2.234-6.89-6.606-8.16-8.354-1.74-2.332-10.68-16.419-11.75-18.07-.88-1.166-.68-3.692-1.46-5.44-.1-.097-.1-.292-.1-.389-.29-.972 0-2.137.68-2.817.3-.291.68-.68 1.17-.971 1.65-1.069 5.83-2.235 9.42-2.915 3.6-.68 9.23-.777 14.96 1.068 3.79 1.263 8.75 5.926 12.73 11.658 3.98 5.732 5.54 12.63 5.44 17.681-.1 4.858-3.11 6.703-5.83 7.869z" fill="url(#paint13_linear)"/><path d="M1297.96 384.364c-4.08-2.234-6.9-6.605-8.16-8.354-1.75-2.332-10.68-16.419-11.75-18.07-.88-1.166-.68-3.691-1.46-5.44-.1-.097-.1-.292-.1-.389 3.11 1.652 5.93 5.537 9.33 11.658 4.08 7.286 7.87 15.058 9.52 17.584.68.972 1.65 1.748 2.62 3.011z" fill="url(#paint14_linear)"/><path opacity=".1" fill-rule="evenodd" clip-rule="evenodd" d="M780.359 389.999l-1.458 2.428.972.972h83.061l43.231-35.945 7.772-4.371-21.373.971s-69.46 19.915-70.918 20.887c-1.457.971-41.287 15.058-41.287 15.058z" fill="#000"/><path d="M852.248 392.428h-69.654c-3.401 0-6.024-2.721-6.024-6.024 0-3.4 2.721-6.022 6.024-6.022h69.654v12.046z" fill="#fff"/><path d="M779.484 381.159l59.649-37.693 60.232-.486-47.117 37.402h-69.849c0-.097-1.166-.098-2.915.777z" fill="#5FB8F4"/><path d="M852.249 392.427l47.602-40.316-.485-9.131-47.117 37.304v12.143z" fill="url(#paint15_linear)"/><path d="M858.078 378.826l-53.529-1.943-2.04-.096-10.589-.195a5.523 5.523 0 01-5.343-5.343c-.097-3.206 2.526-5.926 5.732-5.829l10.2.195 2.72.097 52.363 1.554.486 11.56z" fill="#fff"/><path d="M903.737 340.939l-7.286 4.177-17.39 9.813-21.469 12.24-52.363-1.554-2.72-.098-10.395-.193s-.874 0-2.234.486l26.715-13.019 22.539-10.589 6.8-3.206 9.229.291 4.372.195 44.202 1.457z" fill="url(#paint16_linear)"/><path d="M896.451 345.116l-17.39 9.91-62.563-2.138 22.635-10.686 57.318 2.914z" fill="#79CAF9"/><path opacity=".3" d="M859.534 339.482l-54.402 26.23-.583.291v10.979l-2.04-.098V364.74l.486-.291 52.168-25.064 4.371.097z" fill="#fff"/><path d="M857.592 367.169l.486 11.658 46.63-29.144-.971-8.646-46.145 26.132z" fill="url(#paint17_linear)"/><path opacity=".1" d="M1435.62 372.61c16.53 0 29.92-2.741 29.92-6.121 0-3.38-13.39-6.12-29.92-6.12-16.52 0-29.92 2.74-29.92 6.12s13.4 6.121 29.92 6.121z" fill="#000"/><path d="M1462.92 303.052l-13.02 62.077c0 3.012-11.95 5.44-26.71 5.44-14.77 0-26.72-2.428-26.72-5.44l-13.02-62.077h79.47z" fill="url(#paint18_linear)"/><path d="M1462.92 303.052v12.143c0 4.469-17.78 8.063-39.83 8.063-21.96 0-39.83-3.594-39.83-8.063v-12.143h79.66z" fill="#47B7FE"/><path d="M1423.09 311.115c22 0 39.83-3.61 39.83-8.063 0-4.454-17.83-8.064-39.83-8.064s-39.83 3.61-39.83 8.064c0 4.453 17.83 8.063 39.83 8.063z" fill="#88D3FF"/><path d="M1461.07 303.052c-.09.485-2.43 2.428-10.88 4.08-4.47.874-9.81 1.458-15.64 1.846-3.69.194-7.58.388-11.56.388-4.37 0-8.55-.194-12.53-.388-5.44-.388-10.4-.972-14.57-1.749-8.45-1.652-10.69-3.594-10.88-4.08.09-.485 2.43-2.429 10.88-4.08 4.17-.777 9.23-1.457 14.57-1.749 3.98-.291 8.26-.389 12.53-.389 3.98 0 7.87.098 11.56.389 5.83.389 11.17.971 15.64 1.846 8.55 1.457 10.79 3.4 10.88 3.886z" fill="#009CFE"/><path d="M1462.34 243.209c.68 0 1.26-.583 1.26-1.263 0-.68-.58-1.264-1.26-1.264h-1.36v-6.8h1.36c.68 0 1.26-.583 1.26-1.263 0-.68-.58-1.262-1.26-1.262h-1.36c-.3-4.372-3.89-7.869-8.36-7.869h-.29c-4.37.097-7.87 3.594-8.06 7.869h-1.36c-.68 0-1.27.582-1.27 1.262s.59 1.263 1.27 1.263h1.26v6.8h-1.26c-.68 0-1.27.584-1.27 1.264s.59 1.263 1.27 1.263h1.26v2.623h-9.13v-3.109h1.07c.68 0 1.26-.583 1.26-1.263 0-.68-.58-1.263-1.26-1.263h-1.07v-6.801h1.07c.68 0 1.26-.582 1.26-1.262s-.58-1.263-1.26-1.263h-1.07v-6.8h1.07c.68 0 1.26-.583 1.26-1.263 0-.68-.58-1.263-1.26-1.263h-1.07v-.486c0-6.606-5.44-12.046-12.05-12.046-6.6 0-12.04 5.44-12.04 12.046v.486h-1.07c-.68 0-1.27.583-1.27 1.263 0 .68.59 1.263 1.27 1.263h1.07v6.8h-1.07c-.68 0-1.27.583-1.27 1.263 0 .68.59 1.262 1.27 1.262h1.07v6.801h-1.07c-.68 0-1.27.583-1.27 1.263 0 .68.59 1.263 1.27 1.263h1.07v6.801h-1.07c-.68 0-1.27.582-1.27 1.262s.59 1.263 1.27 1.263h1.07v6.8h-1.07c-.68 0-1.27.583-1.27 1.263 0 .68.59 1.264 1.27 1.264h1.07v6.8h-8.65v-2.623h.78c.68 0 1.26-.583 1.26-1.263 0-.68-.58-1.264-1.26-1.264h-.78v-6.8h.78c.68 0 1.26-.583 1.26-1.263 0-.68-.58-1.262-1.26-1.262h-.78c-.29-4.275-3.79-7.772-8.16-7.869h-.2c-4.46 0-8.06 3.497-8.35 7.869h-1.36c-.68 0-1.26.582-1.26 1.262s.58 1.263 1.26 1.263h1.36v6.8h-1.36c-.68 0-1.26.584-1.26 1.264s.58 1.263 1.26 1.263h1.36v6.8h-1.36c-.68 0-1.26.583-1.26 1.263 0 .68.58 1.263 1.26 1.263h1.36v1.555c0 4.663 3.79 8.354 8.35 8.354h17.01v2.137h-1.07c-.68 0-1.27.583-1.27 1.263 0 .68.59 1.263 1.27 1.263h1.07v6.8h-1.07c-.68 0-1.27.583-1.27 1.263 0 .68.59 1.264 1.27 1.264h1.07v9.617c3.88.291 7.86.389 12.04.389h.49c3.98 0 7.87-.098 11.56-.389v-9.715h1.07c.68 0 1.26-.583 1.26-1.263 0-.68-.58-1.263-1.26-1.263h-1.07v-6.8h1.07c.68 0 1.26-.583 1.26-1.263 0-.68-.58-1.263-1.26-1.263h-1.07v-6.801h1.07c.68 0 1.26-.582 1.26-1.262s-.58-1.263-1.26-1.263h-1.07v-6.8h1.07c.68 0 1.26-.583 1.26-1.263 0-.68-.58-1.263-1.26-1.263h-1.07v-5.732h17.58c4.66 0 8.36-3.788 8.36-8.354v-1.555h1.36c.68 0 1.26-.583 1.26-1.263 0-.68-.58-1.263-1.26-1.263h-1.36v-6.8h1.36z" fill="url(#paint19_linear)"/><path opacity=".1" d="M1423.09 208.721v100.645c-4.18 0-8.16-.194-12.05-.388v-23.801h-17c-4.66 0-8.35-3.789-8.35-8.355v-22.539c0-4.663 3.79-8.354 8.35-8.354h.2v27.978c0 1.652 1.26 2.915 2.91 2.915h13.79v-56.055c.1-6.703 5.54-12.046 12.15-12.046zm29.34 14.669v26.134a4.15 4.15 0 01-4.18 4.177h-13.12v-7.869h9.14v-14.184c0-4.469 3.69-8.16 8.16-8.258z" fill="#009CFE"/><path d="M1528.49 395.342v16.904c0 4.663-3.59 8.549-8.06 8.549h-7.68v-7.675h7.68c.39 0 .78-.389.78-.777v-16.904c0-.485-.3-.777-.78-.777h-7.68v-7.675h7.68c4.47-.097 8.06 3.692 8.06 8.355z" fill="#C8F2FD"/><path d="M1517.03 373.969v53.917c0 2.915-8.35 5.343-19.92 6.12-2.62.195-5.44.293-8.35.293-15.64 0-28.37-2.72-28.37-6.315v-53.917h56.64v-.098z" fill="url(#paint20_linear)"/><path d="M1517.03 375.912c0 3.595-12.73 7.092-28.37 7.092s-28.37-3.497-28.37-7.092c0-3.594 12.73-5.925 28.37-5.925 15.74-.097 28.37 2.234 28.37 5.925z" fill="#88D3FF"/><path d="M1515.48 375.912c0 .292-1.27 1.943-7.19 3.4-.2.098-.39.098-.59.195-5.24 1.263-12.04 2.04-19.04 2.04-7.09 0-13.79-.68-19.04-2.04-.19 0-.39-.097-.58-.195-5.83-1.554-7.19-3.108-7.19-3.4 0 0 .58-1.554 7.29-2.914 5.05-.972 11.94-1.554 19.52-1.554 7.48 0 14.48.582 19.53 1.554 6.8 1.36 7.29 2.817 7.29 2.914z" fill="url(#paint21_linear)"/><path d="M1507.8 379.41c-5.25 1.263-12.05 2.04-19.04 2.04-7.09 0-13.8-.68-19.04-2.04 5.05-.971 11.75-1.457 19.04-1.457 7.29 0 13.99.583 19.04 1.457z" fill="#1183E3"/><path fill-rule="evenodd" clip-rule="evenodd" d="M858.759 453.436h-48.283c-4.566 0-6.897-5.731-4.857-7.869L850.015 407c1.458-1.555 4.858-7.092 8.646-7.092h44.3c3.789 0 3.206 5.537 2.04 7.092l-35.07 42.55c-1.652 2.137-6.606 3.886-11.172 3.886z" fill="url(#paint22_linear)"/><path fill-rule="evenodd" clip-rule="evenodd" d="M858.758 448.579h-48.283c-4.566 0-6.606-1.748-4.566-3.789l44.105-42.55c1.458-1.554 5.732-2.721 9.521-2.721h40.511c3.788 0 6.023 1.264 4.857 2.721l-35.07 42.55c-1.555 2.041-6.509 3.789-11.075 3.789z" fill="url(#paint23_linear)"/></g><defs><linearGradient id="paint0_linear" x1="1002" y1="319.996" x2="1002" y2="57.001" gradientUnits="userSpaceOnUse"><stop stop-color="#40A4FF"/><stop offset="1" stop-color="#311996"/></linearGradient><linearGradient id="paint1_linear" x1="1468.5" y1="763.99" x2="1468.5" y2="119.002" gradientUnits="userSpaceOnUse"><stop stop-color="#40A4FF"/><stop offset="1" stop-color="#311996"/></linearGradient><linearGradient id="paint2_linear" x1="1062.07" y1="327.931" x2="1196.75" y2="327.931" gradientUnits="userSpaceOnUse"><stop offset=".003" stop-color="#93DCFF"/><stop offset="1" stop-color="#0B7FE2"/></linearGradient><linearGradient id="paint3_linear" x1="1062.07" y1="325.479" x2="1196.75" y2="325.479" gradientUnits="userSpaceOnUse"><stop offset=".003" stop-color="#E5F8FE"/><stop offset="1" stop-color="#A8EBFB"/></linearGradient><linearGradient id="paint4_linear" x1="901.621" y1="145.887" x2="1358.74" y2="145.887" gradientUnits="userSpaceOnUse"><stop offset=".003" stop-color="#E5F8FE"/><stop offset="1" stop-color="#A8EBFB"/></linearGradient><linearGradient id="paint5_linear" x1="929.82" y1="-5.933" x2="1340.36" y2="217.629" gradientUnits="userSpaceOnUse"><stop offset=".007" stop-color="#61DCFE"/><stop offset="1" stop-color="#94B7F9"/></linearGradient><linearGradient id="paint6_linear" x1="976.271" y1="361.179" x2="1269.47" y2="361.179" gradientUnits="userSpaceOnUse"><stop offset=".003" stop-color="#E5F8FE"/><stop offset="1" stop-color="#A8EBFB"/></linearGradient><linearGradient id="paint7_linear" x1="1088.91" y1="387.735" x2="1400.67" y2="390.261" gradientUnits="userSpaceOnUse"><stop offset=".003" stop-color="#93DCFF"/><stop offset="1" stop-color="#0B7FE2"/></linearGradient><linearGradient id="paint8_linear" x1="983.966" y1="360.726" x2="1263.39" y2="360.726" gradientUnits="userSpaceOnUse"><stop offset=".003" stop-color="#93DCFF"/><stop offset="1" stop-color="#0B7FE2"/></linearGradient><linearGradient id="paint9_linear" x1="945.925" y1="208.609" x2="1215.22" y2="379.329" gradientUnits="userSpaceOnUse"><stop offset=".007" stop-color="#61DCFE"/><stop offset="1" stop-color="#94B7F9"/></linearGradient><linearGradient id="paint10_linear" x1="897.38" y1="432.75" x2="1270.8" y2="432.75" gradientUnits="userSpaceOnUse"><stop offset=".003" stop-color="#93DCFF"/><stop offset="1" stop-color="#0B7FE2"/></linearGradient><linearGradient id="paint11_linear" x1="897.387" y1="424.142" x2="1270.79" y2="424.142" gradientUnits="userSpaceOnUse"><stop offset=".003" stop-color="#E5F8FE"/><stop offset="1" stop-color="#A8EBFB"/></linearGradient><linearGradient id="paint12_linear" x1="934.195" y1="408.257" x2="1233.98" y2="408.257" gradientUnits="userSpaceOnUse"><stop offset=".003" stop-color="#93DCFF"/><stop offset="1" stop-color="#0B7FE2"/></linearGradient><linearGradient id="paint13_linear" x1="1276.25" y1="365.23" x2="1320.74" y2="365.23" gradientUnits="userSpaceOnUse"><stop offset=".003" stop-color="#E5F8FE"/><stop offset="1" stop-color="#A8EBFB"/></linearGradient><linearGradient id="paint14_linear" x1="1276.46" y1="355.285" x2="1321.89" y2="411.106" gradientUnits="userSpaceOnUse"><stop offset=".003" stop-color="#93DCFF"/><stop offset="1" stop-color="#0B7FE2"/></linearGradient><linearGradient id="paint15_linear" x1="871.233" y1="350.251" x2="880.322" y2="385.14" gradientUnits="userSpaceOnUse"><stop offset=".003" stop-color="#E5F8FE"/><stop offset="1" stop-color="#A8EBFB"/></linearGradient><linearGradient id="paint16_linear" x1="789.819" y1="353.128" x2="903.698" y2="353.128" gradientUnits="userSpaceOnUse"><stop offset=".003" stop-color="#E5F8FE"/><stop offset="1" stop-color="#A8EBFB"/></linearGradient><linearGradient id="paint17_linear" x1="877.706" y1="347.761" x2="884.044" y2="372.093" gradientUnits="userSpaceOnUse"><stop offset=".003" stop-color="#E5F8FE"/><stop offset="1" stop-color="#A8EBFB"/></linearGradient><linearGradient id="paint18_linear" x1="1383.29" y1="336.819" x2="1462.9" y2="336.819" gradientUnits="userSpaceOnUse"><stop offset=".003" stop-color="#E5F8FE"/><stop offset="1" stop-color="#A8EBFB"/></linearGradient><linearGradient id="paint19_linear" x1="1423.36" y1="214.602" x2="1423.36" y2="306.293" gradientUnits="userSpaceOnUse"><stop offset=".003" stop-color="#E5F8FE"/><stop offset="1" stop-color="#A8EBFB"/></linearGradient><linearGradient id="paint20_linear" x1="1460.41" y1="404.084" x2="1517.05" y2="404.084" gradientUnits="userSpaceOnUse"><stop offset=".003" stop-color="#E5F8FE"/><stop offset="1" stop-color="#A8EBFB"/></linearGradient><linearGradient id="paint21_linear" x1="1461.94" y1="376.45" x2="1515.51" y2="376.45" gradientUnits="userSpaceOnUse"><stop offset=".003" stop-color="#93DCFF"/><stop offset="1" stop-color="#0B7FE2"/></linearGradient><linearGradient id="paint22_linear" x1="804.823" y1="426.651" x2="905.805" y2="426.651" gradientUnits="userSpaceOnUse"><stop offset=".003" stop-color="#93DCFF"/><stop offset="1" stop-color="#0B7FE2"/></linearGradient><linearGradient id="paint23_linear" x1="847.612" y1="395.002" x2="864.804" y2="460.996" gradientUnits="userSpaceOnUse"><stop offset=".003" stop-color="#E5F8FE"/><stop offset="1" stop-color="#A8EBFB"/></linearGradient><filter id="filter0_f" x="-229" y="-262" width="1512" height="1512" filterUnits="userSpaceOnUse" color-interpolation-filters="sRGB"><feFlood flood-opacity="0" result="BackgroundImageFix"/><feBlend in="SourceGraphic" in2="BackgroundImageFix" result="shape"/><feGaussianBlur stdDeviation="200" result="effect1_foregroundBlur"/></filter><filter id="filter1_f" x="554" y="-799" width="1512" height="1512" filterUnits="userSpaceOnUse" color-interpolation-filters="sRGB"><feFlood flood-opacity="0" result="BackgroundImageFix"/><feBlend in="SourceGraphic" in2="BackgroundImageFix" result="shape"/><feGaussianBlur stdDeviation="200" result="effect1_foregroundBlur"/></filter><clipPath id="clip0"><rect width="1800" height="400" rx="100" fill="#fff"/></clipPath></defs></svg>