<svg width="60" height="15" fill="none" xmlns="http://www.w3.org/2000/svg"><path d="M16.625 8.184V1.67h2.34v6.432c0 1.511.877 2.55 2.55 2.55 1.674 0 2.534-1.04 2.534-2.55V1.67h2.355v6.498c0 2.696-1.592 4.532-4.889 4.532-3.298 0-4.89-1.852-4.89-4.516zm15.337 2.793l1.25-1.753a4.75 4.75 0 003.444 1.46c1.268 0 1.885-.584 1.885-1.201 0-1.917-6.238-.601-6.238-4.678 0-1.803 1.56-3.298 4.11-3.298 1.722 0 3.15.52 4.223 1.512l-1.284 1.689c-.875-.813-2.046-1.186-3.15-1.186-.991 0-1.543.438-1.543 1.088 0 1.722 6.22.569 6.22 4.614 0 1.981-1.413 3.476-4.336 3.476-2.079 0-3.573-.7-4.58-1.723zm14.329-3.925c0-3.292 2.407-5.65 5.7-5.65 3.307 0 5.714 2.358 5.714 5.65 0 3.291-2.407 5.649-5.715 5.649-3.292 0-5.699-2.358-5.699-5.65zm9.023 0c0-2.047-1.31-3.586-3.324-3.586s-3.308 1.54-3.308 3.586c0 2.03 1.294 3.586 3.308 3.586s3.324-1.555 3.324-3.586zM8.63 8.378c1.17-.276 2.372-1.299 2.372-3.216 0-2.014-1.38-3.492-3.639-3.492H2.294V3.7h4.728c.926 0 1.625.552 1.625 1.462 0 .91-.7 1.462-1.625 1.462H2.295v5.88h2.307V8.655h1.69l2.127 3.85h2.648L8.63 8.378z" fill="#5D5463"/></svg>