<svg width="107" height="100" fill="none" xmlns="http://www.w3.org/2000/svg"><path d="M48.972 7.6L19.363 19.24C7.786 23.794 3.196 34.983 7.95 47.072l10.97 27.901c4.74 12.056 15.722 17.122 27.299 12.57l29.608-11.641C87.404 71.349 91.96 60.173 87.22 48.118L76.25 20.217c-4.753-12.09-15.7-17.17-27.278-12.618z" fill="url(#paint0_linear)"/><g opacity=".5" filter="url(#filter0_f)"><path d="M51.752 19.862l-22.176 8.676c-8.044 3.147-11.107 9.121-8.33 16.217l9.403 24.034c2.822 7.212 9.09 9.428 17.133 6.281l22.176-8.676c8.173-3.198 11.14-9.027 8.318-16.24l-9.403-24.033c-2.777-7.096-8.948-9.457-17.121-6.26z" fill="#30AD31"/></g><g filter="url(#filter1_b)"><mask id="a" maskUnits="userSpaceOnUse" x="30.612" y="24.321" width="76" height="76" fill="#000"><path fill="#fff" d="M30.612 24.321h76v76h-76z"/><path d="M84.234 25.32H52.419c-12.44 0-20.807 8.734-20.807 21.724v29.98c0 12.954 8.367 21.688 20.807 21.688h31.815c12.44 0 20.769-8.734 20.769-21.687v-29.98c0-12.99-8.33-21.724-20.77-21.724z"/></mask><path d="M84.234 25.32H52.419c-12.44 0-20.807 8.734-20.807 21.724v29.98c0 12.954 8.367 21.688 20.807 21.688h31.815c12.44 0 20.769-8.734 20.769-21.687v-29.98c0-12.99-8.33-21.724-20.77-21.724z" fill="#72DC60" fill-opacity=".35"/><path d="M84.234 26.32a1 1 0 100-2v2zm0-2a1 1 0 000 2v-2zm0 0H52.419v2h31.815v-2zm-31.815 0c-6.463 0-11.936 2.275-15.79 6.3-3.852 4.02-6.017 9.713-6.017 16.424h2c0-6.278 2.019-11.448 5.46-15.041 3.439-3.59 8.37-5.682 14.347-5.682v-2zM30.612 47.045v29.98h2v-29.98h-2zm0 29.98c0 6.695 2.166 12.378 6.017 16.394 3.855 4.02 9.327 6.294 15.79 6.294v-2c-5.977 0-10.908-2.093-14.347-5.678-3.442-3.59-5.46-8.75-5.46-15.01h-2zM52.42 99.713h31.815v-2H52.419v2zm31.815 0c6.463 0 11.926-2.274 15.772-6.295 3.842-4.016 5.997-9.7 5.997-16.392h-2c0 6.26-2.009 11.421-5.442 15.01-3.43 3.584-8.35 5.677-14.327 5.677v2zm21.769-22.687v-29.98h-2v29.98h2zm0-29.98c0-6.711-2.154-12.403-5.996-16.425-3.846-4.025-9.31-6.3-15.773-6.3v2c5.977 0 10.898 2.093 14.327 5.682 3.432 3.593 5.442 8.763 5.442 15.042h2z" fill="url(#paint1_linear)" mask="url(#a)"/></g><g filter="url(#filter2_bd)"><mask id="b" fill="#fff"><path fill-rule="evenodd" clip-rule="evenodd" d="M86.546 71.415a2.753 2.753 0 002.752-2.752v-6.796a2.753 2.753 0 00-2.752-2.752H65.66c-1.189-3.915-4.792-6.792-9.093-6.792-5.262 0-9.544 4.282-9.544 9.544 0 5.266 4.282 9.548 9.544 9.548 4.3 0 7.904-2.877 9.093-6.796h7.75v4.044a2.753 2.753 0 005.505 0V64.62h4.88v4.044a2.753 2.753 0 002.752 2.752zm-34.024-9.548a4.05 4.05 0 014.044-4.044 4.05 4.05 0 014.044 4.044 4.048 4.048 0 01-4.044 4.04 4.048 4.048 0 01-4.044-4.04z"/></mask><path fill-rule="evenodd" clip-rule="evenodd" d="M86.546 71.415a2.753 2.753 0 002.752-2.752v-6.796a2.753 2.753 0 00-2.752-2.752H65.66c-1.189-3.915-4.792-6.792-9.093-6.792-5.262 0-9.544 4.282-9.544 9.544 0 5.266 4.282 9.548 9.544 9.548 4.3 0 7.904-2.877 9.093-6.796h7.75v4.044a2.753 2.753 0 005.505 0V64.62h4.88v4.044a2.753 2.753 0 002.752 2.752zm-34.024-9.548a4.05 4.05 0 014.044-4.044 4.05 4.05 0 014.044 4.044 4.048 4.048 0 01-4.044 4.04 4.048 4.048 0 01-4.044-4.04z" fill="url(#paint2_linear)"/><path d="M65.66 59.115l-.192.058.043.142h.148v-.2zm0 5.504v-.2h-.15l-.042.142.191.058zm7.75 0h.2v-.2h-.2v.2zm5.504 0v-.2h-.2v.2h.2zm4.88 0h.2v-.2h-.2v.2zm5.304 4.044a2.553 2.553 0 01-2.552 2.552v.4a2.953 2.953 0 002.953-2.952h-.4zm0-6.796v6.796h.4v-6.796h-.4zm-2.552-2.552a2.553 2.553 0 012.552 2.552h.4a2.953 2.953 0 00-2.952-2.952v.4zm-20.887 0h20.887v-.4H65.66v.4zm-9.093-6.792c4.208 0 7.737 2.815 8.902 6.65l.382-.116c-1.213-3.996-4.891-6.934-9.284-6.934v.4zm-9.345 9.344c0-5.151 4.193-9.344 9.345-9.344v-.4c-5.373 0-9.745 4.372-9.745 9.744h.4zm9.345 9.348c-5.152 0-9.345-4.192-9.345-9.348h-.4c0 5.376 4.372 9.748 9.745 9.748v-.4zm8.902-6.654c-1.165 3.84-4.694 6.654-8.902 6.654v.4c4.393 0 8.071-2.938 9.285-6.938l-.383-.116zm7.941-.142h-7.75v.4h7.75v-.4zm.2 4.244V64.62h-.4v4.044h.4zm2.552 2.552a2.553 2.553 0 01-2.552-2.552h-.4a2.953 2.953 0 002.952 2.952v-.4zm2.553-2.552a2.553 2.553 0 01-2.553 2.552v.4a2.953 2.953 0 002.953-2.952h-.4zm0-4.044v4.044h.4V64.62h-.4zm5.08-.2h-4.88v.4h4.88v-.4zm.2 4.244V64.62h-.4v4.044h.4zm2.552 2.552a2.553 2.553 0 01-2.552-2.552h-.4a2.953 2.953 0 002.952 2.952v-.4zm-29.98-13.592a4.25 4.25 0 00-4.244 4.244h.4a3.85 3.85 0 013.844-3.844v-.4zm4.244 4.244a4.25 4.25 0 00-4.244-4.244v.4a3.85 3.85 0 013.844 3.844h.4zm-4.244 4.24a4.248 4.248 0 004.244-4.24h-.4a3.848 3.848 0 01-3.844 3.84v.4zm-4.244-4.24a4.248 4.248 0 004.244 4.24v-.4a3.848 3.848 0 01-3.844-3.84h-.4z" fill="url(#paint3_linear)" fill-opacity=".5" mask="url(#b)"/></g><defs><linearGradient id="paint0_linear" x1="68.302" y1="0" x2="42.288" y2="75.259" gradientUnits="userSpaceOnUse"><stop stop-color="#9BF763"/><stop offset="1" stop-color="#26AB5B"/></linearGradient><linearGradient id="paint1_linear" x1="43.295" y1="33.871" x2="90.111" y2="91.853" gradientUnits="userSpaceOnUse"><stop stop-color="#fff" stop-opacity=".25"/><stop offset="1" stop-color="#fff" stop-opacity="0"/></linearGradient><linearGradient id="paint2_linear" x1="86.301" y1="55.77" x2="39.403" y2="59.156" gradientUnits="userSpaceOnUse"><stop stop-color="#fff"/><stop offset="1" stop-color="#fff" stop-opacity=".2"/></linearGradient><linearGradient id="paint3_linear" x1="51.576" y1="58.727" x2="87.47" y2="59.166" gradientUnits="userSpaceOnUse"><stop stop-color="#fff"/><stop offset="1" stop-color="#fff" stop-opacity="0"/></linearGradient><filter id="filter0_f" x="3.244" y="1.462" width="93.072" height="92.003" filterUnits="userSpaceOnUse" color-interpolation-filters="sRGB"><feFlood flood-opacity="0" result="BackgroundImageFix"/><feBlend in="SourceGraphic" in2="BackgroundImageFix" result="shape"/><feGaussianBlur stdDeviation="8.5" result="effect1_foregroundBlur"/></filter><filter id="filter1_b" x="6.612" y=".321" width="123.391" height="123.391" filterUnits="userSpaceOnUse" color-interpolation-filters="sRGB"><feFlood flood-opacity="0" result="BackgroundImageFix"/><feGaussianBlur in="BackgroundImage" stdDeviation="12"/><feComposite in2="SourceAlpha" operator="in" result="effect1_backgroundBlur"/><feBlend in="SourceGraphic" in2="effect1_backgroundBlur" result="shape"/></filter><filter id="filter2_bd" x="32.022" y="37.323" width="72.277" height="49.093" filterUnits="userSpaceOnUse" color-interpolation-filters="sRGB"><feFlood flood-opacity="0" result="BackgroundImageFix"/><feGaussianBlur in="BackgroundImage" stdDeviation="7.5"/><feComposite in2="SourceAlpha" operator="in" result="effect1_backgroundBlur"/><feColorMatrix in="SourceAlpha" values="0 0 0 0 0 0 0 0 0 0 0 0 0 0 0 0 0 0 127 0" result="hardAlpha"/><feOffset dx="5" dy="5"/><feGaussianBlur stdDeviation="5"/><feColorMatrix values="0 0 0 0 0.454902 0 0 0 0 0.870588 0 0 0 0 0.376471 0 0 0 0.5 0"/><feBlend in2="effect1_backgroundBlur" result="effect2_dropShadow"/><feBlend in="SourceGraphic" in2="effect2_dropShadow" result="shape"/></filter></defs></svg>