<svg width="103" height="93" fill="none" xmlns="http://www.w3.org/2000/svg"><path d="M63.415 9.383a17.305 17.305 0 00-13.317-1.721l-33.13 9.1c-9.393 2.58-14.966 12.32-12.495 21.774l6.998 26.772c2.471 9.454 12.082 15.023 21.442 12.452l33.129-9.1c9.36-2.57 14.97-12.32 12.499-21.775l-6.998-26.772c-1.187-4.54-4.102-8.39-8.128-10.73" fill="url(#paint0_linear)"/><g filter="url(#filter0_f)"><path d="M54.21 18.218c-2.54-1.571-5.548-2.009-8.355-1.238l-20.677 5.68c-5.862 1.61-9.276 7.938-7.653 14.146l4.595 17.58c1.622 6.208 7.686 9.933 13.528 8.328l20.677-5.68c5.841-1.604 9.278-7.938 7.655-14.146l-4.595-17.58c-.779-2.982-2.635-5.525-5.175-7.09" fill="#EF5641"/></g><g filter="url(#filter1_b)"><mask id="a" maskUnits="userSpaceOnUse" x="21.713" y="20.281" width="80" height="73" fill="#000"><path fill="#fff" d="M21.713 20.281h80v73h-80z"/><path d="M94.277 27.1a19.38 19.38 0 00-13.835-5.819H42.267c-10.825 0-19.554 8.88-19.554 19.84V72.16C22.713 83.121 31.48 92 42.266 92h38.176C91.228 92 100 83.12 100 72.16V41.121A19.959 19.959 0 0094.277 27.1"/></mask><path d="M94.277 27.1a19.38 19.38 0 00-13.835-5.819H42.267c-10.825 0-19.554 8.88-19.554 19.84V72.16C22.713 83.121 31.48 92 42.266 92h38.176C91.228 92 100 83.12 100 72.16V41.121A19.959 19.959 0 0094.277 27.1" fill="#FFAC95" fill-opacity=".4"/><path d="M93.563 27.8a1 1 0 101.427-1.4l-1.427 1.4zm1.426-1.402a1 1 0 10-1.425 1.403l1.425-1.403zm.001.001a20.38 20.38 0 00-14.547-6.118v2a18.38 18.38 0 0113.12 5.52l1.427-1.402zm-14.547-6.118H42.266v2h38.175v-2zm-38.176 0c-11.391 0-20.554 9.341-20.554 20.84h2c0-10.423 8.296-18.84 18.553-18.84v-2zm-20.554 20.84V72.16h2V41.122h-2zm0 31.038C21.713 83.66 30.916 93 42.266 93v-2c-10.22 0-18.553-8.418-18.553-18.84h-2zM42.266 93h38.176v-2H42.267v2zm38.176 0C91.793 93 101 83.66 101 72.16h-2C99 82.581 90.663 91 80.442 91v2zM101 72.16V41.121h-2v31.037h2zm0-31.038a20.959 20.959 0 00-6.01-14.724l-1.426 1.403A18.959 18.959 0 0199 41.121h2z" fill="url(#paint1_linear)" mask="url(#a)"/></g><g filter="url(#filter2_bd)"><mask id="b" fill="#fff"><path d="M86.9 46.661l-.31.314-17.43 14.183a12.125 12.125 0 01-7.57 2.672c-2.748 0-5.372-.943-7.536-2.672L36.47 47.211l-.506-.51c-.885-1.18-.77-2.869.274-3.93 1.001-1.06 2.663-1.178 3.865-.275l17.39 14.144c2.275 1.89 5.487 1.89 7.728 0l17.424-14.144a2.908 2.908 0 012.168-.785 3.23 3.23 0 012.044 1.021c.967 1.14.967 2.79.043 3.929"/></mask><path d="M86.9 46.661l-.31.314-17.43 14.183a12.125 12.125 0 01-7.57 2.672c-2.748 0-5.372-.943-7.536-2.672L36.47 47.211l-.506-.51c-.885-1.18-.77-2.869.274-3.93 1.001-1.06 2.663-1.178 3.865-.275l17.39 14.144c2.275 1.89 5.487 1.89 7.728 0l17.424-14.144a2.908 2.908 0 012.168-.785 3.23 3.23 0 012.044 1.021c.967 1.14.967 2.79.043 3.929" fill="url(#paint2_linear)"/><path d="M86.59 46.975l.127.155.009-.007.007-.007-.142-.14zM69.16 61.158l.125.157.001-.002-.126-.155zm-15.106 0l.125-.156-.125.156zM36.47 47.211l-.142.14.008.01.01.007.124-.157zm-.506-.51l-.16.12.008.01.01.01.142-.14zm.274-3.93l.143.14.003-.002-.146-.137zm3.865-.275l.126-.155-.006-.004-.12.16zm17.39 14.144l.127-.154h-.002l-.126.154zm7.728 0l-.126-.155-.003.002.129.153zm17.424-14.144l.126.156.006-.005.005-.005-.137-.146zm2.168-.785l.02-.2h-.01l-.01.2zm2.044 1.021l.153-.13-.005-.005-.147.135zm-.1 3.789l-.309.314.285.28.31-.314-.286-.28zm-.292.3L69.032 61.002l.253.31L86.717 47.13l-.252-.31zm-17.431 14.18a11.925 11.925 0 01-7.446 2.628v.4c2.786 0 5.5-.959 7.696-2.715l-.25-.313zm-7.446 2.628c-2.7 0-5.28-.927-7.41-2.628l-.25.313c2.199 1.756 4.866 2.715 7.66 2.715v-.4zm-7.41-2.628L36.593 47.054l-.248.314 17.583 13.947.248-.313zM36.611 47.07l-.506-.51-.284.281.506.51.284-.28zm-.488-.49c-.825-1.099-.718-2.677.257-3.668l-.285-.28c-1.112 1.13-1.237 2.93-.292 4.188l.32-.24zm.26-3.671c.927-.983 2.474-1.098 3.599-.253l.24-.32c-1.28-.961-3.056-.84-4.13.298l.29.275zm3.593-.257l17.39 14.143.251-.31-17.39-14.144-.252.31zm17.388 14.142c2.35 1.95 5.668 1.952 7.985 0l-.258-.307c-2.166 1.827-5.27 1.828-7.472 0l-.255.307zm7.982.002L82.77 42.652l-.252-.31-17.424 14.143.252.31zm17.436-14.154a2.708 2.708 0 012.02-.732l.02-.399a3.109 3.109 0 00-2.315.84l.275.291zm2.01-.732a3.03 3.03 0 011.917.957l.295-.27a3.43 3.43 0 00-2.171-1.085l-.041.398zm1.912.952a2.878 2.878 0 01.04 3.673l.31.252a3.278 3.278 0 00-.045-4.184l-.305.258z" fill="url(#paint3_linear)" fill-opacity=".5" mask="url(#b)"/></g><defs><linearGradient id="paint0_linear" x1="47.528" y1="45.451" x2="-1.325" y2="91.121" gradientUnits="userSpaceOnUse"><stop stop-color="#FFA78F"/><stop offset="1" stop-color="#F23E2C"/></linearGradient><linearGradient id="paint1_linear" x1="35.016" y1="29.52" x2="79.126" y2="89.226" gradientUnits="userSpaceOnUse"><stop stop-color="#fff" stop-opacity=".25"/><stop offset="1" stop-color="#fff" stop-opacity="0"/></linearGradient><linearGradient id="paint2_linear" x1="83.885" y1="45.701" x2="26.002" y2="50.156" gradientUnits="userSpaceOnUse"><stop stop-color="#fff"/><stop offset="1" stop-color="#fff" stop-opacity=".2"/></linearGradient><linearGradient id="paint3_linear" x1="85.35" y1="53.236" x2="34.983" y2="58.188" gradientUnits="userSpaceOnUse"><stop stop-color="#fff"/><stop offset="1" stop-color="#fff" stop-opacity="0"/></linearGradient><filter id="filter0_f" x="1.121" y=".609" width="79.261" height="78.478" filterUnits="userSpaceOnUse" color-interpolation-filters="sRGB"><feFlood flood-opacity="0" result="BackgroundImageFix"/><feBlend in="SourceGraphic" in2="BackgroundImageFix" result="shape"/><feGaussianBlur stdDeviation="8" result="effect1_foregroundBlur"/></filter><filter id="filter1_b" x="6.713" y="5.281" width="109.287" height="102.719" filterUnits="userSpaceOnUse" color-interpolation-filters="sRGB"><feFlood flood-opacity="0" result="BackgroundImageFix"/><feGaussianBlur in="BackgroundImage" stdDeviation="7.5"/><feComposite in2="SourceAlpha" operator="in" result="effect1_backgroundBlur"/><feBlend in="SourceGraphic" in2="effect1_backgroundBlur" result="shape"/></filter><filter id="filter2_bd" x="20.371" y="26.706" width="82.217" height="52.124" filterUnits="userSpaceOnUse" color-interpolation-filters="sRGB"><feFlood flood-opacity="0" result="BackgroundImageFix"/><feGaussianBlur in="BackgroundImage" stdDeviation="7.5"/><feComposite in2="SourceAlpha" operator="in" result="effect1_backgroundBlur"/><feColorMatrix in="SourceAlpha" values="0 0 0 0 0 0 0 0 0 0 0 0 0 0 0 0 0 0 127 0" result="hardAlpha"/><feOffset dx="5" dy="5"/><feGaussianBlur stdDeviation="5"/><feColorMatrix values="0 0 0 0 1 0 0 0 0 0.447059 0 0 0 0 0.368627 0 0 0 0.5 0"/><feBlend in2="effect1_backgroundBlur" result="effect2_dropShadow"/><feBlend in="SourceGraphic" in2="effect2_dropShadow" result="shape"/></filter></defs></svg>