<svg width="105" height="96" fill="none" xmlns="http://www.w3.org/2000/svg"><path d="M30.714 28.625C16.09 28.625 4 40.255 4 54.647c0 7.251 2.648 13.983 7.015 19.69A67.924 67.924 0 0028.44 90.42c1.678 1.07 3.057.995 4.586 0a69.258 69.258 0 0017.428-16.083c4.364-5.707 7.015-12.439 7.015-19.69 0-14.391-12.09-26.022-26.755-26.022z" fill="#4096FE"/><g opacity=".5" filter="url(#filter0_f)"><path d="M30.78 43.233c-7.913 0-14.454 6.205-14.454 13.882 0 3.868 1.433 7.46 3.795 10.504a36.557 36.557 0 009.428 8.58c.908.57 1.654.53 2.481 0a37.276 37.276 0 009.43-8.58c2.36-3.044 3.795-6.636 3.795-10.504 0-7.677-6.541-13.883-14.476-13.883z" fill="#004FFF"/></g><g filter="url(#filter1_b)"><path d="M63.805 1c-21.97 0-40.133 17.474-40.133 39.093 0 10.895 3.979 21.009 10.54 29.581 7.17 9.456 16.085 17.695 26.177 24.162 2.52 1.608 4.593 1.495 6.89 0A104.047 104.047 0 0093.46 69.674c6.557-8.572 10.54-18.686 10.54-29.58C104 18.473 85.837 1 63.805 1z" fill="#3EA0FE" fill-opacity=".35"/><path d="M67.55 94.256a104.547 104.547 0 0026.308-24.278l-.366-.28.366.28c6.612-8.646 10.642-18.864 10.642-29.884C104.5 18.183 86.099.5 63.805.5 41.574.5 23.172 18.184 23.172 40.093c0 11.02 4.025 21.238 10.642 29.884 7.206 9.503 16.164 17.782 26.305 24.28l.001.001c1.318.84 2.56 1.257 3.804 1.242 1.243-.016 2.426-.463 3.627-1.244zm0 0s0 0 0 0l-.271-.42.273.42h-.001z" stroke="url(#paint0_linear)" stroke-linecap="round" stroke-linejoin="round"/></g><g filter="url(#filter2_bd)"><mask id="a" fill="#fff"><path d="M63.514 54.246c-7.285 0-13.226-5.696-13.226-12.939 0-7.186 5.941-13.16 13.226-13.16 7.29 0 13.29 5.974 13.29 13.16 0 7.243-6 12.94-13.29 12.94"/></mask><path d="M63.514 54.246c-7.285 0-13.226-5.696-13.226-12.939 0-7.186 5.941-13.16 13.226-13.16 7.29 0 13.29 5.974 13.29 13.16 0 7.243-6 12.94-13.29 12.94" fill="url(#paint1_linear)"/><path d="M63.514 54.046c-7.18 0-13.026-5.612-13.026-12.739h-.4c0 7.359 6.036 13.14 13.426 13.14v-.4zM50.488 41.307c0-7.075 5.851-12.96 13.026-12.96v-.4c-7.395 0-13.426 6.064-13.426 13.36h.4zm13.026-12.96c7.181 0 13.09 5.886 13.09 12.96h.4c0-7.298-6.09-13.36-13.49-13.36v.4zm13.09 12.96c0 7.126-5.904 12.74-13.09 12.74v.4c7.394 0 13.49-5.78 13.49-13.14h-.4z" fill="url(#paint2_linear)" fill-opacity=".5" mask="url(#a)"/></g><defs><linearGradient id="paint0_linear" x1="36.459" y1="11.951" x2="97.7" y2="76.767" gradientUnits="userSpaceOnUse"><stop stop-color="#fff" stop-opacity=".25"/><stop offset="1" stop-color="#fff" stop-opacity="0"/></linearGradient><linearGradient id="paint1_linear" x1="74.923" y1="32.861" x2="45.388" y2="33.839" gradientUnits="userSpaceOnUse"><stop stop-color="#fff"/><stop offset="1" stop-color="#fff" stop-opacity=".2"/></linearGradient><linearGradient id="paint2_linear" x1="53.144" y1="36.903" x2="75.659" y2="37.029" gradientUnits="userSpaceOnUse"><stop stop-color="#fff"/><stop offset="1" stop-color="#fff" stop-opacity="0"/></linearGradient><filter id="filter0_f" x=".326" y="27.233" width="60.93" height="65.38" filterUnits="userSpaceOnUse" color-interpolation-filters="sRGB"><feFlood flood-opacity="0" result="BackgroundImageFix"/><feBlend in="SourceGraphic" in2="BackgroundImageFix" result="shape"/><feGaussianBlur stdDeviation="8" result="effect1_foregroundBlur"/></filter><filter id="filter1_b" x="-1.328" y="-24" width="130.328" height="144" filterUnits="userSpaceOnUse" color-interpolation-filters="sRGB"><feFlood flood-opacity="0" result="BackgroundImageFix"/><feGaussianBlur in="BackgroundImage" stdDeviation="12"/><feComposite in2="SourceAlpha" operator="in" result="effect1_backgroundBlur"/><feBlend in="SourceGraphic" in2="effect1_backgroundBlur" result="shape"/></filter><filter id="filter2_bd" x="35.288" y="13.148" width="56.516" height="56.098" filterUnits="userSpaceOnUse" color-interpolation-filters="sRGB"><feFlood flood-opacity="0" result="BackgroundImageFix"/><feGaussianBlur in="BackgroundImage" stdDeviation="7.5"/><feComposite in2="SourceAlpha" operator="in" result="effect1_backgroundBlur"/><feColorMatrix in="SourceAlpha" values="0 0 0 0 0 0 0 0 0 0 0 0 0 0 0 0 0 0 127 0" result="hardAlpha"/><feOffset dx="5" dy="5"/><feGaussianBlur stdDeviation="5"/><feColorMatrix values="0 0 0 0 0.15375 0 0 0 0 0.522433 0 0 0 0 0.9 0 0 0 0.5 0"/><feBlend in2="effect1_backgroundBlur" result="effect2_dropShadow"/><feBlend in="SourceGraphic" in2="effect2_dropShadow" result="shape"/></filter></defs></svg>