<svg width="104" height="88" fill="none" xmlns="http://www.w3.org/2000/svg"><path d="M69.932 3c-17.15 0-31.068 13.74-31.068 30.66 0 16.929 13.919 30.662 31.068 30.662C87.112 64.322 101 50.589 101 33.66 101 16.739 87.113 3 69.932 3z" fill="url(#paint0_linear)"/><g filter="url(#filter0_b)"><mask id="a" maskUnits="userSpaceOnUse" x="0" y="7.751" width="82" height="81" fill="#000"><path fill="#fff" d="M0 7.751h82v81H0z"/><path d="M40.644 8.75C18.761 8.75 1 26.283 1 47.876 1 69.476 18.76 87 40.644 87c21.923 0 39.644-17.524 39.644-39.125 0-21.593-17.72-39.124-39.644-39.124z"/></mask><path d="M40.644 8.75C18.761 8.75 1 26.283 1 47.876 1 69.476 18.76 87 40.644 87c21.923 0 39.644-17.524 39.644-39.125 0-21.593-17.72-39.124-39.644-39.124z" fill="#FFCBB9" fill-opacity=".35"/><path d="M40.644 7.75a1 1 0 100 2v-2zm0 0C18.221 7.75 0 25.719 0 47.876h2C2 26.847 19.3 9.751 40.644 9.751v-2zM0 47.876C0 70.041 18.22 88 40.644 88v-2C19.3 86 2 68.911 2 47.875H0zM40.644 88c22.464 0 40.644-17.96 40.644-40.125h-2C79.288 68.912 62.027 86 40.644 86v2zm40.644-40.125c0-22.156-18.18-40.124-40.644-40.124v2c21.383 0 38.644 17.095 38.644 38.124h2z" fill="url(#paint1_linear)" mask="url(#a)"/></g><g filter="url(#filter1_bd)"><mask id="b" fill="#fff"><path fill-rule="evenodd" clip-rule="evenodd" d="M40.644 29.605c-1.902 0-3.488 1.569-3.488 3.443V50.34c0 1.882 1.586 3.404 3.488 3.404 1.903 0 3.45-1.522 3.45-3.404V33.048a3.465 3.465 0 00-3.45-3.443zm-3.45 33.14c0 1.879 1.547 3.444 3.49 3.444a3.462 3.462 0 003.448-3.443c0-1.878-1.546-3.404-3.488-3.404-1.903 0-3.45 1.526-3.45 3.404z"/></mask><path fill-rule="evenodd" clip-rule="evenodd" d="M40.644 29.605c-1.902 0-3.488 1.569-3.488 3.443V50.34c0 1.882 1.586 3.404 3.488 3.404 1.903 0 3.45-1.522 3.45-3.404V33.048a3.465 3.465 0 00-3.45-3.443zm-3.45 33.14c0 1.879 1.547 3.444 3.49 3.444a3.462 3.462 0 003.448-3.443c0-1.878-1.546-3.404-3.488-3.404-1.903 0-3.45 1.526-3.45 3.404z" fill="url(#paint2_linear)"/><path d="M37.556 33.048c0-1.649 1.402-3.043 3.088-3.043v-.8c-2.119 0-3.888 1.743-3.888 3.843h.8zm0 17.293V33.048h-.8V50.34h.8zm3.088 3.004c-1.693 0-3.088-1.354-3.088-3.004h-.8c0 2.114 1.776 3.804 3.888 3.804v-.8zm3.05-3.004c0 1.655-1.362 3.004-3.05 3.004v.8c2.119 0 3.85-1.696 3.85-3.804h-.8zm0-17.293V50.34h.8V33.048h-.8zm-3.05-3.043a3.065 3.065 0 013.05 3.043h.8c0-2.094-1.724-3.843-3.85-3.843v.8zm.04 35.784c-1.724 0-3.09-1.388-3.09-3.043h-.8c0 2.1 1.728 3.843 3.89 3.843v-.8zm3.048-3.043a3.062 3.062 0 01-3.049 3.043v.8a3.862 3.862 0 003.85-3.843h-.8zm-3.088-3.004c1.73 0 3.088 1.355 3.088 3.004h.8c0-2.107-1.733-3.804-3.888-3.804v.8zm-3.05 3.004c0-1.652 1.363-3.004 3.05-3.004v-.8c-2.12 0-3.85 1.7-3.85 3.804h.8z" fill="url(#paint3_linear)" mask="url(#b)"/></g><defs><linearGradient id="paint0_linear" x1="69.932" y1="3" x2="69.932" y2="64.322" gradientUnits="userSpaceOnUse"><stop stop-color="#FFB37F"/><stop offset="1" stop-color="#FF7B0D"/></linearGradient><linearGradient id="paint1_linear" x1=".769" y1="8.219" x2="63.2" y2="80.543" gradientUnits="userSpaceOnUse"><stop stop-color="#fff" stop-opacity=".4"/><stop offset="1" stop-color="#fff" stop-opacity="0"/></linearGradient><linearGradient id="paint2_linear" x1="43.638" y1="36.211" x2="35.858" y2="36.259" gradientUnits="userSpaceOnUse"><stop stop-color="#fff"/><stop offset="1" stop-color="#fff" stop-opacity=".2"/></linearGradient><linearGradient id="paint3_linear" x1="38.266" y1="33.867" x2="48.947" y2="36.389" gradientUnits="userSpaceOnUse"><stop stop-color="#fff" stop-opacity=".25"/><stop offset="1" stop-color="#fff" stop-opacity="0"/></linearGradient><filter id="filter0_b" x="-24" y="-16.249" width="129.288" height="128.249" filterUnits="userSpaceOnUse" color-interpolation-filters="sRGB"><feFlood flood-opacity="0" result="BackgroundImageFix"/><feGaussianBlur in="BackgroundImage" stdDeviation="12"/><feComposite in2="SourceAlpha" operator="in" result="effect1_backgroundBlur"/><feBlend in="SourceGraphic" in2="effect1_backgroundBlur" result="shape"/></filter><filter id="filter1_bd" x="22.156" y="14.605" width="36.977" height="66.584" filterUnits="userSpaceOnUse" color-interpolation-filters="sRGB"><feFlood flood-opacity="0" result="BackgroundImageFix"/><feGaussianBlur in="BackgroundImage" stdDeviation="7.5"/><feComposite in2="SourceAlpha" operator="in" result="effect1_backgroundBlur"/><feColorMatrix in="SourceAlpha" values="0 0 0 0 0 0 0 0 0 0 0 0 0 0 0 0 0 0 127 0" result="hardAlpha"/><feOffset dx="5" dy="5"/><feGaussianBlur stdDeviation="5"/><feColorMatrix values="0 0 0 0 1 0 0 0 0 0.580392 0 0 0 0 0.247059 0 0 0 0.5 0"/><feBlend in2="effect1_backgroundBlur" result="effect2_dropShadow"/><feBlend in="SourceGraphic" in2="effect2_dropShadow" result="shape"/></filter></defs></svg>