<svg width="37" height="37" fill="none" xmlns="http://www.w3.org/2000/svg"><path d="M0 10.053h10.194c1.132 0 2.039.91 2.039 2.05 0 1.139-.907 2.05-2.04 2.05H0a9.916 9.916 0 009.892 9.186h.377c1.133 0 2.04.911 2.04 2.05 0 1.139-.907 2.05-2.04 2.05h-.377A9.916 9.916 0 000 36.626h27.108A9.916 9.916 0 0037 27.439H26.806a2.036 2.036 0 01-2.039-2.05c0-1.139.907-2.05 2.04-2.05H37a9.916 9.916 0 00-9.892-9.186h-.377a2.036 2.036 0 01-2.04-2.05c0-1.14.907-2.05 2.04-2.05h.377A9.916 9.916 0 0037 .866H9.892A9.916 9.916 0 000 10.053z" fill="url(#paint0_linear)"/><defs><linearGradient id="paint0_linear" x1="18.5" y1=".866" x2="18.5" y2="36.626" gradientUnits="userSpaceOnUse"><stop stop-color="#8EEBFF"/><stop offset="1" stop-color="#00A3FF"/></linearGradient></defs></svg>