<svg width="107" height="215" fill="none" xmlns="http://www.w3.org/2000/svg"><path fill-rule="evenodd" clip-rule="evenodd" d="M95.773 213.39L8.036 159.361C3.838 156.927.37 150.356.37 144.758L.005 8.528c0-8.396 8.579-8.7 12.777-6.267L99.79 53.188c4.198 2.434 6.754 9.005 6.754 14.602v135.621c-.061 9.857-3.712 13.629-10.77 9.979z" fill="url(#paint0_linear)"/><path fill-rule="evenodd" clip-rule="evenodd" d="M95.895 213.572L7.671 162.646c-4.198-2.434-7.666-9.005-7.666-14.603V8.589c0-5.659 3.407-8.214 7.666-5.78l88.224 50.926c4.198 2.434 7.666 9.005 7.666 14.603v139.454c-.06 5.659-3.468 8.214-7.666 5.78z" fill="url(#paint1_linear)"/><path fill-rule="evenodd" clip-rule="evenodd" d="M99.12 65.904L4.386 11.205c-.548-.304-.913 0-.913.73v130.693c0 .67.426 1.521.913 1.764l94.734 54.699c.547.305.912 0 .912-.73V67.668c.061-.669-.365-1.52-.912-1.764z" fill="url(#paint2_linear)"/><path fill-rule="evenodd" clip-rule="evenodd" d="M44.847 30.25l13.812 7.97c.365.182.608 0 .608-.487 0-.426-.243-.974-.608-1.156l-13.812-7.97c-.365-.183-.608 0-.608.486 0 .487.304.974.608 1.156z" fill="url(#paint3_linear)"/><path fill-rule="evenodd" clip-rule="evenodd" d="M51.783 174.936c-2.19-1.278-4.015-.243-4.015 2.251 0 2.556 1.764 5.598 4.015 6.876 2.19 1.277 4.016.243 4.016-2.252-.06-2.555-1.825-5.597-4.016-6.875z" fill="url(#paint4_linear)"/><path d="M35 87.775l9.092 5.904c1.01.656 1.818 2.15 1.818 3.362 0 1.211-.808 1.656-1.818 1L35 92.137c.337 5.711 4.175 12.486 8.822 15.503l.337.219c1.01.656 1.819 2.15 1.819 3.362 0 1.212-.809 1.656-1.819 1l-.337-.219c-4.647-3.017-8.485-1.229-8.822 4.045l24.178 15.701c4.647 3.018 8.485 1.23 8.822-4.045l-9.092-5.904c-1.01-.656-1.818-2.15-1.818-3.362 0-1.211.808-1.656 1.818-1L68 123.341c-.337-5.711-4.175-12.486-8.822-15.503l-.337-.219c-1.01-.656-1.819-2.15-1.819-3.362 0-1.212.809-1.656 1.819-1l.337.219c4.647 3.017 8.485 1.229 8.822-4.045L43.822 83.73c-4.647-3.018-8.485-1.23-8.822 4.044z" fill="#D1F2FF"/><defs><linearGradient id="paint0_linear" x1="-.021" y1="107.86" x2="106.498" y2="107.86" gradientUnits="userSpaceOnUse"><stop offset=".003" stop-color="#93DCFF"/><stop offset="1" stop-color="#0B7FE2"/></linearGradient><linearGradient id="paint1_linear" x1=".01" y1="108.205" x2="103.518" y2="108.205" gradientUnits="userSpaceOnUse"><stop offset=".003" stop-color="#E5F8FE"/><stop offset="1" stop-color="#A8EBFB"/></linearGradient><linearGradient id="paint2_linear" x1="-.955" y1="-.644" x2="96.727" y2="195.344" gradientUnits="userSpaceOnUse"><stop offset=".007" stop-color="#61DCFE"/><stop offset="1" stop-color="#94B7F9"/></linearGradient><linearGradient id="paint3_linear" x1="44.261" y1="33.434" x2="59.268" y2="33.434" gradientUnits="userSpaceOnUse"><stop offset=".003" stop-color="#8DBCFA" stop-opacity="0"/><stop offset="1" stop-color="#57B3F2"/></linearGradient><linearGradient id="paint4_linear" x1="51.545" y1="182.087" x2="52.251" y2="173.763" gradientUnits="userSpaceOnUse"><stop offset=".003" stop-color="#8DBCFA" stop-opacity="0"/><stop offset="1" stop-color="#57B3F2"/></linearGradient></defs></svg>