<svg width="53" height="131" fill="none" xmlns="http://www.w3.org/2000/svg"><path fill-rule="evenodd" clip-rule="evenodd" d="M43.23 129.729L10.74 108.86c-3.408-1.947-6.146-7.18-6.146-11.682L1.126 5.608c0-5.111 6.206-6.328 9.553-4.381l35.898 20.686c3.407 1.947 6.145 7.18 6.145 11.683v89.318c0 6.876-5.902 8.64-9.492 6.815z" fill="url(#paint0_linear)"/><path fill-rule="evenodd" clip-rule="evenodd" d="M42.987 129.607L7.09 108.92C3.682 106.973.944 101.741.944 97.238V6.946c0-4.503 2.738-6.571 6.145-4.624l35.898 20.687c3.407 1.947 6.145 7.179 6.145 11.681v90.293c-.06 4.502-2.798 6.571-6.145 4.624z" fill="url(#paint1_linear)"/><path fill-rule="evenodd" clip-rule="evenodd" d="M4.412 90.91V11.083c0-1.582.974-2.312 2.19-1.643l36.872 21.295c1.217.67 2.19 2.556 2.19 4.138V114.7c0 1.582-.973 2.312-2.19 1.643L6.603 95.048c-1.217-.67-2.19-2.495-2.19-4.138z" fill="url(#paint2_linear)"/><path fill-rule="evenodd" clip-rule="evenodd" d="M29.54 20.149l-9.004-5.172c-.305-.182-.487-.609-.487-.974s.243-.547.487-.364l9.005 5.232c.304.182.486.609.486.974 0 .304-.182.486-.486.304z" fill="url(#paint3_linear)"/><path fill-rule="evenodd" clip-rule="evenodd" d="M28.506 114.092c0 2.19-1.52 3.103-3.468 1.947-1.886-1.095-3.468-3.772-3.468-5.963 0-2.19 1.521-3.103 3.468-1.947 1.947 1.156 3.468 3.772 3.468 5.963z" fill="url(#paint4_linear)"/><path d="M17 53.74l4.408 2.862c.49.318.882 1.042.882 1.63 0 .587-.392.803-.882.485L17 55.854c.163 2.77 2.024 6.054 4.277 7.517l.164.106c.49.318.881 1.042.881 1.63 0 .588-.391.803-.881.485l-.163-.106c-2.253-1.463-4.115-.596-4.278 1.961l11.722 7.613c2.253 1.463 4.115.596 4.278-1.961l-4.408-2.863c-.49-.318-.882-1.043-.882-1.63 0-.588.392-.803.882-.485L33 70.984c-.163-2.77-2.024-6.054-4.278-7.517l-.163-.106c-.49-.318-.881-1.043-.881-1.63 0-.588.391-.803.881-.485l.163.106c2.253 1.463 4.115.596 4.278-1.961l-11.723-7.613c-2.253-1.463-4.114-.596-4.277 1.961z" fill="#D1F2FF"/><defs><linearGradient id="paint0_linear" x1="1.16" y1="65.375" x2="52.745" y2="65.375" gradientUnits="userSpaceOnUse"><stop offset=".003" stop-color="#93DCFF"/><stop offset="1" stop-color="#0B7FE2"/></linearGradient><linearGradient id="paint1_linear" x1=".957" y1="65.905" x2="49.092" y2="65.905" gradientUnits="userSpaceOnUse"><stop offset=".003" stop-color="#E5F8FE"/><stop offset="1" stop-color="#A8EBFB"/></linearGradient><linearGradient id="paint2_linear" x1="6.77" y1="9.76" x2="42.461" y2="113.703" gradientUnits="userSpaceOnUse"><stop offset=".007" stop-color="#61DCFE"/><stop offset="1" stop-color="#94B7F9"/></linearGradient><linearGradient id="paint3_linear" x1="20.005" y1="16.88" x2="30.045" y2="16.88" gradientUnits="userSpaceOnUse"><stop offset=".003" stop-color="#8DBCFA" stop-opacity="0"/><stop offset="1" stop-color="#57B3F2"/></linearGradient><linearGradient id="paint4_linear" x1="24.919" y1="115.054" x2="25.243" y2="105.978" gradientUnits="userSpaceOnUse"><stop offset=".003" stop-color="#8DBCFA" stop-opacity="0"/><stop offset="1" stop-color="#57B3F2"/></linearGradient></defs></svg>