<svg width="558" height="577" fill="none" xmlns="http://www.w3.org/2000/svg"><circle cx="208.5" cy="169.5" r="169.5" fill="url(#paint0_linear)"/><path opacity=".1" d="M418.85 526.362l-40.097-23.121c-1.034-.608-.912-1.642.305-2.372 1.216-.731 3.042-.792 4.137-.183l40.096 23.12c1.035.609.913 1.643-.304 2.373-1.278.73-3.103.791-4.137.183z" fill="#000"/><path d="M324.907 446.718l-71.248-41.8c-5.354-3.164-5.294-10.1.73-12.778l71.552-29.387 73.074 42.834-55.186 40.522c-4.685 3.529-13.568 3.772-18.922.609z" fill="url(#paint1_linear)"/><path d="M324.907 444.284l-71.249-41.8c-5.354-3.164-4.806-8.275 1.217-10.891l71.066-31.213 73.074 42.834-55.186 40.522c-4.685 3.468-13.568 3.712-18.922.548z" fill="url(#paint2_linear)"/><path opacity=".1" d="M180.342 317.667c-1.035 1.825 3.285 3.286 5.415 4.503 1.216.73 295.945 173.405 296.553 173.77 1.034.608 4.259 2.86 5.233.852v-.061c.426-.974.182-2.556-1.582-3.833-.365-.244-97.594-70.762-97.898-71.005-32.856-23.79-68.815-44.659-108.302-62.182-91.206-40.34-97.047-42.957-97.473-43.078-1.338-.244-1.946 1.034-1.946 1.034z" fill="#000"/><path d="M485.717 234.615L176.387 56.647c-2.434-1.4-4.625-1.46-6.268-.426l-2.372 1.582s1.947 3.346 2.068 4.077c.183.73 5.841 3.893 5.841 3.771 0-.06.974-.912 2.252-2.068v212.65c0 6.936 4.259 15.028 9.43 18.07l295.884 175.778 2.373 1.583 2.191 8.761 4.076-1.521a.462.462 0 01.244-.122l.182-.121c1.765-1.278 2.86-3.834 2.86-7.423V252.686c.061-6.936-4.198-15.029-9.431-18.071z" fill="url(#paint3_linear)"/><path d="M481.884 236.075L174.501 58.593c-5.233-3.042-9.431.183-9.431 7.12v218.551c0 6.936 4.259 15.028 9.431 18.07l307.383 177.482c5.233 3.042 9.431-.183 9.431-7.119V254.146c0-6.997-4.198-15.089-9.431-18.071z" fill="url(#paint4_linear)"/><path d="M481.58 251.956v175.656L244.41 291.626l-70.092-40.218.487-181.436 69.605 40.217 232.607 134.283c2.372 1.399 4.563 5.354 4.563 7.484z" fill="url(#paint5_linear)"/><path d="M272 194.473l23.694 15.387c2.633 1.709 4.739 5.603 4.739 8.761 0 3.158-2.106 4.316-4.739 2.607L272 205.841c.878 14.885 10.882 32.539 22.992 40.403l.877.57c2.633 1.71 4.739 5.604 4.739 8.761 0 3.158-2.106 4.317-4.739 2.607l-.877-.57c-12.11-7.864-22.114-3.204-22.992 10.542l63.008 40.917c12.11 7.865 22.114 3.204 22.992-10.541l-23.694-15.387c-2.633-1.71-4.739-5.604-4.739-8.761 0-3.158 2.106-4.317 4.739-2.607L358 287.162c-.878-14.885-10.882-32.539-22.992-40.403l-.877-.57c-2.633-1.71-4.739-5.604-4.739-8.762 0-3.157 2.106-4.316 4.739-2.606l.877.57c12.11 7.864 22.114 3.203 22.992-10.542l-63.008-40.918c-12.11-7.864-22.114-3.204-22.992 10.542z" fill="#D1F2FF"/><path opacity=".1" d="M343.89 512.55c0 .304-.061.548-.122.852-.243.913-.304 1.278-1.399 3.042l-1.217 1.522c-9.309 11.56-21.417 17.097-39.974 22.329h-.061c-3.833 1.096-7.301 1.521-10.709.365-.486-.182-.973-.304-1.46-.486-6.51-2.312-11.865-5.537-15.698-9.309l-.304-.305c-1.947-1.947-1.704-4.441.609-6.206 5.78-4.441 12.107-8.639 18.861-12.533 6.754-3.894 13.994-7.545 21.661-10.952l.669-.305c3.103-1.399 7.362-1.521 10.769-.365l.487.182c7.119 2.373 12.96 5.781 17.036 9.918.913.791.852 1.278.852 2.251z" fill="#000"/><path d="M342.187 509.873c0 .304-.061.547-.122.851-.243.913-.852 1.765-1.886 2.556l-.548.426c-11.621 8.822-25.311 16.671-40.643 23.364h-.061c-3.103 1.339-7.302 1.521-10.709.365-.487-.182-.973-.304-1.46-.487-6.51-2.312-11.865-5.536-15.698-9.309l-.304-.304c-1.947-1.947-1.704-4.441.608-6.206 5.78-4.442 12.108-8.579 18.862-12.534 6.753-3.894 13.994-7.545 21.66-10.952l.67-.304c3.103-1.4 7.362-1.521 10.769-.365l.487.182c7.118 2.373 12.959 5.78 17.036 9.918.913.852 1.339 1.825 1.339 2.799z" fill="url(#paint6_linear)"/><path d="M342.186 509.874c0 .304-.061.547-.122.851-2.312.548-10.769 2.312-17.705 4.989-3.712 1.4-8.336 4.564-8.336 4.564-5.597 3.042-17.34 13.933-19.774 16.185-2.434 2.251-3.651 1.764-5.598 1.46-.487-.061-1.947-.426-3.833-.974-6.51-2.312-11.865-5.536-15.698-9.309l-.304-.304a7.684 7.684 0 01-.669-.791 4.397 4.397 0 01-.669-1.886v-.365c.06-1.339.973-2.312 1.277-2.678 8.579-9.613 14.785-15.028 23.79-19.165 9.127-4.199 14.481-5.659 21.174-6.207.791-.06 1.521-.121 2.251-.06 1.886 0 3.468.243 4.807.547.243.061.426.122.669.183l.487.182a33.52 33.52 0 012.616.974c5.902 2.312 10.83 5.354 14.42 8.944.791.913 1.217 1.886 1.217 2.86z" fill="url(#paint7_linear)"/><path opacity=".1" fill-rule="evenodd" clip-rule="evenodd" d="M87.25 412.584l151.745 87.25c2.251 1.339 6.206 1.156 8.823-.365l49.831-21.782c4.624-2.616 2.373-6.084.73-7.484l-2.13-1.582-2.251-1.825-149.372-87.311c-2.251-1.338-6.206-1.156-8.822.365l-48.31 26.528c-2.677 1.521-2.495 4.867-.243 6.206z" fill="#000"/><path fill-rule="evenodd" clip-rule="evenodd" d="M83.356 409.663l153.692 88.711c2.251 1.338 6.206 1.156 8.823-.365l47.884-23.242c1.521-.913 2.251-2.069 2.129-3.165v-5.901h-3.529v1.764l-151.623-90.961c-2.251-1.339-6.206-1.157-8.822.364L83.6 403.397c-2.677 1.582-2.495 4.928-.244 6.266z" fill="url(#paint8_linear)"/><path fill-rule="evenodd" clip-rule="evenodd" d="M83.356 407.29l153.692 88.711c2.251 1.339 6.206 1.156 8.823-.365l47.884-27.623c2.616-1.521 2.92-3.773.608-5.111l-153.692-88.71c-2.251-1.339-6.206-1.157-8.822.364L83.965 402.18c-2.617 1.521-2.86 3.833-.609 5.11z" fill="url(#paint9_linear)"/><path fill-rule="evenodd" clip-rule="evenodd" d="M241.611 492.776l-7.848-4.563c-.487-.244-.487-.669 0-.974l2.372-1.338c.426-.244 1.217-.244 1.643 0l7.849 4.563c.487.243.487.67 0 .974l-2.373 1.338c-.426.304-1.156.304-1.643 0zm9.492-7.118l-19.348-11.196c-.487-.243-.487-.669 0-.973l7.179-4.077c.426-.243 1.217-.243 1.643 0l19.348 11.195c.487.244.487.67 0 .974l-7.179 4.137c-.426.183-1.217.183-1.643-.06zm11.074-6.328l-14.055-8.092c-.487-.244-.487-.67 0-.974l7.179-4.138c.426-.243 1.217-.243 1.643 0l14.055 8.093c.487.243.487.669 0 .973l-7.18 4.138c-.486.243-1.216.243-1.642 0zm11.012-6.328l-7.301-4.198c-.487-.244-.487-.67 0-.974l7.18-4.137c.426-.244 1.217-.244 1.642 0l7.302 4.198c.486.244.486.669 0 .973l-7.18 4.138c-.426.243-1.156.243-1.643 0zm-10.952-6.328l-7.301-4.198c-.487-.244-.487-.669 0-.973l7.18-4.138c.426-.243 1.217-.243 1.643 0l7.301 4.198c.487.244.487.67 0 .974l-7.18 4.137c-.426.244-1.156.244-1.643 0zm-10.951-6.328l-7.241-4.198c-.487-.243-.487-.669 0-.973l7.18-4.138c.426-.243 1.217-.243 1.643 0l7.24 4.199c.487.243.487.669 0 .973l-7.18 4.137c-.425.304-1.156.304-1.642 0zm-10.892-6.267l-7.24-4.198c-.487-.243-.487-.669 0-.973l7.18-4.138c.426-.243 1.217-.243 1.643 0l7.24 4.198c.487.244.487.67 0 .974l-7.18 4.137c-.486.244-1.217.244-1.643 0zm-10.951-6.328l-7.241-4.197c-.487-.244-.487-.67 0-.974l7.119-4.138c.426-.243 1.217-.243 1.643 0l7.24 4.199c.487.243.487.669 0 .973l-7.179 4.137c-.365.305-1.096.305-1.582 0zm-10.891-6.266l-7.241-4.138c-.487-.243-.487-.669 0-.973l7.119-4.138c.426-.243 1.217-.243 1.643 0l7.24 4.138c.487.243.487.669 0 .973l-7.119 4.138c-.425.243-1.156.243-1.642 0zm-10.831-6.267l-7.24-4.137c-.487-.244-.487-.67 0-.974l7.119-4.138c.426-.243 1.217-.243 1.643 0l7.24 4.138c.487.243.487.669 0 .974l-7.119 4.137c-.487.243-1.217.243-1.643 0zm-10.891-6.267l-7.179-4.137c-.487-.244-.487-.67 0-.974l7.119-4.137c.425-.244 1.216-.244 1.642 0l7.18 4.137c.487.243.487.67 0 .974l-7.119 4.137c-.426.304-1.156.243-1.643 0zM186 422.684l-7.179-4.138c-.426-.243-.487-.669 0-.973l7.118-4.077c.426-.243 1.217-.243 1.643 0l7.18 4.138c.486.243.486.669 0 .974l-7.119 4.137c-.426.243-1.156.243-1.643-.061zm-9.187-6.206c-.426.243-1.156.243-1.643 0l-7.18-4.137c-.426-.244-.487-.67 0-.974l7.119-4.077c.426-.243 1.156-.243 1.643 0l7.179 4.138c.487.243.487.669 0 .973l-7.118 4.077zm-10.77-6.206c-.426.243-1.156.243-1.643 0l-7.179-4.137c-.426-.244-.487-.67 0-.974l7.058-4.076c.426-.244 1.156-.244 1.643 0l7.179 4.137c.426.243.487.669 0 .973l-7.058 4.077zm-10.769-6.267c-.426.243-1.156.243-1.643 0l-7.18-4.137c-.425-.244-.486-.67 0-.974l7.058-4.077c.426-.243 1.156-.243 1.643 0l7.18 4.138c.426.243.487.669 0 .973l-7.058 4.077zm-10.77-6.206c-.426.243-1.155.243-1.642 0l-7.119-4.137c-.426-.244-.487-.67 0-.974l7.058-4.076c.426-.244 1.156-.244 1.643 0l7.118 4.137c.426.243.487.669 0 .973l-7.058 4.077zm-10.769-6.145c-.426.243-1.156.243-1.643 0l-11.073-6.389c-.426-.243-.426-.669 0-.912l7.057-4.077c.426-.244 1.157-.244 1.643 0l11.074 6.388c.426.244.487.669 0 .974l-7.058 4.016zm150.041 75.203l-7.301-4.199c-.487-.243-.487-.669 0-.973l3.833-2.19c.487-.244 1.217-.244 1.643 0l7.301 4.198c.487.243.487.669 0 .974l-3.894 2.19c-.365.304-1.095.304-1.582 0zm-10.951-6.267l-7.302-4.199c-.487-.243-.487-.669 0-.973l3.833-2.191c.426-.243 1.217-.243 1.643 0l7.301 4.199c.487.243.487.669 0 .973l-3.833 2.191c-.426.243-1.156.243-1.642 0zm-10.952-6.328l-7.241-4.198c-.487-.243-.487-.67 0-.974l3.833-2.19c.426-.243 1.217-.243 1.643 0l7.241 4.198c.486.243.486.669 0 .974l-3.834 2.19c-.426.243-1.156.243-1.642 0zm-10.892-6.328l-7.24-4.198c-.487-.243-.487-.669 0-.973l3.833-2.191c.426-.243 1.217-.243 1.643 0l7.24 4.198c.487.244.487.669 0 .974l-3.833 2.19c-.487.305-1.217.305-1.643 0zm-10.952-6.267l-7.24-4.198c-.487-.243-.487-.669 0-.974l3.833-2.19c.426-.243 1.217-.243 1.643 0l7.24 4.199c.487.243.487.669 0 .973l-3.833 2.19c-.426.243-1.156.243-1.643 0zm-10.891-6.267l-7.24-4.137c-.487-.243-.487-.669 0-.973l3.833-2.191c.426-.243 1.217-.243 1.643 0l7.24 4.137c.487.244.487.67 0 .974l-3.833 2.19c-.426.244-1.156.244-1.643 0zm-10.83-6.267l-7.24-4.137c-.487-.243-.487-.669 0-.974l3.772-2.19c.426-.243 1.217-.243 1.643 0l7.24 4.137c.487.244.487.67 0 .974l-3.833 2.19c-.426.244-1.156.244-1.582 0zm-10.891-6.266l-7.18-4.138c-.486-.243-.486-.669 0-.974l3.773-2.19c.426-.243 1.217-.243 1.643 0l7.179 4.138c.487.243.487.669 0 .973l-3.772 2.191c-.426.243-1.156.243-1.643 0zm-10.83-6.267l-7.18-4.138c-.426-.243-.486-.669 0-.973l3.773-2.19c.425-.244 1.217-.244 1.642 0l7.18 4.137c.487.243.487.669 0 .973l-3.772 2.191c-.426.243-1.156.243-1.643 0zm-9.188-6.206c-.426.243-1.156.243-1.642 0l-7.18-4.138c-.426-.243-.487-.669 0-.974l3.772-2.19c.426-.243 1.157-.243 1.643 0l7.18 4.138c.487.243.487.669 0 .973l-3.773 2.191zm-10.769-6.267c-.426.243-1.156.243-1.643 0l-7.179-4.138c-.426-.243-.487-.669 0-.973l3.772-2.19c.426-.244 1.156-.244 1.643 0l7.179 4.137c.426.243.487.669 0 .973l-3.772 2.191zm-10.769-6.206c-.426.243-1.156.243-1.643 0l-7.18-4.138c-.426-.243-.486-.669 0-.974l3.773-2.19c.426-.243 1.156-.243 1.642 0l7.18 4.138c.426.243.487.669 0 .973l-3.772 2.191zm-10.77-6.207c-.425.244-1.156.244-1.642 0l-7.119-4.137c-.426-.243-.487-.67 0-.974l3.711-2.19c.426-.243 1.156-.243 1.643 0l7.119 4.137c.426.244.486.67 0 .974l-3.712 2.19zm-10.769-6.206c-.426.244-1.156.244-1.643 0l-11.073-6.388c-.426-.244-.426-.67 0-.913l3.711-2.19c.426-.244 1.156-.244 1.643 0l11.073 6.388c.426.244.487.669 0 .974l-3.711 2.129zm-10.283 9.735c.426.244.487.67 0 .974l-7.058 4.076c-.425.244-1.156.244-1.642 0l-15.151-8.761c-.425-.243-.425-.669 0-.913l7.058-4.076c.426-.244 1.157-.244 1.643 0l15.15 8.7zm-5.415 9.492c.426.244.426.669 0 .973l-7.058 4.077c-.426.244-1.156.244-1.643 0l-20.565-11.926c-.426-.243-.426-.669 0-.912l7.058-4.076c.426-.244 1.156-.244 1.643 0l20.565 11.864zm-24.277-1.521c.426.244.426.669 0 .913l-7.057 4.076c-.426.243-1.157.243-1.643 0l-7.12-4.137c-.425-.244-.425-.67 0-.913l6.998-4.077c.426-.243 1.156-.243 1.643 0l7.179 4.138zm2.008 2.068c.426-.243 1.156-.243 1.643 0l7.119 4.138c.426.243.426.669 0 .974l-7.058 4.076c-.426.244-1.156.244-1.643 0l-7.119-4.138c-.425-.243-.425-.669 0-.912l7.058-4.138zm10.709 6.207c.426-.244 1.156-.244 1.643 0l9.187 5.293c.426.244.426.669 0 .973l-7.058 4.077c-.426.244-1.156.244-1.642 0l-9.188-5.293c-.426-.244-.426-.669 0-.974l7.058-4.076zm18.983-4.99l-7.118-4.137c-.426-.243-.426-.669 0-.973l7.057-4.077c.426-.243 1.156-.243 1.643 0l7.119 4.137c.426.244.487.669 0 .974l-7.058 4.076c-.426.244-1.156.244-1.643 0zm-12.473 4.442l7.058-4.076c.426-.244 1.156-.244 1.643 0l7.119 4.137c.425.243.486.669 0 .973l-7.058 4.077c-.426.243-1.156.243-1.643 0l-7.119-4.137c-.487-.305-.487-.731 0-.974zm6.267 7.91c.426-.244 1.156-.244 1.643 0l10.404 6.023c.426.244.487.669 0 .974l-7.058 4.076c-.426.244-1.156.244-1.642 0l-10.405-6.023c-.426-.243-.426-.67 0-.974l7.058-4.076zm27.684-9.066c.426-.243 1.156-.243 1.643 0l7.18 4.137c.425.244.486.669 0 .974l-7.058 4.076c-.426.244-1.157.244-1.643 0l-7.18-4.137c-.426-.243-.486-.669 0-.973l7.058-4.077zm-10.708 2.921l-7.119-4.138c-.426-.243-.487-.669 0-.974l7.058-4.076c.426-.243 1.156-.243 1.643 0l7.179 4.138c.426.243.487.669 0 .973l-7.058 4.077c-.487.304-1.217.304-1.703 0zm3.346 5.415l-7.058 4.076c-.426.243-1.156.243-1.643 0l-7.118-4.137c-.426-.244-.487-.669 0-.974l7.058-4.076c.425-.244 1.155-.244 1.642 0l7.119 4.137c.426.304.426.731 0 .974zm-5.111 5.232l7.058-4.076c.426-.244 1.156-.244 1.643 0l7.179 4.137c.426.243.487.669 0 .974l-7.057 4.076c-.426.244-1.157.244-1.643 0l-7.18-4.137c-.426-.305-.426-.73 0-.974zm-1.217 3.651c.426-.243 1.156-.243 1.643 0l45.937 26.589c.487.243.487.669 0 .973l-7.118 4.077c-.426.243-1.217.243-1.643 0l-45.877-26.589c-.426-.244-.486-.669 0-.973l7.058-4.077zm58.593 7.727l7.24 4.137c.487.244.487.669 0 .974l-7.118 4.076c-.426.244-1.217.244-1.643 0l-7.18-4.137c-.486-.243-.486-.669 0-.973l7.119-4.077c.365-.243 1.095-.243 1.582 0zm-9.066 8.336l-7.119 4.076c-.426.243-1.216.243-1.642 0l-7.18-4.137c-.426-.244-.487-.669 0-.974l7.119-4.076c.426-.244 1.217-.244 1.642 0l7.18 4.137c.487.304.487.731 0 .974zm-1.764-14.603l7.179 4.138c.487.243.487.669 0 .973l-7.119 4.077c-.425.243-1.216.243-1.642 0l-7.18-4.138c-.487-.243-.487-.669 0-.974l7.119-4.076c.426-.243 1.156-.243 1.643 0zm-9.066 8.397l-7.119 4.076c-.426.244-1.156.244-1.643 0l-7.179-4.137c-.426-.244-.487-.67 0-.974l7.118-4.076c.426-.244 1.157-.244 1.643 0l7.18 4.137c.426.243.487.669 0 .974zm-3.407-14.664c.426-.243 1.156-.243 1.642 0l7.18 4.138c.487.243.487.669 0 .973l-7.119 4.077c-.426.243-1.156.243-1.643 0l-7.179-4.138c-.426-.243-.487-.669 0-.973l7.119-4.077zm-10.709 2.982l-7.18-4.138c-.425-.243-.486-.669 0-.974l7.058-4.076c.426-.243 1.157-.243 1.643 0l7.18 4.138c.426.243.487.669 0 .973l-7.119 4.077c-.426.243-1.156.243-1.582 0zm3.286 5.415l-7.119 4.076c-.426.243-1.156.243-1.643 0l-7.18-4.137c-.425-.244-.486-.669 0-.974l7.058-4.076c.426-.244 1.157-.244 1.643 0l7.18 4.137c.547.304.547.731.061.974zm16.549 17.766l7.119-4.076c.426-.244 1.217-.244 1.643 0l7.179 4.137c.487.243.487.669 0 .973l-7.118 4.077c-.426.243-1.217.243-1.643 0l-7.18-4.137c-.426-.304-.486-.731 0-.974zm6.815 7.301l10.343 6.024c.487.243.487.669 0 .973l-7.118 4.077c-.426.243-1.217.243-1.643 0l-10.344-6.023c-.486-.244-.486-.67 0-.974l7.119-4.077c.426-.243 1.156-.243 1.643 0zm29.083-8.396l7.241 4.198c.486.244.486.669 0 .974l-7.119 4.137c-.426.243-1.217.243-1.643 0l-7.24-4.198c-.487-.243-.487-.67 0-.974l7.118-4.137c.487-.244 1.217-.244 1.643 0zm-19.652-1.217c-.487-.243-.487-.669 0-.973l7.118-4.077c.426-.243 1.217-.243 1.643 0l7.241 4.137c.486.244.486.67 0 .974l-7.119 4.137c-.426.244-1.217.244-1.643 0l-7.24-4.198zm10.586 9.613l-7.118 4.077c-.426.243-1.217.243-1.643 0l-7.24-4.198c-.487-.243-.487-.67 0-.974l7.118-4.077c.426-.243 1.217-.243 1.643 0l7.24 4.199c.487.304.487.73 0 .973zm2.008 1.156c.426-.243 1.217-.243 1.643 0l7.241 4.199c.486.243.486.669 0 .973l-7.119 4.077c-.426.243-1.217.243-1.643 0l-7.24-4.199c-.487-.243-.487-.669 0-.973l7.118-4.077zm-8.031 6.997l7.788 4.503c.487.244.487.669 0 .973l-7.119 4.077c-.426.243-1.217.243-1.643 0l-7.788-4.503c-.486-.243-.486-.669 0-.973l7.119-4.077c.487-.304 1.217-.304 1.643 0zm17.219-5.232c-.487-.243-.487-.67 0-.974l7.118-4.137c.426-.243 1.217-.243 1.643 0l7.241 4.198c.486.244.486.67 0 .974l-7.18 4.137c-.426.243-1.217.243-1.643 0l-7.179-4.198zm10.891 5.354l7.179-4.137c.426-.243 1.217-.243 1.643 0l7.241 4.198c.486.243.486.67 0 .974l-7.18 4.137c-.426.243-1.217.243-1.643 0l-7.24-4.198c-.426-.244-.426-.67 0-.974zm-9.066 8.397l-7.24-4.199c-.487-.243-.487-.669 0-.973l7.118-4.077c.426-.243 1.217-.243 1.643 0l7.241 4.199c.486.243.486.669 0 .973l-7.18 4.077c-.426.304-1.156.243-1.582 0zm-12.412.79l7.788 4.503c.487.244.487.669 0 .973l-2.373 1.339c-.426.243-1.217.243-1.643 0l-7.788-4.503c-.486-.243-.486-.669 0-.973l2.373-1.339c.426-.243 1.217-.243 1.643 0zm16.184 3.591l7.849 4.563c.487.243.487.669 0 .973l-2.068 1.156c-.426.244-1.217.244-1.643 0l-7.849-4.563c-.487-.243-.487-.67 0-.974l2.069-1.155c.426-.305 1.156-.305 1.642 0zm-5.171 2.981l7.848 4.563c.487.243.487.669 0 .974l-2.19 1.277c-.426.244-1.217.244-1.643 0l-7.848-4.563c-.487-.244-.487-.669 0-.973l2.19-1.278c.426-.305 1.156-.305 1.643 0z" fill="url(#paint10_linear)"/><path opacity=".1" d="M165.131 378.268l-92.24-53.238c-2.434-1.4-2.616-2.982-.426-3.53 2.19-.547 5.902.122 8.336 1.521l92.239 53.239c2.434 1.399 2.616 2.982.426 3.529-2.129.548-5.902-.121-8.335-1.521z" fill="#000"/><defs><linearGradient id="paint0_linear" x1="208.5" y1="0" x2="208.5" y2="339" gradientUnits="userSpaceOnUse"><stop stop-color="#8EEBFF"/><stop offset="1" stop-color="#00A3FF"/></linearGradient><linearGradient id="paint1_linear" x1="249.761" y1="405.89" x2="399.005" y2="405.89" gradientUnits="userSpaceOnUse"><stop offset=".003" stop-color="#93DCFF"/><stop offset="1" stop-color="#0B7FE2"/></linearGradient><linearGradient id="paint2_linear" x1="249.985" y1="403.455" x2="399.005" y2="403.455" gradientUnits="userSpaceOnUse"><stop offset=".003" stop-color="#E5F8FE"/><stop offset="1" stop-color="#A8EBFB"/></linearGradient><linearGradient id="paint3_linear" x1="343.095" y1="354.63" x2="359.474" y2="580.107" gradientUnits="userSpaceOnUse"><stop offset=".003" stop-color="#93DCFF"/><stop offset="1" stop-color="#0B7FE2"/></linearGradient><linearGradient id="paint4_linear" x1="165.035" y1="269.201" x2="491.333" y2="269.201" gradientUnits="userSpaceOnUse"><stop offset=".003" stop-color="#E5F8FE"/><stop offset="1" stop-color="#A8EBFB"/></linearGradient><linearGradient id="paint5_linear" x1="174.287" y1="248.795" x2="481.595" y2="248.795" gradientUnits="userSpaceOnUse"><stop offset=".007" stop-color="#61DCFE"/><stop offset="1" stop-color="#94B7F9"/></linearGradient><linearGradient id="paint6_linear" x1="290.114" y1="527.073" x2="360.358" y2="482.86" gradientUnits="userSpaceOnUse"><stop offset=".003" stop-color="#93DCFF"/><stop offset="1" stop-color="#0B7FE2"/></linearGradient><linearGradient id="paint7_linear" x1="269.425" y1="517.231" x2="342.166" y2="517.231" gradientUnits="userSpaceOnUse"><stop offset=".003" stop-color="#E5F8FE"/><stop offset="1" stop-color="#A8EBFB"/></linearGradient><linearGradient id="paint8_linear" x1="89.595" y1="421.085" x2="425.887" y2="476.568" gradientUnits="userSpaceOnUse"><stop offset=".003" stop-color="#93DCFF"/><stop offset="1" stop-color="#0B7FE2"/></linearGradient><linearGradient id="paint9_linear" x1="81.829" y1="435.123" x2="295.895" y2="435.123" gradientUnits="userSpaceOnUse"><stop offset=".003" stop-color="#E5F8FE"/><stop offset="1" stop-color="#A8EBFB"/></linearGradient><linearGradient id="paint10_linear" x1="88.295" y1="434.416" x2="289.664" y2="434.416" gradientUnits="userSpaceOnUse"><stop offset=".003" stop-color="#93DCFF"/><stop offset="1" stop-color="#0B7FE2"/></linearGradient></defs></svg>