<svg width="130" height="130" fill="none" xmlns="http://www.w3.org/2000/svg"><path d="M93.205 47.629a5.416 5.416 0 00-7.66 0l-23.253 23.25-9.712-9.708a5.415 5.415 0 10-7.66 7.659l13.542 13.54a5.39 5.39 0 003.83 1.588 5.39 5.39 0 003.83-1.588l27.083-27.083a5.416 5.416 0 000-7.66z" fill="url(#paint0_linear)"/><path d="M124.583 59.583A5.418 5.418 0 00119.167 65c0 29.868-24.3 54.167-54.167 54.167S10.833 94.867 10.833 65 35.133 10.833 65 10.833c14.541 0 28.191 5.682 38.439 16.001a5.412 5.412 0 007.66.027 5.416 5.416 0 00.027-7.659C98.83 6.82 82.447 0 65 0 29.158 0 0 29.158 0 65s29.158 65 65 65 65-29.158 65-65a5.419 5.419 0 00-5.417-5.417z" fill="url(#paint1_linear)"/><defs><linearGradient id="paint0_linear" x1="69.063" y1="46.042" x2="69.063" y2="83.959" gradientUnits="userSpaceOnUse"><stop stop-color="#8EEBFF"/><stop offset="1" stop-color="#58C3FF"/></linearGradient><linearGradient id="paint1_linear" x1="65" y1="0" x2="65" y2="130" gradientUnits="userSpaceOnUse"><stop stop-color="#8EEBFF"/><stop offset="1" stop-color="#58C3FF"/></linearGradient></defs></svg>